<svg width="212" height="38" viewBox="0 0 212 38" fill="none" xmlns="http://www.w3.org/2000/svg">
<path d="M76.4847 6.77588L74.6485 11.4817L80.5434 26.4318H68.8195L64.7637 36.8978H68.484L71.2816 29.8346H81.8884L84.677 36.8978H88.4573L76.4847 6.77588Z" fill="white"/>
<path d="M54.6891 28.3853L53.9882 29.3289C52.9284 30.7161 51.5577 31.8352 49.9866 32.5963C48.4154 33.3575 46.6876 33.7393 44.942 33.7111C38.5528 33.7111 33.7332 28.8256 33.7332 22.3465C33.7332 15.8675 38.451 10.964 44.6934 10.964C46.3266 10.9385 47.9439 11.2876 49.4211 11.9844C50.8984 12.6812 52.1964 13.7073 53.2154 14.9838L53.9224 15.8824L56.7561 13.7587L55.9771 12.8121C54.6164 11.1364 52.8951 9.7893 50.9414 8.87131C48.9876 7.95331 46.8519 7.48808 44.6934 7.51028C36.4051 7.51028 30.1207 13.8935 30.0788 22.3555C30.042 24.3071 30.3941 26.2465 31.114 28.0608C31.834 29.8751 32.9075 31.528 34.2724 32.9234C35.8005 34.4031 37.6216 35.5464 39.6185 36.2795C41.6153 37.0126 43.7438 37.3193 45.8664 37.1799C47.989 37.0405 50.0588 36.4581 51.9427 35.4701C53.8265 34.4821 55.4823 33.1105 56.8038 31.4436L57.5348 30.503L54.6891 28.3853Z" fill="white"/>
<path d="M142.686 7.81982H139.082V36.8963H142.686V7.81982Z" fill="white"/>
<path d="M178.037 28.3853L177.336 29.3289C176.276 30.7161 174.905 31.8352 173.334 32.5964C171.763 33.3575 170.035 33.7393 168.29 33.7112C161.901 33.7112 157.081 28.8256 157.081 22.3465C157.081 15.8675 161.796 10.964 168.041 10.964C169.674 10.9383 171.291 11.2873 172.768 11.9841C174.244 12.681 175.542 13.7072 176.56 14.9838L177.27 15.8825L180.101 13.7587L179.322 12.8122C177.962 11.1363 176.241 9.78909 174.288 8.87106C172.335 7.95304 170.199 7.48789 168.041 7.51029C159.75 7.51029 153.465 13.8935 153.426 22.3555C153.389 24.3076 153.741 26.2476 154.461 28.0624C155.181 29.8772 156.255 31.5306 157.62 32.9264C159.148 34.4061 160.969 35.5494 162.966 36.2825C164.963 37.0156 167.092 37.3223 169.214 37.1829C171.337 37.0435 173.407 36.4611 175.29 35.4731C177.174 34.4851 178.83 33.1135 180.151 31.4466L180.882 30.509L178.037 28.3853Z" fill="white"/>
<path d="M112.352 26.2042L97.5547 6.77588V12.6439L108.74 27.2975L112.304 31.9763L115.305 28.0343L123.522 17.3557V36.8978H127.146V6.78188L112.352 26.2042Z" fill="white"/>
<path d="M97.5547 22.5757V36.8968H101.185V27.3114L97.5547 22.5757Z" fill="white"/>
<path d="M11.7894 6.77588L9.95323 11.4817L15.8481 26.4318H4.12416L0.0683594 36.8978H3.78864L6.58953 29.8346H17.1931L19.982 36.8978H23.762L11.7894 6.77588Z" fill="white"/>
<path d="M199.065 6.77588L197.226 11.4817L203.121 26.4318H191.394L187.338 36.8978H191.058L193.862 29.8346H204.469L207.254 36.8978H211.038L199.065 6.77588Z" fill="white"/>
<path d="M82.0679 0.0986328L79.3721 4.61874H77.3203L79.0787 0.0986328H82.0679Z" fill="white"/>
</svg>
