<svg width="215" height="69" viewBox="0 0 215 69" fill="none" xmlns="http://www.w3.org/2000/svg">
<path d="M133.473 43.5891C126.474 43.5891 120.779 49.282 120.779 56.2792C120.779 63.2763 126.474 68.9693 133.473 68.9693C140.473 68.9693 146.168 63.2763 146.168 56.2792C146.168 49.282 140.473 43.5891 133.473 43.5891ZM133.473 64.7394C128.807 64.7394 125.011 60.9442 125.011 56.2792C125.011 51.6141 128.807 47.819 133.473 47.819C138.14 47.819 141.936 51.6141 141.936 56.2792C141.936 60.9442 138.14 64.7394 133.473 64.7394Z" fill="white"/>
<path d="M154.628 30.0992H150.396V68.0814H154.628V30.0992Z" fill="white"/>
<path d="M118.655 43.494C115.406 43.494 112.44 44.7217 110.192 46.7356V44.024C110.192 44.0235 110.191 44.0231 110.191 44.0226H105.962C105.962 44.0231 105.961 44.0235 105.961 44.024V68.0813H110.192V56.1841C110.192 51.519 113.989 47.7239 118.655 47.7239C118.655 47.7243 118.655 43.4998 118.655 43.494Z" fill="white"/>
<path d="M77.3809 56.2816C77.3809 49.1501 82.8415 43.5929 89.7292 43.5929C96.6169 43.5929 101.635 48.5601 101.733 57.3144H81.7594C82.1534 61.6916 85.5478 64.9866 90.0248 64.9866C93.1241 64.9866 95.6332 63.6094 97.2076 62.036L99.9134 64.9866C97.7982 67.1999 94.305 68.9704 90.0248 68.9704C82.7431 68.9704 77.3809 63.3638 77.3809 56.2816ZM81.9562 53.6261H96.9614C96.3707 49.5933 93.2225 47.4294 89.4835 47.4784C85.8919 47.4784 82.842 49.8883 81.9562 53.6261Z" fill="white"/>
<path d="M179.485 44.1177V46.3835C177.31 44.6375 174.552 43.5891 171.552 43.5891C164.552 43.5891 158.857 49.282 158.857 56.2792C158.857 63.2763 164.552 68.9693 171.552 68.9693C174.552 68.9693 177.31 67.9209 179.485 66.1749V68.0807H183.717V59.8986V52.6598V44.1177H179.485ZM179.485 59.1951C178.293 62.4251 175.192 64.7389 171.552 64.7389C166.885 64.7389 163.089 60.9438 163.089 56.2787C163.089 51.6137 166.885 47.8185 171.552 47.8185C175.192 47.8185 178.293 50.1324 179.485 53.3629C179.821 54.2737 180.014 55.2531 180.014 56.2787C180.014 57.3053 179.821 58.2847 179.485 59.1951Z" fill="white"/>
<path d="M68.9169 44.1177V46.3835C66.7421 44.6375 63.9833 43.5891 60.9832 43.5891C53.9834 43.5891 48.2891 49.282 48.2891 56.2792C48.2891 63.2763 53.9834 68.9693 60.9832 68.9693C63.9833 68.9693 66.7421 67.9209 68.9169 66.1749V68.0807H73.1481V59.8986V52.6598V44.1177H68.9169ZM68.9169 59.1951C67.7249 62.4251 64.6234 64.7389 60.9832 64.7389C56.3171 64.7389 52.5203 60.9438 52.5203 56.2787C52.5203 51.6137 56.3167 47.8185 60.9832 47.8185C64.6234 47.8185 67.7249 50.1324 68.9169 53.3629C69.253 54.2737 69.4457 55.2531 69.4457 56.2787C69.4462 57.3053 69.253 58.2847 68.9169 59.1951Z" fill="white"/>
<path d="M190.062 30.0992V52.661V59.8997V68.0818H194.294V66.176C196.469 67.9221 199.227 68.9704 202.227 68.9704C209.227 68.9704 214.922 63.2775 214.922 56.2804C214.922 49.2828 209.227 43.5903 202.227 43.5903C199.227 43.5903 196.469 44.6386 194.294 46.3847V30.0997H190.062V30.0992ZM193.765 56.2804C193.765 55.2543 193.958 54.2749 194.294 53.3645C195.486 50.134 198.587 47.8202 202.227 47.8202C206.894 47.8202 210.69 51.6153 210.69 56.2804C210.69 60.9454 206.894 64.7406 202.227 64.7406C198.587 64.7406 195.486 62.4267 194.294 59.1967C193.958 58.2858 193.765 57.3065 193.765 56.2804Z" fill="white"/>
<path d="M55.3302 21.9411L43.1702 0.886049C43.0829 0.735205 42.8902 0.683589 42.7393 0.770803L21.6774 12.9269C21.5599 12.995 21.499 13.1303 21.5261 13.2633L28.3546 46.6218L27.3549 47.7489C25.6768 49.6404 24.256 50.6652 21.5546 50.6652C18.5256 50.6652 17.1035 49.0691 14.8516 46.2476C12.1983 42.9236 8.90493 38.7979 1.0024 38.6884C0.826576 38.6862 0.679688 38.8304 0.679688 39.0061V42.3928C0.679688 42.565 0.820789 42.7034 0.993048 42.706C6.96112 42.8035 9.26903 45.6949 11.7105 48.7532C13.9289 51.5325 16.4434 54.6824 21.5546 54.6824C25.9674 54.6824 28.3951 52.6311 30.3616 50.4142L37.6152 42.237L37.6156 42.2366L55.2928 22.3082C55.3832 22.2063 55.3979 22.0586 55.3302 21.9411Z" fill="white"/>
</svg>
