<svg width="143" height="61" viewBox="0 0 143 61" fill="none" xmlns="http://www.w3.org/2000/svg">
<path d="M36.4076 9.14719C36.4076 9.14719 32.6671 7.4645 30.3913 7.4645C27.7916 7.4645 26.4456 8.59123 25.8752 11.3296L25.2424 14.5678H32.3047L30.1208 20.9614H24.1163L19.5945 46.8936C17.6187 58.072 12.7611 60.9672 0.181641 60.9672L1.30159 54.13C7.36552 53.7722 9.48683 51.5897 10.4138 46.5357L14.9328 20.9614H9.99483L11.1241 14.5678H16.0559L16.6324 11.6106C18.2427 2.95469 22.7793 0.506104 29.4909 0.506104C32.3381 0.523281 35.1433 1.19317 37.6883 2.4638L36.4076 9.14719Z" fill="white"/>
<path d="M75.7011 13.8134L71.8834 35.3836C71.8834 35.3836 68.1071 43.0724 63.8793 43.0724C61.7549 43.0724 62.0968 40.5558 62.4355 38.6365L66.8146 13.7956H57.9252L54.0867 35.3836C54.0867 35.3836 50.3283 43.0724 46.0648 43.0724C43.9464 43.0724 44.2822 40.5558 44.6387 38.6365L50.8394 0.813232L41.9648 2.53438L35.7554 38.6365C34.3947 46.3254 37.0506 50.5425 43.4175 50.5425C49.8469 50.5425 53.0618 44.4742 53.3143 43.9744C53.8372 48.2447 56.5231 50.5425 61.2114 50.5425C67.9111 50.5425 71.1111 43.9448 71.1111 43.9448L71.7407 49.8593H78.2326L84.5876 13.8015L75.7011 13.8134Z" fill="white"/>
<path d="M106.749 30.892L113.665 49.8716H103.064L100.331 35.9193L92.7341 49.8746H81.5273L95.1228 30.8949L88.5865 13.8168H99.3833L101.647 26.3999L107.994 13.8168H119.34L106.749 30.892Z" fill="white"/>
<path d="M125.281 1.25342H128.199V18.231H125.281V1.25342Z" fill="white"/>
<path d="M134.688 3.87946H129.756V1.25342H142.531V3.87946H137.602V18.231H134.673L134.688 3.87946Z" fill="white"/>
</svg>
