<svg width="236" height="47" viewBox="0 0 236 47" fill="none" xmlns="http://www.w3.org/2000/svg">
<path d="M19.2572 42.7106C7.63524 42.7106 0.489724 32.9578 0.494143 22.3924C0.494143 11.2218 6.88843 2.27293 19.1467 2.27735C28.1571 2.27735 35.1126 7.644 35.6826 15.2236H27.6975C27.2998 11.69 23.4818 8.84101 19.1467 8.83659C12.8143 8.83659 8.59417 13.7351 8.58975 22.7413C8.58975 28.956 11.7228 36.0277 19.0804 36.0277C25.9476 36.0277 28.3206 32.6575 28.3206 27.3659H19.9245V21.0496H35.718V27.4101C35.7312 36.4119 31.9 42.715 19.2572 42.7106Z" fill="white"/>
<path d="M40.2949 41.4074V3.10315H47.71V41.4074H40.2949Z" fill="white"/>
<path d="M51.2282 25.2018C51.8336 18.9518 57.375 13.2759 63.6279 12.7194C73.5265 11.836 79.8059 17.8122 79.8015 27.3971C79.8015 36.2885 74.2645 42.1587 65.5414 42.1543C55.7356 42.1543 50.2649 35.0827 51.2282 25.2018ZM72.3334 27.4103C72.3334 21.7124 70.0532 18.9164 65.5502 18.9164C61.0472 18.9164 58.7626 21.708 58.7582 27.4059C58.7538 33.1039 61.0384 35.9572 65.5414 35.9617C70.0443 35.9661 72.3289 33.095 72.3334 27.3927V27.4103Z" fill="white"/>
<path d="M83.3379 41.4206V3.11633H90.6381V17.0255C92.7504 14.0617 95.499 12.6394 98.9679 12.6394C106.211 12.6394 110.484 18.6289 110.457 27.1228C110.457 36.584 105.38 42.1671 98.3095 42.1671C94.8848 42.1671 92.2643 40.842 90.4967 38.0018L90.4392 41.4206H83.3379ZM102.958 27.6307C102.958 21.8886 100.908 18.969 96.5728 18.9645C92.4676 18.9645 90.3553 21.9858 90.3553 28.0857C90.3553 32.8163 93.0906 36.1246 96.6258 36.1246C100.333 36.1246 102.958 32.6484 102.958 27.6307Z" fill="white"/>
<path d="M132.45 41.4608C132.207 40.6442 132.059 39.8024 132.008 38.9519C130.241 40.8866 127.276 42.1984 123.511 42.1984C117.125 42.1984 114.16 39.058 114.16 34.4996C114.16 26.4032 119.582 25.4933 127.05 24.4686C130.758 23.9606 131.788 23.2186 131.788 21.2795C131.788 19.4553 129.962 18.3731 127.055 18.3731C123.692 18.3731 122.322 20.0207 121.977 22.5295H115.062C115.181 16.7123 118.376 12.6664 127.386 12.6708C136.282 12.6708 139.362 16.6461 139.357 23.7133V41.4608H132.45ZM131.942 27.7195C131.2 28.4616 129.887 28.8591 127.152 29.3715C122.932 30.1709 121.562 31.368 121.562 33.762C121.562 35.8689 122.817 36.8936 125.155 36.898C128.973 36.898 131.827 34.1065 131.885 30.7982L131.942 27.7195Z" fill="white"/>
<path d="M162.383 41.4602V24.4592C162.383 20.1261 161.133 18.9291 157.593 18.9291C153.718 18.9291 151.848 21.0934 151.848 25.3691V41.4602H144.42V13.4167H151.49V17.5201C153.2 14.384 156.051 12.6614 160.558 12.6614C165.918 12.6614 169.838 15.9123 169.838 22.0122V41.447L162.383 41.4602Z" fill="white"/>
<path d="M191.156 30.9389C190.992 34.0308 189.618 35.7756 186.834 35.7756C183.811 35.7756 182.561 33.7216 182.561 30.188V18.6729H194.05V12.6879H182.587V5.84595H175.27V30.9301C175.27 36.9726 178.517 42.22 186.728 42.2244C194.656 42.2244 198.08 36.924 198.08 30.9964V30.9434L191.156 30.9389Z" fill="white"/>
<path d="M206.997 1.05812C206.698 0.885667 206.355 0.806309 206.011 0.830217C205.666 0.854126 205.337 0.980213 205.065 1.19232C204.793 1.40443 204.591 1.69289 204.484 2.02075C204.377 2.3486 204.37 2.70091 204.465 3.03253L207.775 7.96632C210.93 12.6786 212.615 18.2214 212.615 23.8918C212.615 29.5623 210.93 35.105 207.775 39.8173L204.469 44.7467C204.374 45.078 204.38 45.4302 204.487 45.758C204.593 46.0859 204.795 46.3746 205.066 46.5871C205.338 46.7996 205.667 46.9263 206.011 46.951C206.354 46.9756 206.698 46.8971 206.997 46.7255L234.709 25.6255C234.975 25.4232 235.191 25.162 235.34 24.8624C235.489 24.5628 235.566 24.2329 235.566 23.8984C235.566 23.564 235.489 23.2341 235.34 22.9345C235.191 22.6349 234.975 22.3737 234.709 22.1714L206.997 1.05812Z" fill="white"/>
</svg>
