<svg width="188" height="63" viewBox="0 0 188 63" fill="none" xmlns="http://www.w3.org/2000/svg">
<path d="M88.4749 22.6682H94.4825V48.8014H88.4749V22.6682ZM110.353 33.3593C107.284 32.3581 104.46 31.5771 104.46 29.6972V29.597C104.46 28.0626 105.797 26.9737 108.122 26.9737C109.393 27.0066 110.649 27.2502 111.84 27.6946L111.877 27.7121L112.22 27.8398C113.166 28.1402 115.725 28.5407 117.877 25.1965C115.104 23.3641 111.542 22.2252 108.273 22.2252C103.086 22.2202 98.9883 25.2515 98.9883 30.1903V30.2904C98.9883 35.2968 103.294 36.8738 107.156 37.9627C110.225 38.9039 112.999 39.5947 112.999 41.6248V41.7224C112.999 43.4546 111.514 44.5435 108.938 44.5435C107.046 44.503 105.185 44.0485 103.486 43.2118C102.948 42.984 100.152 42.0278 97.7617 45.4297C100.919 47.8857 104.791 49.2436 108.791 49.2971C114.235 49.2971 118.493 46.5761 118.493 41.0791V40.9815C118.481 36.278 114.175 34.5458 110.363 33.3593H110.353ZM160.196 35.7348C160.196 43.2093 154.256 49.3972 146.178 49.3972C138.208 49.3972 132.318 43.3095 132.318 35.835C132.338 28.3079 138.288 22.1225 146.298 22.1225C154.309 22.1225 160.209 28.2103 160.209 35.7323L160.196 35.7348ZM154.206 35.835C154.206 31.1816 150.889 27.3692 146.196 27.3692C141.395 27.3692 138.326 31.124 138.326 35.7348C138.326 40.3883 141.642 44.2006 146.296 44.2006C151.147 44.1981 154.218 40.4358 154.218 35.8325L154.206 35.835ZM122.441 48.8014H128.431V22.6682H122.441V48.8014ZM177.976 22.1225C173.916 22.1225 171.493 24.2502 169.808 26.7259V22.6682H163.821V48.8014H169.808V34.0502C169.808 29.9925 172.234 27.567 175.698 27.567C179.263 27.567 181.29 29.8924 181.29 33.9501V48.8014H187.28V32.1703C187.28 26.0826 183.866 22.1225 177.976 22.1225ZM85.5161 22.6682L74.8251 48.9992H69.4307L63.1928 33.7073V57.127C63.1928 58.6314 62.5952 60.0741 61.5314 61.1379C60.4677 62.2016 59.0249 62.7992 57.5206 62.7992H6.28549C4.78112 62.7992 3.33838 62.2016 2.27463 61.1379C1.21089 60.0741 0.613281 58.6314 0.613281 57.127L0.613281 5.89193C0.613281 4.38757 1.21089 2.94482 2.27463 1.88108C3.33838 0.817332 4.78112 0.219727 6.28549 0.219727L57.5206 0.219727C59.0249 0.219727 60.4677 0.817332 61.5314 1.88108C62.5952 2.94482 63.1928 4.38757 63.1928 5.89193V22.6632H65.1252L72.1542 41.8676L79.2332 22.6632L85.5161 22.6682ZM17.705 16.1425C17.6916 16.9012 17.9043 17.6467 18.3161 18.2841C18.7278 18.9215 19.32 19.422 20.0172 19.7217C20.7143 20.0214 21.4849 20.1068 22.2308 19.967C22.9766 19.8272 23.664 19.4686 24.2054 18.9369C24.7467 18.4051 25.1175 17.7242 25.2706 16.9809C25.4236 16.2377 25.352 15.4657 25.0647 14.7633C24.7775 14.0609 24.2878 13.4599 23.6578 13.0369C23.0278 12.6138 22.2862 12.3878 21.5273 12.3877C21.0295 12.3821 20.5355 12.4749 20.0736 12.6607C19.6117 12.8466 19.1911 13.1219 18.8359 13.4708C18.4808 13.8197 18.198 14.2353 18.0039 14.6938C17.8099 15.1523 17.7083 15.6446 17.705 16.1425ZM54.5243 41.1592L52.0511 40.2055C50.8146 43.6324 49.7457 44.2532 48.9021 44.2532C48.0586 44.2532 47.608 43.6924 47.608 42.5685C47.6314 41.9754 47.7255 41.3871 47.8883 40.8163L49.6881 34.3531C50.0934 33.0255 50.3025 31.6459 50.3089 30.2579C50.3089 25.4242 47.3852 22.901 43.8432 22.901C40.5265 22.901 37.1522 25.9049 35.4676 29.0413L36.7041 23.3892H27.0919L25.7427 28.368H30.2484L27.4799 39.4571C25.3046 44.2907 21.3096 44.3708 20.8089 44.2582C19.9854 44.0729 19.4597 43.7575 19.4597 42.6912C19.4845 41.8205 19.6165 40.9562 19.8527 40.1179L24.0581 23.3917H13.3795L12.0278 28.368H16.4684L13.5998 40.0804C13.3832 41.0087 13.2699 41.9582 13.2618 42.9115C13.2618 46.2282 15.0616 48.431 18.884 48.431C22.0555 48.431 24.6238 46.5486 26.4761 43.5072L25.3472 48.043H31.6527L35.2498 33.6121C36.1484 29.9575 37.8906 28.0601 40.534 28.0601C42.6141 28.0601 43.9083 29.3542 43.9083 31.4894C43.9148 32.1745 43.8169 32.8565 43.6179 33.512L41.7631 40.1454C41.4987 41.0589 41.3664 42.0055 41.3701 42.9565C41.3701 46.1055 43.2249 48.4084 47.1048 48.4084C50.4266 48.4109 53.0624 46.2782 54.5243 41.1592Z" fill="white"/>
</svg>
