<svg width="326" height="145" viewBox="0 0 326 145" fill="none" xmlns="http://www.w3.org/2000/svg">
<path d="M95.1857 57.275C96.1654 58.0166 97.3431 58.4504 98.5696 58.5217C99.7961 58.5929 101.016 58.2982 102.075 57.6751C103.134 57.0519 103.984 56.1283 104.518 55.0213C105.051 53.9143 105.244 52.6738 105.072 51.457C104.9 50.2402 104.371 49.1019 103.551 48.1863C102.732 47.2708 101.659 46.6193 100.469 46.3143C99.2784 46.0094 98.0246 46.0648 96.8659 46.4735C95.7073 46.8822 94.6961 47.6258 93.9604 48.61C92.9788 49.9233 92.5567 51.5718 92.7863 53.1953C93.0159 54.8189 93.8785 56.2856 95.1857 57.275ZM96.0077 50.1537C96.4344 49.5755 97.0234 49.1372 97.6998 48.8947C98.3762 48.6522 99.1094 48.6165 99.8062 48.792C100.503 48.9676 101.132 49.3465 101.613 49.8806C102.094 50.4146 102.405 51.0797 102.507 51.7912C102.609 52.5026 102.497 53.2284 102.185 53.876C101.873 54.5236 101.376 55.0639 100.757 55.4282C100.137 55.7924 99.4237 55.9641 98.7064 55.9213C97.9892 55.8786 97.3008 55.6235 96.7289 55.1883C95.9717 54.6121 95.4716 53.761 95.3366 52.8189C95.2017 51.8768 95.4427 50.9195 96.0077 50.1537Z" fill="white"/>
<path d="M98.8926 58.7179C97.4533 58.7157 96.0568 58.2275 94.9295 57.3324C93.8021 56.4373 93.0099 55.1877 92.6811 53.7859C92.3523 52.3842 92.5062 50.9125 93.1179 49.6092C93.7296 48.306 94.7633 47.2474 96.0515 46.6051C97.3396 45.9628 98.8069 45.7743 100.215 46.0702C101.624 46.366 102.892 47.1289 103.813 48.2353C104.734 49.3417 105.254 50.7267 105.29 52.166C105.326 53.6054 104.876 55.0147 104.011 56.1657C103.415 56.9605 102.643 57.6051 101.754 58.0482C100.865 58.4913 99.8855 58.7206 98.8926 58.7179ZM98.8926 46.3449C98.6072 46.3465 98.3222 46.3672 98.0396 46.4069C96.8681 46.5725 95.7721 47.082 94.8902 47.871C94.0084 48.6599 93.3803 49.6928 93.0856 50.839C92.7908 51.9851 92.8426 53.193 93.2344 54.3096C93.6262 55.4263 94.3404 56.4016 95.2865 57.1121C96.232 57.8242 97.3675 58.2396 98.5492 58.3057C99.7309 58.3718 100.906 58.0856 101.925 57.4833C102.944 56.8811 103.761 55.9899 104.273 54.9226C104.785 53.8553 104.969 52.66 104.802 51.488C104.599 50.0636 103.89 48.76 102.805 47.8156C101.72 46.8712 100.331 46.3491 98.8926 46.3449ZM98.8926 56.1502C98.0317 56.1546 97.1945 55.8681 96.5166 55.3373C95.8387 54.8064 95.3597 54.0623 95.1573 53.2252C94.9548 52.3882 95.0407 51.5073 95.4011 50.7252C95.7614 49.9431 96.3751 49.3055 97.1428 48.9157C97.9104 48.5259 98.7872 48.4067 99.631 48.5773C100.475 48.748 101.236 49.1986 101.792 49.8561C102.348 50.5136 102.666 51.3396 102.694 52.2004C102.723 53.0611 102.46 53.9061 101.948 54.5987C101.597 55.0776 101.138 55.4674 100.609 55.7368C100.079 56.0062 99.4942 56.1478 98.9004 56.1502H98.8926ZM96 50.1537L96.1628 50.2779C95.8938 50.636 95.6985 51.0438 95.588 51.4779C95.4775 51.912 95.4541 52.3636 95.5192 52.8068C95.5784 53.2515 95.7263 53.6797 95.9541 54.0661C96.1819 54.4526 96.485 54.7893 96.8453 55.0564C97.2016 55.3286 97.6081 55.5279 98.0415 55.6429C98.4749 55.7579 98.9267 55.7863 99.3711 55.7265C99.8155 55.6667 100.244 55.5198 100.631 55.2944C101.019 55.0689 101.358 54.7693 101.63 54.4126C102.174 53.6893 102.408 52.7796 102.282 51.8836C102.155 50.9875 101.678 50.1783 100.955 49.634C100.231 49.0896 99.3206 48.8549 98.4235 48.9814C97.5264 49.108 96.7161 49.5854 96.1706 50.3089L96 50.1537Z" fill="white"/>
<path d="M121.406 58.9429C121.064 58.0042 120.692 57.0811 120.289 56.1657C119.222 53.7692 117.923 51.4828 116.411 49.3392C116.969 44.8623 116.352 40.3173 114.62 36.1516C114.179 35.0559 113.661 33.993 113.069 32.9711C111.908 32.6579 110.726 32.4297 109.533 32.2884C104.99 31.7688 100.391 32.4593 96.2016 34.2899C93.8374 33.4992 91.4047 32.9305 88.9351 32.591C87.9425 32.4514 86.9498 32.3505 85.9572 32.2884C80.8619 31.9671 75.7515 32.6011 70.8891 34.158C69.669 34.551 68.4695 35.001 67.2907 35.5078C60.7812 38.3092 55.1214 42.7717 50.8778 48.4487C46.6342 54.1258 43.9558 60.8182 43.1105 67.8561C43.0096 68.7095 42.9321 69.5705 42.8856 70.4316C42.5837 75.8833 43.3747 81.3403 45.2121 86.4817C45.5455 87.4203 45.9178 88.3434 46.3288 89.2588C47.0322 90.8429 47.8379 92.3795 48.7406 93.859C49.1904 94.6347 49.6635 95.3096 50.1598 96.0233C52.5951 99.493 55.5631 102.556 58.954 105.099C61.5204 107.029 64.3056 108.649 67.252 109.925C68.0662 110.274 68.8883 110.599 69.7181 110.894C72.2951 111.809 74.9585 112.458 77.667 112.834C78.6597 112.965 79.6523 113.066 80.645 113.128C86.007 113.487 91.387 112.778 96.473 111.042C97.3106 110.755 98.1404 110.444 98.9547 110.103C105.596 107.332 111.377 102.838 115.7 97.084C120.023 91.3302 122.732 84.526 123.546 77.3745C123.693 76.0945 123.779 74.8145 123.802 73.4958C123.892 68.5396 123.08 63.6084 121.406 58.9429ZM96.3412 37.0592C101 34.7984 106.274 34.1359 111.347 35.1742C113.156 38.6034 114.084 42.4289 114.046 46.3061C114.022 49.6147 113.287 52.8795 111.89 55.8787C111.452 56.8186 110.952 57.7282 110.393 58.6016C110.083 59.0903 109.75 59.5635 109.401 60.0367C107.224 62.9392 104.395 65.2885 101.142 66.8942C100.349 67.281 99.5359 67.6254 98.7065 67.926C96.8751 68.585 94.9677 69.0098 93.0298 69.1904C91.9991 69.2915 90.9627 69.3226 89.9278 69.2835C89.3306 69.2835 88.7412 69.2215 88.1519 69.1516L87.26 69.0275C86.8568 68.9732 86.4845 68.8956 86.0657 68.8103C85.9184 68.5466 85.7866 68.275 85.6547 68.0346C85.5229 67.7941 85.4143 67.5303 85.3057 67.2588C85.0343 66.6305 84.7862 65.9866 84.569 65.335C84.2444 64.3631 83.9854 63.3705 83.7935 62.3639C83.429 60.4788 83.2962 58.5562 83.398 56.6389C83.456 55.7517 83.5647 54.8685 83.7237 53.9937C84.3382 50.3482 85.8226 46.9048 88.051 43.9556C88.4543 43.4126 88.8808 42.8928 89.3229 42.4041C89.993 41.6432 90.7132 40.9279 91.4788 40.2631C92.9565 38.9923 94.5905 37.9156 96.3412 37.0592ZM94.2861 71.634C95.8315 71.4239 97.3549 71.0761 98.8383 70.5945C98.7042 73.2599 97.775 75.824 96.1706 77.9563C96.031 78.1347 95.8992 78.3054 95.7518 78.476L95.4726 78.8096V78.3364C95.5574 76.0433 95.1529 73.7585 94.2861 71.634ZM45.4292 71.2306C45.468 70.3308 45.53 69.4387 45.6308 68.5388C46.3066 62.2918 48.5262 56.3112 52.0896 51.1365C55.653 45.9619 60.448 41.7558 66.0422 38.8978C67.0891 38.3625 68.1593 37.8815 69.245 37.4471C74.9299 35.2006 81.0701 34.3494 87.1514 34.9647C88.1208 35.0656 89.0902 35.1975 90.0518 35.3681C91.0135 35.5388 91.9906 35.756 92.9445 36.0042C92.1877 36.4811 91.4577 36.999 90.7576 37.5557C85.4117 41.715 81.9114 47.8069 81.0094 54.5212C77.6723 55.4772 74.7392 57.4986 72.6572 60.2772L72.5487 60.4168C72.0107 61.151 71.5359 61.9296 71.1295 62.744C70.8265 63.3718 70.5674 64.0198 70.354 64.6834C69.8907 66.0281 69.6115 67.4294 69.5242 68.8491C71.4534 66.6843 74.0287 65.1991 76.8682 64.6136C78.4412 64.2926 80.0586 64.2532 81.6454 64.4972C81.9483 65.6416 82.3292 66.7638 82.7854 67.8561C83.0645 68.5466 83.3825 69.2215 83.7237 69.8731C83.7237 69.9274 83.778 69.9817 83.809 70.0282C83.84 70.0748 83.6539 70.1989 83.5841 70.292L83.2507 70.6954L83.1421 70.835C83.049 70.9436 82.9637 71.06 82.8784 71.1763C82.7922 71.2722 82.7119 71.3732 82.638 71.4789L82.3123 71.8978C80.3576 74.5077 78.0742 76.8543 75.5189 78.8794C74.8364 79.4147 74.1462 79.9267 73.4405 80.4309C71.5699 81.7056 69.5897 82.8115 67.5234 83.7356C66.7479 84.0846 65.9724 84.4027 65.1426 84.7052C62.1426 85.8093 59.0163 86.5338 55.8365 86.8618C54.9447 86.9471 54.0528 87.0092 53.161 87.0325C51.5021 87.0881 49.8412 87.0311 48.19 86.8618C46.1821 81.9031 45.2389 76.5775 45.4215 71.2306H45.4292ZM81.1025 61.8519C78.8728 61.6325 76.6218 61.8836 74.4952 62.5889C74.3581 62.6273 74.2234 62.6739 74.0919 62.7285C74.158 62.6158 74.2305 62.507 74.3091 62.4027C74.4331 62.201 74.5727 62.0148 74.7123 61.8209C76.2651 59.7579 78.3784 58.1852 80.8001 57.2906C80.7661 58.8167 80.8647 60.3429 81.0947 61.8519H81.1025ZM121.095 76.0557C120.995 77.2271 120.839 78.3829 120.63 79.5621C119.502 85.6857 116.884 91.4371 113.006 96.3079C109.128 101.179 104.11 105.019 98.3963 107.489C97.6208 107.83 96.8453 108.148 96 108.435C90.7095 110.304 85.072 110.982 79.4894 110.421C78.1762 107.155 77.3253 103.722 76.9613 100.22C76.8605 99.3047 76.7984 98.3893 76.7674 97.4739C76.7236 96.1495 76.7494 94.8238 76.845 93.5021C76.907 92.6488 76.9923 91.7955 77.1164 90.9422C77.4294 88.7012 77.9486 86.4939 78.6674 84.3484C78.9388 83.5261 79.2335 82.7193 79.5592 81.9203C80.7917 78.9018 82.4077 76.0547 84.3674 73.4492C84.6543 73.0691 84.9335 72.6735 85.1972 72.3011C85.4608 71.9288 85.6315 71.6728 85.8408 71.3547H86.0347C86.6551 71.4711 87.2755 71.5642 87.9037 71.634C89.1288 71.7749 90.3625 71.8267 91.5951 71.7892C92.3355 73.3025 92.7828 74.9423 92.9135 76.622C92.9988 77.6359 92.9676 78.6562 92.8204 79.6629C92.7417 80.2025 92.6278 80.7363 92.4792 81.2609C92.1403 82.53 91.6178 83.7426 90.9282 84.8604C92.2658 84.3793 93.5333 83.7219 94.6971 82.9055C95.2935 82.4898 95.8585 82.0309 96.3877 81.5325C97.0532 80.9098 97.6654 80.2326 98.2179 79.5078L98.2722 79.4302C100.422 76.585 101.551 73.0977 101.475 69.5317C105.414 67.7616 108.844 65.0269 111.448 61.5804C112.215 60.5633 112.905 59.4897 113.511 58.3688C113.972 57.5326 114.384 56.67 114.744 55.7856C115.12 54.8563 115.441 53.9057 115.706 52.9387C116.287 53.8928 116.83 54.8702 117.319 55.8632C117.753 56.7398 118.148 57.6396 118.513 58.5395C120.73 64.0962 121.614 70.0954 121.095 76.0557Z" fill="white"/>
<path d="M83.3049 113.423C82.4286 113.423 81.5445 113.423 80.6682 113.338C79.6756 113.268 78.6674 113.167 77.6748 113.035C74.9504 112.656 72.2715 112.001 69.6793 111.08C68.8573 110.793 68.0275 110.468 67.1977 110.111C60.2926 107.129 54.3453 102.297 50.0125 96.1474C49.5161 95.4337 49.0353 94.7045 48.5933 93.9753C47.6842 92.4781 46.8733 90.9234 46.1659 89.3209C45.7549 88.4055 45.3904 87.4669 45.0415 86.5282C43.1884 81.3638 42.3971 75.8783 42.7149 70.4006C42.7615 69.5317 42.839 68.6629 42.9398 67.8096C43.7919 60.7438 46.4818 54.0252 50.7411 48.3245C55.0005 42.6237 60.6801 38.1402 67.2132 35.3216C68.392 34.8174 69.6017 34.3597 70.827 33.964C75.7132 32.3937 80.8511 31.7568 85.9727 32.0868C86.9498 32.1488 87.958 32.2497 88.9661 32.3893H89.0127C91.4528 32.7258 93.8567 33.2867 96.1938 34.0649C100.398 32.2488 105.006 31.5668 109.556 32.0868C110.745 32.2196 111.924 32.4347 113.084 32.7306H113.162L113.208 32.8004C116.136 37.7699 117.339 43.5684 116.628 49.2927C118.137 51.4246 119.436 53.6978 120.506 56.0804C120.901 56.9803 121.281 57.9189 121.623 58.8731C123.316 63.561 124.133 68.5201 124.035 73.5035C124.035 74.799 123.926 76.0945 123.786 77.3822C122.958 84.5708 120.228 91.4081 115.876 97.1887C111.525 102.969 105.71 107.484 99.0322 110.266C98.2567 110.607 97.3804 110.925 96.5428 111.212C92.2823 112.674 87.8093 113.422 83.3049 113.423ZM83.3437 32.4126C79.1322 32.4119 74.9462 33.0662 70.9356 34.3519C69.7258 34.7475 68.5238 35.1975 67.3605 35.6939C60.8877 38.4845 55.2605 42.9259 51.0417 48.574C46.8229 54.2222 44.1602 60.8791 43.3198 67.8794C43.219 68.7172 43.1492 69.5783 43.1027 70.4394C42.7928 75.866 43.5842 81.2993 45.4292 86.4119C45.7549 87.335 46.1272 88.2659 46.5382 89.1735C47.2388 90.75 48.0418 92.2789 48.9423 93.7504C49.3765 94.4718 49.8496 95.201 50.3459 95.8992C54.6316 101.993 60.5209 106.78 67.3605 109.731C68.1748 110.087 69.0046 110.413 69.8189 110.7C72.3835 111.61 75.0338 112.257 77.729 112.632C78.7139 112.764 79.7143 112.865 80.6915 112.927C86.0187 113.272 91.3615 112.557 96.411 110.824C97.2408 110.545 98.0706 110.227 98.8771 109.894C105.486 107.134 111.238 102.659 115.54 96.931C119.841 91.2032 122.535 84.4304 123.344 77.3124C123.492 76.048 123.577 74.7602 123.6 73.488C123.696 68.5523 122.886 63.641 121.212 58.9972C120.87 58.0508 120.498 57.1199 120.103 56.2356C119.032 53.8506 117.734 51.5748 116.225 49.4401L116.179 49.378V49.3004C116.751 44.853 116.149 40.3331 114.434 36.1904C113.99 35.1212 113.471 34.0844 112.883 33.0875C111.773 32.8115 110.646 32.6119 109.509 32.4901C105.017 31.9835 100.47 32.6684 96.3257 34.476H96.1783C93.8268 33.6891 91.4071 33.1229 88.9506 32.7849H88.8963C87.8804 32.6918 86.9033 32.5522 85.9417 32.4901C84.98 32.4281 84.2123 32.4126 83.3437 32.4126ZM83.2429 110.848C81.9788 110.848 80.7225 110.786 79.4662 110.662H79.3421L79.2956 110.545C77.9758 107.256 77.1172 103.799 76.7442 100.274C76.6511 99.3745 76.5891 98.4436 76.558 97.5127C76.5141 96.1832 76.54 94.8522 76.6356 93.5254C76.6976 92.6411 76.7907 91.7722 76.907 90.9422C77.2267 88.6897 77.7457 86.4702 78.458 84.3096C78.7372 83.4796 79.0397 82.6573 79.3576 81.8738C80.5949 78.8336 82.2188 75.9656 84.189 73.3406C84.476 72.9605 84.7474 72.5649 85.0188 72.1925C85.2902 71.8202 85.4531 71.5719 85.6547 71.2539L85.7323 71.1375H86.0502C86.6939 71.2616 87.2988 71.347 87.9037 71.4168C89.1212 71.5552 90.3472 71.6045 91.5718 71.5642H91.7037L91.758 71.6805C92.4994 73.1921 92.9543 74.8282 93.0996 76.5056V76.591C93.2285 78.1743 93.0789 79.768 92.6575 81.2997C92.354 82.4002 91.9137 83.4583 91.3469 84.4492C92.4703 83.998 93.5374 83.4175 94.5265 82.7193C95.8523 81.7905 97.0246 80.6597 98.0008 79.3681L98.0551 79.2983C100.183 76.4884 101.299 73.0407 101.219 69.5162V69.3844L101.343 69.3301C105.265 67.5813 108.684 64.8736 111.285 61.4563C112.619 59.6917 113.714 57.759 114.542 55.708C114.927 54.7803 115.253 53.8295 115.519 52.8611L115.644 52.4112L115.892 52.8068C116.473 53.7609 117.016 54.7539 117.505 55.7546C117.939 56.6234 118.342 57.5233 118.707 58.4387C120.935 64.0251 121.828 70.0553 121.312 76.048C121.215 77.2292 121.057 78.4047 120.839 79.5698C119.715 85.7413 117.084 91.5392 113.179 96.4479C109.275 101.357 104.218 105.224 98.4583 107.706C97.6828 108.047 96.8608 108.365 96.0465 108.652C91.933 110.102 87.604 110.844 83.2429 110.848ZM79.629 110.266C85.1379 110.79 90.6947 110.11 95.9147 108.272C96.6902 107.985 97.5277 107.667 98.3032 107.334C104.313 104.74 109.543 100.625 113.48 95.3949C117.021 90.7266 119.412 85.289 120.459 79.5233C120.669 78.3829 120.824 77.1961 120.925 76.0402C121.423 70.1081 120.528 64.1417 118.311 58.6171C117.947 57.7095 117.536 56.8174 117.125 55.9563C116.714 55.0952 116.295 54.2652 115.768 53.4429C115.519 54.2729 115.24 55.0797 114.922 55.8632C114.563 56.7556 114.151 57.626 113.689 58.4697C113.088 59.5973 112.404 60.6785 111.642 61.7045C109.026 65.174 105.584 67.9341 101.63 69.7334C101.677 73.3001 100.534 76.7805 98.3808 79.6241L98.3265 79.7017C97.7682 80.436 97.1481 81.1211 96.473 81.7497C95.934 82.2439 95.3614 82.7001 94.7592 83.115C93.5801 83.9464 92.294 84.6144 90.9359 85.1009L90.3853 85.2948L90.6955 84.7983C91.3858 83.7003 91.9086 82.5054 92.2465 81.2532C92.6516 79.7927 92.7986 78.2727 92.6808 76.7616V76.6841C92.5514 75.0704 92.131 73.4935 91.44 72.0296C90.2409 72.0676 89.0407 72.0157 87.8494 71.8745C87.229 71.8047 86.6086 71.7193 85.9649 71.5952H85.9106C85.7245 71.8822 85.5306 72.1615 85.3368 72.433C85.1429 72.7045 84.7862 73.2088 84.4992 73.5889C82.5519 76.1845 80.9488 79.0214 79.7299 82.0289C79.4119 82.8047 79.1095 83.5804 78.838 84.4415C78.1211 86.5769 77.602 88.7737 77.287 91.0042C77.1707 91.78 77.0776 92.6721 77.0156 93.5487C76.9225 94.8674 76.8993 96.1939 76.938 97.4972C76.938 98.4203 77.0388 99.3357 77.1319 100.228C77.5007 103.672 78.341 107.05 79.629 110.266ZM51.928 87.2729C50.6561 87.2729 49.3921 87.2109 48.1357 87.0868H48.0117V86.9704C45.9949 81.973 45.044 76.6092 45.2198 71.2229C45.2198 70.323 45.3206 69.4154 45.4137 68.5155C46.104 62.2409 48.3419 56.2361 51.9263 51.0407C55.5107 45.8453 60.3293 41.622 65.9491 38.7504C66.9993 38.2104 68.0761 37.7237 69.1752 37.292C74.8868 35.0222 81.0591 34.155 87.1747 34.7631C88.1519 34.8639 89.1367 34.9958 90.0906 35.1664C91.0445 35.3371 92.0449 35.5621 93.0298 35.7948L93.4873 35.9112L93.0298 36.1749C92.2798 36.6544 91.555 37.1722 90.8584 37.7264C90.118 38.3039 89.4087 38.9202 88.7335 39.5726C87.7797 40.5023 86.8983 41.5033 86.0968 42.567C83.4543 46.0862 81.7636 50.2275 81.1878 54.591V54.7229H81.056C77.7583 55.6566 74.8607 57.6526 72.8123 60.4013C72.7745 60.4418 72.7407 60.486 72.7115 60.5332C72.1753 61.267 71.7031 62.0456 71.3001 62.8604C71.0024 63.4825 70.7434 64.1224 70.5246 64.7765C70.131 65.9192 69.8708 67.1036 69.7491 68.3061C70.5427 67.4883 71.4364 66.7741 72.4091 66.1805C72.8721 65.8902 73.354 65.631 73.8515 65.4048C74.7951 64.9688 75.7868 64.6459 76.8062 64.4429C78.4145 64.1085 80.0704 64.0717 81.6919 64.3343H81.8237V64.4584C82.1179 65.5959 82.4937 66.7107 82.9482 67.7941C83.2274 68.469 83.5376 69.1361 83.8866 69.7955L83.9564 69.9351L84.0417 70.0592L83.9409 70.1756L83.716 70.4394L83.3902 70.835C83.3282 70.9126 83.2894 70.9513 83.2584 70.9979C83.2274 71.0444 83.0723 71.2229 82.987 71.3392L82.7543 71.634L82.4286 72.0607C80.4589 74.6704 78.1628 77.0168 75.5964 79.0423C74.9295 79.5621 74.2315 80.0818 73.5025 80.5938C71.6283 81.8825 69.6399 82.9965 67.5622 83.9217C66.7867 84.2631 66.0112 84.5889 65.1658 84.8914C62.1494 86.0091 59.0048 86.744 55.8055 87.079C54.9059 87.1643 53.9986 87.2264 53.1067 87.2497C52.7035 87.2652 52.308 87.2729 51.928 87.2729ZM48.2986 86.6911C49.9014 86.8475 51.5127 86.8994 53.1222 86.8463C53.9986 86.8463 54.8904 86.7609 55.79 86.6679C58.9701 86.3513 62.0972 85.6319 65.0961 84.5268C65.8871 84.2243 66.6626 83.8907 67.4381 83.5649C69.4911 82.6449 71.4583 81.5442 73.3164 80.2757C74.0299 79.787 74.7278 79.275 75.3793 78.7243C77.9239 76.7179 80.1971 74.3893 82.1417 71.7969L82.4674 71.3702C82.5449 71.2616 82.6225 71.1608 82.7078 71.06L82.9792 70.7264L83.0878 70.5868L83.4445 70.1523L83.5764 69.9894C83.2274 69.3223 82.9094 68.6396 82.6225 67.957C82.1812 66.8967 81.8107 65.8083 81.5135 64.6989C78.972 64.3212 76.3755 64.6877 74.0376 65.7539C73.5541 65.9831 73.0853 66.2421 72.634 66.5296C71.5288 67.2087 70.5283 68.0449 69.6638 69.012L69.276 69.4542L69.3148 68.8646C69.4018 67.4265 69.6835 66.0069 70.1524 64.6446C70.3851 63.9738 70.6597 63.3184 70.9744 62.682C71.39 61.8676 71.8725 61.0892 72.4168 60.3547L72.5254 60.2151C74.6021 57.4349 77.5249 55.4041 80.8543 54.4281C81.4563 50.0443 83.1674 45.8869 85.8253 42.3498C86.6362 41.2654 87.5336 40.2484 88.5086 39.3089C89.174 38.6098 89.8838 37.9542 90.6335 37.3463C91.2151 36.8886 91.82 36.4619 92.4404 36.0585C91.6649 35.8646 90.8273 35.6939 90.0131 35.5466C89.0747 35.3759 88.1053 35.244 87.1282 35.1432C81.0679 34.5389 74.9511 35.3982 69.2915 37.6488C68.2213 38.0677 67.1511 38.5564 66.1042 39.0917C60.5386 41.9325 55.7676 46.1148 52.2217 51.2611C48.6759 56.4075 46.4668 62.356 45.7937 68.5698C45.6929 69.4542 45.6308 70.354 45.5921 71.2461C45.4152 76.5243 46.3287 81.7821 48.2753 86.6911H48.2986ZM95.2477 79.3836L95.2943 78.7941V78.3364C95.3707 76.0684 94.9636 73.81 94.1 71.7116L93.9992 71.4789L94.2628 71.4401C95.795 71.2309 97.3054 70.8856 98.7763 70.4083L99.0555 70.3152V70.61C98.9184 73.3168 97.9759 75.9209 96.3489 78.0882L95.9302 78.6157L95.6355 78.9492L95.2477 79.3836ZM94.5808 71.7969C95.3807 73.8415 95.7656 76.025 95.713 78.22L96.0155 77.8322C97.537 75.8039 98.4417 73.3799 98.6212 70.8505C97.302 71.274 95.9508 71.5905 94.5808 71.7969ZM90.8273 69.4697C90.5249 69.4697 90.2302 69.4697 89.9278 69.4697C89.3306 69.4697 88.7257 69.4076 88.1363 69.3378C87.8339 69.3378 87.5314 69.2602 87.2368 69.2137C86.8257 69.1516 86.4147 69.0973 86.0502 69.012H85.9649L85.9184 68.9344C85.771 68.6629 85.6392 68.3914 85.5074 68.1587C85.3755 67.926 85.2592 67.6467 85.1506 67.3829C84.8792 66.7701 84.6311 66.1185 84.3751 65.4513C84.0542 64.4678 83.7952 63.4652 83.5996 62.4492C83.2324 60.5488 83.0995 58.6105 83.2041 56.6777C83.2512 55.7884 83.3496 54.9026 83.4988 54.0247C84.1275 50.3482 85.6243 46.8749 87.8649 43.8935C88.2682 43.3583 88.7025 42.8308 89.1523 42.342C89.8306 41.5783 90.5613 40.8629 91.3392 40.201C94.0625 37.8621 97.2856 36.1788 100.761 35.2805C104.236 34.3822 107.871 34.2928 111.386 35.0191H111.479L111.526 35.1044C113.348 38.5631 114.283 42.42 114.248 46.3293C114.221 50.7323 112.943 55.0368 110.564 58.7412C110.262 59.2222 109.92 59.7109 109.564 60.1918C107.382 63.1095 104.541 65.4699 101.273 67.0804C100.475 67.4739 99.6538 67.821 98.8151 68.1199C96.9486 68.7898 95.0046 69.2199 93.0298 69.3999C92.3086 69.4697 91.5641 69.5007 90.8196 69.5007L90.8273 69.4697ZM86.1743 68.6009C86.531 68.6784 86.8955 68.7405 87.2678 68.7948C87.64 68.8491 87.8572 68.8801 88.1519 68.9189C88.7335 68.981 89.3229 69.0275 89.9123 69.0508C90.9472 69.0911 91.9836 69.06 93.0143 68.9577C94.9365 68.7782 96.8283 68.3559 98.6444 67.701C99.454 67.4131 100.246 67.079 101.017 66.7003H101.064C104.287 65.1156 107.088 62.7894 109.238 59.9126C109.587 59.4471 109.92 58.9662 110.223 58.4852C110.778 57.6233 111.273 56.7239 111.704 55.7934C112.568 53.9421 113.179 51.9824 113.519 49.9676C113.728 48.7555 113.837 47.5283 113.844 46.2983C113.877 42.4911 112.971 38.7345 111.208 35.3604C106.207 34.3507 101.014 35.0131 96.4265 37.2454C94.699 38.0941 93.0838 39.1547 91.6184 40.4027C90.8519 41.0609 90.1292 41.7683 89.4547 42.5205C89.0127 43.0169 88.5861 43.5367 88.1906 44.0719C85.9762 46.9931 84.5045 50.4086 83.9021 54.0247C83.7516 54.8866 83.6558 55.7572 83.6151 56.6312C83.5077 58.5302 83.6379 60.4352 84.0029 62.3018C84.1937 63.301 84.4528 64.2859 84.7784 65.2497C84.9955 65.909 85.2437 66.5529 85.5074 67.1502C85.6159 67.4062 85.7323 67.6622 85.8564 67.926C85.9804 68.1897 86.0502 68.3759 86.1976 68.6319L86.1743 68.6009ZM73.5956 63.1164L73.9136 62.6199C73.9834 62.5035 74.0532 62.3949 74.1307 62.2863C74.2083 62.1777 74.4021 61.8907 74.5417 61.6968C76.1215 59.5973 78.2768 58.0019 80.7458 57.1044L81.025 57.0035V57.2983C80.994 58.8118 81.0952 60.325 81.3274 61.8209L81.3662 62.0769H81.1025C78.9015 61.8631 76.68 62.1115 74.5805 62.8061L74.185 62.938L73.5956 63.1164ZM80.5752 57.5931C78.3026 58.4841 76.3234 59.9911 74.8597 61.945L74.5727 62.3406C76.5987 61.7014 78.7289 61.4591 80.8466 61.6269C80.6676 60.2902 80.5924 58.9415 80.6217 57.5931H80.5752Z" fill="white"/>
<path d="M155.396 70.3851L161.228 79.8491H156.73L152.294 72.6812L148.82 75.4739L147.951 79.8491H144.074L148.665 56.8251H152.542L149.812 70.5712L158.901 63.2793H164.175L155.396 70.3851Z" fill="white"/>
<path d="M182.245 63.2793L178.957 79.8491H175.266L175.607 78.1425C174.159 79.425 172.36 80.0663 170.209 80.0663C168.844 80.0663 167.604 79.7767 166.487 79.1975C165.391 78.6183 164.522 77.7804 163.881 76.6841C163.24 75.567 162.92 74.2638 162.92 72.7743C162.92 70.9333 163.323 69.2783 164.129 67.8096C164.957 66.3202 166.073 65.1617 167.48 64.3343C168.907 63.5068 170.499 63.0931 172.257 63.0931C174.904 63.0931 176.786 63.9723 177.902 65.7306L178.368 63.2793H182.245ZM171.202 76.7461C172.298 76.7461 173.27 76.4875 174.118 75.9704C174.986 75.4325 175.669 74.6982 176.165 73.7673C176.662 72.8157 176.91 71.74 176.91 70.5402C176.91 69.237 176.527 68.2233 175.762 67.4993C174.997 66.7546 173.921 66.3822 172.536 66.3822C171.44 66.3822 170.458 66.6512 169.589 67.189C168.741 67.7062 168.069 68.4405 167.573 69.3921C167.076 70.323 166.828 71.3883 166.828 72.5882C166.828 73.8914 167.211 74.9154 167.976 75.6601C168.741 76.3841 169.816 76.7461 171.202 76.7461Z" fill="white"/>
<path d="M196.345 63.0931C198.207 63.0931 199.675 63.5792 200.75 64.5515C201.846 65.5238 202.394 66.8994 202.394 68.6784C202.394 69.1749 202.322 69.8369 202.177 70.6643L200.347 79.8491H196.469L198.269 70.7574C198.351 70.3437 198.393 69.9196 198.393 69.4852C198.393 67.4786 197.286 66.4753 195.074 66.4753C193.647 66.4753 192.468 66.8787 191.537 67.6855C190.607 68.4716 189.976 69.661 189.645 71.2539L187.908 79.8491H184.03L187.318 63.2793H191.01L190.638 65.11C192.127 63.7654 194.029 63.0931 196.345 63.0931Z" fill="white"/>
<path d="M213.607 80.0663C211.994 80.0663 210.577 79.7663 209.357 79.1664C208.157 78.5458 207.227 77.6874 206.565 76.591C205.903 75.4946 205.572 74.2224 205.572 72.7743C205.572 70.9333 205.986 69.2783 206.813 67.8096C207.661 66.3409 208.83 65.1928 210.319 64.3653C211.828 63.5172 213.524 63.0931 215.406 63.0931C217.019 63.0931 218.436 63.393 219.656 63.993C220.876 64.5929 221.817 65.441 222.478 66.5374C223.14 67.6338 223.471 68.906 223.471 70.354C223.471 72.1951 223.047 73.85 222.199 75.3188C221.351 76.7875 220.173 77.9459 218.663 78.7941C217.174 79.6422 215.489 80.0663 213.607 80.0663ZM213.855 76.7461C214.951 76.7461 215.923 76.4875 216.771 75.9704C217.639 75.4325 218.322 74.6982 218.818 73.7673C219.314 72.8157 219.563 71.74 219.563 70.5402C219.563 69.237 219.18 68.2233 218.415 67.4993C217.65 66.7546 216.574 66.3822 215.189 66.3822C214.093 66.3822 213.11 66.6512 212.242 67.189C211.394 67.7062 210.722 68.4405 210.225 69.3921C209.729 70.323 209.481 71.3883 209.481 72.5882C209.481 73.8914 209.864 74.9154 210.629 75.6601C211.394 76.3841 212.469 76.7461 213.855 76.7461Z" fill="white"/>
<path d="M228.699 63.2793H232.577L229.288 79.8491H225.411L228.699 63.2793ZM231.522 60.5487C230.839 60.5487 230.281 60.3418 229.847 59.9281C229.412 59.4937 229.195 58.9765 229.195 58.3766C229.195 57.6733 229.433 57.0837 229.909 56.6079C230.405 56.1321 231.046 55.8942 231.832 55.8942C232.514 55.8942 233.073 56.1011 233.507 56.5148C233.941 56.9079 234.159 57.394 234.159 57.9732C234.159 58.7386 233.91 59.3592 233.414 59.835C232.938 60.3108 232.308 60.5487 231.522 60.5487Z" fill="white"/>
<path d="M238.969 56.8251H242.846L238.255 79.8491H234.378L238.969 56.8251Z" fill="white"/>
<path d="M262.825 63.2793L259.537 79.8491H255.846L256.187 78.1425C254.739 79.425 252.94 80.0663 250.789 80.0663C249.424 80.0663 248.184 79.7767 247.067 79.1975C245.971 78.6183 245.102 77.7804 244.461 76.6841C243.82 75.567 243.5 74.2638 243.5 72.7743C243.5 70.9333 243.903 69.2783 244.709 67.8096C245.537 66.3202 246.653 65.1617 248.06 64.3343C249.486 63.5068 251.079 63.0931 252.837 63.0931C255.484 63.0931 257.366 63.9723 258.482 65.7306L258.948 63.2793H262.825ZM251.782 76.7461C252.878 76.7461 253.85 76.4875 254.698 75.9704C255.566 75.4325 256.249 74.6982 256.745 73.7673C257.242 72.8157 257.49 71.74 257.49 70.5402C257.49 69.237 257.107 68.2233 256.342 67.4993C255.577 66.7546 254.501 66.3822 253.116 66.3822C252.02 66.3822 251.037 66.6512 250.169 67.189C249.321 67.7062 248.649 68.4405 248.153 69.3921C247.656 70.323 247.408 71.3883 247.408 72.5882C247.408 73.8914 247.791 74.9154 248.556 75.6601C249.321 76.3841 250.396 76.7461 251.782 76.7461Z" fill="white"/>
<path d="M276.646 63.0931C278.011 63.0931 279.241 63.3827 280.338 63.9619C281.454 64.5411 282.333 65.3789 282.974 66.4753C283.615 67.5717 283.936 68.8646 283.936 70.354C283.936 72.1951 283.522 73.8604 282.695 75.3498C281.889 76.8185 280.772 77.977 279.345 78.8251C277.939 79.6526 276.367 80.0663 274.63 80.0663C273.265 80.0663 272.086 79.8284 271.094 79.3526C270.101 78.8561 269.346 78.1425 268.829 77.2116L268.302 79.8491H264.61L269.201 56.8251H273.079L271.497 64.8308C272.903 63.6723 274.619 63.0931 276.646 63.0931ZM274.32 76.7461C275.416 76.7461 276.388 76.4875 277.236 75.9704C278.104 75.4325 278.787 74.6982 279.283 73.7673C279.779 72.8157 280.027 71.74 280.027 70.5402C280.027 69.237 279.645 68.2233 278.88 67.4993C278.114 66.7546 277.039 66.3822 275.653 66.3822C274.557 66.3822 273.575 66.6512 272.707 67.189C271.859 67.7062 271.187 68.4405 270.69 69.3921C270.194 70.323 269.946 71.3883 269.946 72.5882C269.946 73.8914 270.328 74.9154 271.094 75.6601C271.859 76.3841 272.934 76.7461 274.32 76.7461Z" fill="white"/>
</svg>
