<svg width="204" height="91" viewBox="0 0 204 91" fill="none" xmlns="http://www.w3.org/2000/svg">
<path fill-rule="evenodd" clip-rule="evenodd" d="M165.302 2.55052C164.402 3.95366 163.665 5.14596 163.665 5.2C163.665 5.25404 164.418 5.2971 165.337 5.29556C167.236 5.29247 166.854 5.50142 169.488 3.02332L170.903 1.69172L170.329 1.45017C170.013 1.31722 169.121 0.936538 168.347 0.604066L166.939 -0.000488281L165.302 2.55052ZM29.681 17.3071V27.7719H31.9112H34.1414V21.1671C34.1414 17.5344 34.1992 14.5626 34.2701 14.5631C34.3409 14.5636 35.666 16.4962 37.215 18.8578C38.7639 21.2192 40.0894 23.091 40.1602 23.0171C40.2666 22.9061 41.4129 21.184 45.7541 14.6142C45.9141 14.3721 45.9606 15.7674 45.9685 21.0384L45.9786 27.7719H48.296H50.6132L50.5691 17.35L50.5248 6.92807L48.0927 6.88055L45.6607 6.83303L43.3961 10.4832C42.1504 12.4907 40.9288 14.4614 40.6814 14.8621C40.434 15.263 40.193 15.5907 40.1458 15.5905C40.0986 15.5902 38.8367 13.6218 37.3416 11.2162L34.6229 6.84229H32.1521H29.681V17.3071ZM64.2023 14.0853C64.2642 20.9868 64.2855 21.3933 64.6417 22.4661C65.4939 25.0329 67.2385 26.8169 69.6776 27.6158C71.3656 28.1687 75.026 28.2166 76.5153 27.7053C79.6202 26.6393 81.217 24.934 82.0088 21.8387C82.3189 20.6256 82.3481 19.925 82.3481 13.672V6.83234L80.075 6.8802L77.8019 6.92807L77.7161 13.876L77.6304 20.8239L77.0975 21.7675C76.3583 23.0765 75.3794 23.6712 73.7759 23.786C71.5675 23.944 70.0888 23.1537 69.2915 21.3891C68.8864 20.4925 68.8801 20.3939 68.7953 13.7045L68.7095 6.92807L66.4234 6.88003L64.1371 6.83217L64.2023 14.0853ZM100.5 11.174C99.4918 13.5564 97.5041 18.2371 96.0831 21.5755C94.6619 24.9138 93.4991 27.6758 93.4991 27.7134C93.4991 27.751 94.5545 27.7601 95.8444 27.7338L98.1896 27.6861L99.1273 25.413L100.065 23.1399L104.459 23.1404L108.853 23.141L109.797 25.454L110.74 27.7671L113.195 27.7695C114.545 27.7709 115.609 27.7062 115.56 27.6259C115.479 27.4959 112.993 21.6864 108.263 10.5736L106.674 6.84229H104.504H102.334L100.5 11.174ZM127.767 6.94162C127.696 7.01281 127.638 11.7287 127.638 17.4215V27.7719H129.951H132.263L132.309 24.4695L132.356 21.1671H134.137H135.918L138.141 24.4695L140.363 27.7719H143.007C144.462 27.7719 145.652 27.7319 145.652 27.6832C145.652 27.6343 144.571 26.02 143.25 24.0955C141.929 22.1712 140.848 20.532 140.848 20.4529C140.849 20.374 141.277 20.0852 141.801 19.8116C142.976 19.1978 144.163 17.8724 144.66 16.6209C144.962 15.8593 145.036 15.3135 145.043 13.7902C145.05 12.073 145.008 11.8105 144.571 10.8738C143.733 9.07867 142.242 7.86715 140.076 7.22091C139.418 7.02465 137.899 6.94728 133.557 6.88878C130.443 6.84675 127.838 6.8706 127.767 6.94162ZM158.289 6.95672C158.226 7.01951 158.175 11.7287 158.175 17.4215V27.7719H166.152H174.13V25.7132V23.6546H168.468H162.807V21.5102V19.3657H167.696H172.586V17.3071V15.2484H167.696H162.807V13.104V10.9596H168.382H173.958V8.90094V6.84229H166.181C161.903 6.84229 158.352 6.89376 158.289 6.95672ZM139.18 11.6196C140.985 12.7419 140.868 15.5861 138.977 16.5704C138.273 16.9365 138.014 16.964 135.246 16.964H132.27V14.034V11.1039L135.401 11.1605C138.336 11.2133 138.573 11.2421 139.18 11.6196ZM105.838 15.7122C106.505 17.3354 107.052 18.7442 107.052 18.843C107.052 18.9605 106.125 19.0226 104.374 19.0226C102.298 19.0226 101.717 18.9744 101.788 18.8082C101.838 18.6903 102.439 17.2222 103.125 15.5459C103.81 13.8695 104.427 12.5571 104.497 12.6295C104.567 12.7017 105.17 14.0889 105.838 15.7122ZM0.559675 40.9227L0.00212458 41.0033V42.7508V44.4984L5.53474 44.5046C15.0764 44.5152 19.567 45.297 28.7374 48.5438C34.0934 50.4402 36.3381 51.1072 39.6311 51.7812C44.3097 52.7387 46.402 52.9051 53.6986 52.8999C59.5954 52.8958 60.6069 52.8536 63.134 52.5071C68.2652 51.803 71.3268 50.9995 78.4881 48.4766C87.7097 45.228 91.7897 44.5202 101.305 44.519C109.792 44.518 114.732 45.2666 121.377 47.5608C122.603 47.9844 125.074 48.8377 126.866 49.4572C134.522 52.1026 140.007 52.9802 148.926 52.9867C155.599 52.9917 159.972 52.5294 165.22 51.264C167.154 50.7977 169.03 50.1885 176.617 47.5627C180.81 46.1115 184.668 45.268 189.569 44.7305C191.744 44.4919 201.449 44.4233 202.908 44.6362L203.808 44.7676V42.8923V41.0172L201.278 40.8896C197.414 40.6949 190.271 40.9105 187.253 41.3132C182.194 41.9881 179.022 42.8014 172.495 45.0973C167.232 46.9489 165.487 47.4804 162.721 48.0758C155.888 49.5466 147.099 49.8104 139.304 48.779C135.182 48.2337 131.906 47.3649 125.759 45.1874C118.544 42.6316 115.362 41.8426 109.368 41.1229C106.435 40.7707 95.6147 40.8194 92.6153 41.1984C87.2021 41.8822 83.1436 42.8817 77.4588 44.9309C67.6763 48.4574 62.6 49.3889 53.1741 49.387C45.5216 49.3855 39.7425 48.4491 32.9422 46.1091C25.2899 43.476 23.8716 43.0169 21.9118 42.5389C16.8798 41.3115 13.8186 40.979 6.86429 40.9042C3.7034 40.8701 0.866243 40.8785 0.559675 40.9227ZM0.116551 49.6737C0.0535908 49.7365 0.00212458 50.5665 0.00212458 51.5179L0.00195312 53.2477L4.47763 53.1876C11.0324 53.0998 15.898 53.5532 20.6308 54.6925C22.9087 55.2408 24.6975 55.8109 30.8529 57.9493C39.2043 60.8506 44.1276 61.6506 53.6128 61.6471C59.2573 61.6451 61.5635 61.4802 65.706 60.7823C69.7835 60.0954 72.0367 59.4403 80.1179 56.5925C87.8341 53.8732 93.6467 53.0202 103.106 53.2189C110.915 53.3827 115.085 54.0957 121.908 56.434C123.597 57.0126 126.176 57.8968 127.638 58.3986C132.278 59.9908 136.669 60.9597 141.191 61.3893C144.582 61.7113 150.492 61.8005 153.972 61.5821C161.223 61.1272 165.313 60.239 173.447 57.3531C178.429 55.5854 181.571 54.6766 184.594 54.1283C188.907 53.346 190.32 53.2477 197.246 53.2477H203.808V51.5038V49.7602L202.529 49.6402C200.341 49.4352 189.539 49.6689 187.339 49.9688C182.53 50.6246 179.323 51.4119 174.295 53.1713C166.278 55.9766 163.944 56.6475 160.062 57.2629C156.466 57.8331 153.835 58.0109 148.997 58.0109C139.909 58.0109 135.28 57.2065 126.36 54.0778C120.401 51.9873 118.35 51.3722 115.294 50.7581C110.833 49.8617 108.968 49.6917 102.624 49.604C91.3494 49.4479 87.1333 50.182 75.3144 54.3583C68.3187 56.8304 64.3965 57.6094 57.1336 57.9692C53.1626 58.166 47.8161 57.9838 44.302 57.5319C40.024 56.9817 36.1717 56.003 31.1392 54.188C23.0856 51.2832 19.0793 50.311 12.7829 49.7329C10.6946 49.5411 0.297712 49.4925 0.116551 49.6737ZM0.988561 58.2521L0.00212458 58.3257V60.0941V61.8626L5.19164 61.8583C14.8827 61.8504 19.4745 62.6344 28.5299 65.843C36.5361 68.6798 40.1756 69.5503 46.5791 70.1603C49.8244 70.4693 57.9921 70.4235 61.2034 70.0783C67.6854 69.3813 70.3307 68.7141 79.9287 65.3556C86.8306 62.9405 91.1015 62.1584 99.2462 61.8182C100.661 61.7592 103.286 61.7955 105.079 61.899C112.53 62.3294 116.307 63.1045 123.68 65.7164C132.143 68.7145 135.615 69.5541 142.049 70.1588C144.878 70.4247 153.008 70.4238 156.021 70.1576C162.202 69.6112 165.943 68.6966 174.902 65.5433C181.993 63.0468 185.586 62.3205 192.915 61.9014C196.08 61.7204 199.141 61.7592 202.479 62.0222L203.808 62.127V60.3112V58.4957L203.165 58.3624C202.103 58.1425 191.752 58.2025 189.312 58.4427C184.163 58.9496 179.671 59.9687 174.387 61.8286C162.715 65.9368 158.646 66.7147 148.828 66.7147C140.879 66.7147 135.501 65.8808 128.917 63.6274C127.223 63.0474 124.602 62.1498 123.092 61.6329C116.134 59.2502 111.198 58.397 103.192 58.1938C97.5222 58.0496 92.2216 58.4417 87.6241 59.3451C84.703 59.9191 82.1479 60.6667 77.3188 62.3601C69.0453 65.2614 65.865 66.012 59.6172 66.5378C56.5302 66.7977 49.6991 66.7534 46.5638 66.4534C40.523 65.8754 37.3635 65.1038 29.4607 62.2769C20.9638 59.2375 15.904 58.3319 6.86429 58.2324C4.17518 58.2027 1.53101 58.2116 0.988561 58.2521Z" fill="white"/>
<path d="M56.7342 88.7815C58.4829 88.7815 59.5926 87.7054 59.5926 85.9119C59.5926 84.1183 58.4829 83.0422 56.7118 83.0422H54.5259V88.7815H56.7342ZM56.084 87.4588V84.365H56.6333C57.53 84.365 58.0233 84.7124 58.0233 85.9119C58.0233 87.1113 57.53 87.4588 56.6781 87.4588H56.084ZM62.5029 83.0422H60.9448V88.7815H62.5029V83.0422ZM66.9665 84.8357H68.4574C68.4518 83.7092 67.583 82.9638 66.1931 82.9638C64.8283 82.9638 63.8643 83.698 63.8727 84.7909C63.8699 85.6877 64.492 86.1865 65.5093 86.4051L66.081 86.5284C66.7199 86.6685 66.9385 86.8282 66.9441 87.0889C66.9385 87.3719 66.6807 87.5709 66.1818 87.5709C65.5849 87.5709 65.2318 87.2906 65.2066 86.7638H63.727C63.7326 88.2042 64.7078 88.8488 66.2043 88.8488C67.6587 88.8488 68.5302 88.221 68.5358 87.0889C68.5302 86.2145 68.009 85.6008 66.7423 85.329L66.2715 85.2281C65.7279 85.1132 65.4841 84.9534 65.4981 84.6788C65.5009 84.4266 65.7111 84.2416 66.1931 84.2416C66.6975 84.2416 66.9357 84.463 66.9665 84.8357ZM69.7599 88.7815H73.885V87.526H71.318V86.5396H73.6832V85.2841H71.318V84.2977H73.8962V83.0422H69.7599V88.7815ZM80.2661 83.0422H78.7079V86.0464H78.6631L76.623 83.0422H75.3002V88.7815H76.8584V85.7661H76.892L78.9658 88.7815H80.2661V83.0422ZM77.0265 82.5042C77.0265 82.2239 77.1386 82.0782 77.318 82.0782C77.4357 82.0782 77.5337 82.1567 77.6486 82.2492C77.814 82.3809 78.0157 82.5406 78.3604 82.5378C78.8845 82.5322 79.302 82.1202 79.3132 81.3272H78.5622C78.5566 81.599 78.4753 81.7615 78.2596 81.7643C78.1531 81.7643 78.055 81.6887 77.9401 81.599C77.7719 81.4673 77.5618 81.302 77.2171 81.3048C76.6874 81.3076 76.2643 81.6971 76.2643 82.5042H77.0265ZM87.1943 85.9119C87.1943 83.995 85.9613 82.9638 84.4031 82.9638C82.8338 82.9638 81.612 83.995 81.612 85.9119C81.612 87.8175 82.8338 88.86 84.4031 88.86C85.9613 88.86 87.1943 87.8287 87.1943 85.9119ZM85.5914 85.9119C85.5914 86.9431 85.1766 87.5036 84.4031 87.5036C83.6297 87.5036 83.2149 86.9431 83.2149 85.9119C83.2149 84.8806 83.6297 84.3201 84.4031 84.3201C85.1766 84.3201 85.5914 84.8806 85.5914 85.9119ZM92.4875 87.9968H93.7429V86.5508H95.189V85.2953H93.7429V83.8493H92.4875V85.2953H91.0414V86.5508H92.4875V87.9968ZM100.615 83.0422H99.0564V88.7815H100.615V83.0422ZM101.984 83.0422V88.7815H103.509V85.4411H103.554L104.831 88.7367H105.751L107.029 85.4635H107.073V88.7815H108.598V83.0422H106.659L105.325 86.293H105.257L103.924 83.0422H101.984ZM109.968 88.7815H111.526V87.0776H112.389C113.698 87.0776 114.575 86.307 114.575 85.0711C114.575 83.8493 113.72 83.0422 112.445 83.0422H109.968V88.7815ZM111.526 85.867V84.2865H112.075C112.621 84.2865 112.949 84.5779 112.949 85.0711C112.949 85.5616 112.621 85.867 112.075 85.867H111.526ZM115.778 88.7815H117.336V86.8871H117.874L118.883 88.7815H120.575L119.41 86.6405C120.021 86.3462 120.385 85.7886 120.385 84.9927C120.385 83.7708 119.53 83.0422 118.255 83.0422H115.778V88.7815ZM117.336 85.6765V84.2865H117.885C118.432 84.2865 118.759 84.4995 118.759 84.9927C118.759 85.4831 118.432 85.6765 117.885 85.6765H117.336ZM121.68 88.7815H125.805V87.526H123.238V86.5396H125.604V85.2841H123.238V84.2977H125.817V83.0422H121.68V88.7815ZM130.315 84.8357H131.805C131.8 83.7092 130.931 82.9638 129.541 82.9638C128.176 82.9638 127.212 83.698 127.221 84.7909C127.218 85.6877 127.84 86.1865 128.857 86.4051L129.429 86.5284C130.068 86.6685 130.286 86.8282 130.292 87.0889C130.286 87.3719 130.029 87.5709 129.53 87.5709C128.933 87.5709 128.58 87.2906 128.555 86.7638H127.075C127.081 88.2042 128.056 88.8488 129.552 88.8488C131.007 88.8488 131.878 88.221 131.884 87.0889C131.878 86.2145 131.357 85.6008 130.09 85.329L129.62 85.2281C129.076 85.1132 128.832 84.9534 128.846 84.6788C128.849 84.4266 129.059 84.2416 129.541 84.2416C130.045 84.2416 130.284 84.463 130.315 84.8357ZM134.666 83.0422H133.108V88.7815H134.666V83.0422ZM141.596 85.9119C141.596 83.995 140.363 82.9638 138.804 82.9638C137.235 82.9638 136.013 83.995 136.013 85.9119C136.013 87.8175 137.235 88.86 138.804 88.86C140.363 88.86 141.596 87.8287 141.596 85.9119ZM139.993 85.9119C139.993 86.9431 139.578 87.5036 138.804 87.5036C138.031 87.5036 137.616 86.9431 137.616 85.9119C137.616 84.8806 138.031 84.3201 138.804 84.3201C139.578 84.3201 139.993 84.8806 139.993 85.9119ZM138.289 82.5042H139.309L140.15 81.2487H138.827L138.289 82.5042ZM147.914 83.0422H146.356V86.0464H146.311L144.271 83.0422H142.948V88.7815H144.506V85.7661H144.54L146.613 88.7815H147.914V83.0422Z" fill="white"/>
</svg>
