<svg width="228" height="48" viewBox="0 0 228 48" fill="none" xmlns="http://www.w3.org/2000/svg">
<path d="M99.9463 35.5276C100.878 35.5276 101.744 35.4917 102.463 35.4228C103.088 35.375 103.709 35.294 104.326 35.1802V28.9557C103.748 28.7917 103.161 28.6647 102.567 28.5753C101.846 28.4765 101.118 28.4315 100.39 28.4405C99.7074 28.4459 99.0262 28.504 98.3527 28.6142C97.7246 28.7132 97.1173 28.9156 96.5554 29.2133C96.0567 29.4717 95.6211 29.8368 95.2795 30.2827C94.9258 30.7599 94.7433 31.3424 94.7614 31.9361C94.7614 33.314 95.2106 34.2456 96.1392 34.7968C97.0678 35.3479 98.3467 35.5576 99.9373 35.5576L99.9463 35.5276ZM99.557 16.3181C100.915 16.2957 102.267 16.4981 103.559 16.9172C104.556 17.2448 105.456 17.8139 106.18 18.5736C106.852 19.2954 107.336 20.1721 107.588 21.1257C107.873 22.1943 108.012 23.2967 108.001 24.4027V37.6035C107.102 37.7413 105.967 37.9479 104.52 38.1546C103.044 38.3593 101.556 38.4594 100.066 38.4542C98.9331 38.4608 97.8017 38.3605 96.6874 38.1546C95.6606 37.9737 94.6707 37.6246 93.7578 37.1212C92.9184 36.6116 92.2211 35.8987 91.73 35.0484C91.2118 34.1498 90.9692 33.0475 90.9692 31.6696C90.9381 30.5926 91.2132 29.5289 91.7628 28.6022C92.2759 27.7766 92.9717 27.0797 93.7967 26.5654C94.6755 26.0253 95.6464 25.6517 96.6604 25.4631C97.7425 25.2261 98.8477 25.1106 99.9554 25.1186C101.43 25.1186 102.9 25.2925 104.335 25.6368V24.6034C104.335 23.9766 104.266 23.3517 104.128 22.7402C103.996 22.151 103.736 21.5979 103.367 21.1197C102.949 20.6132 102.417 20.212 101.816 19.9485C101.015 19.6325 100.16 19.4798 99.2993 19.4992C98.1541 19.4906 97.0104 19.5828 95.8815 19.7748C95.1226 19.9071 94.3741 20.0922 93.6411 20.3289L93.1947 17.2257C94.0245 16.9035 94.894 16.695 95.7797 16.6056C97.0371 16.4195 98.3066 16.3274 99.5778 16.33" fill="white"/>
<path d="M130.283 30.6312L119.802 9.36072H115.354V37.5625H119.044V16.2891L129.525 37.5625H133.973V9.36072H130.283V30.6312Z" fill="white"/>
<path d="M82.0826 30.6312L71.6015 9.36072H70.8767H67.1895V37.5625H70.8767V16.2891L81.3246 37.5625H85.773V9.36072H82.0826V30.6312Z" fill="white"/>
<path d="M144.486 9.36072H142.242V37.5625H156.105V35.5286V35.355H144.486V9.36072Z" fill="white"/>
<path d="M170.62 9.36072L161.654 37.5625H163.964L166.309 29.8044H176.961L179.375 37.5625H181.685L172.698 9.36072H170.62ZM171.653 12.9792L176.308 27.5998H166.998L171.653 12.9792Z" fill="white"/>
<path d="M199.237 22.8396C200.386 22.3814 201.363 21.5735 202.028 20.5301C202.71 19.3822 203.056 18.0665 203.029 16.7319C203.029 14.3176 202.373 12.4575 201.064 11.2174C199.755 9.97729 197.823 9.35425 195.271 9.35425H188.133V37.556H196.098C198.581 37.556 200.477 36.8311 201.822 35.4173C203.167 34.0035 203.82 32.0744 203.82 29.5942C203.863 28.0378 203.417 26.5071 202.544 25.2179C201.789 24.0273 200.603 23.1749 199.234 22.8396H199.237ZM195.477 21.8721H190.478V11.6008H195.304C197.101 11.6008 198.476 12.0141 199.371 12.8409C200.267 13.6676 200.683 14.9377 200.683 16.702C200.683 18.4663 200.234 19.7423 199.338 20.596C198.443 21.4497 197.131 21.8721 195.477 21.8721ZM196.202 35.3874H190.478V24.1126H196.547C198.098 24.1456 199.339 24.6638 200.201 25.6313C201.064 26.5988 201.513 27.9408 201.513 29.6302C201.513 31.4274 201.031 32.8353 200.099 33.8238C199.168 34.8123 197.82 35.3754 196.205 35.3754" fill="white"/>
<path d="M226.506 26.8592C225.936 25.7857 225.106 24.8722 224.091 24.2023C223.021 23.4415 221.436 22.7176 219.335 22.0306C217.265 21.3417 215.74 20.533 214.818 19.6852C214.36 19.2604 214 18.7417 213.763 18.1647C213.525 17.5877 213.414 16.966 213.44 16.3424C213.416 15.6707 213.537 15.0019 213.796 14.3816C214.054 13.7612 214.444 13.204 214.937 12.7479C215.902 11.8163 217.28 11.367 219.005 11.367C220.73 11.367 222.177 11.9211 223.199 13.0594C224.22 14.1977 224.75 15.6774 224.75 17.5076V17.6454H227.189V17.5076C227.189 15.0603 226.431 13.0145 224.912 11.4419C223.394 9.86928 221.428 9.09644 219.05 9.09644C216.672 9.09644 214.776 9.78539 213.329 11.1303C212.597 11.7958 212.017 12.6118 211.631 13.5223C211.244 14.4329 211.059 15.4164 211.088 16.4053C211.088 18.5779 211.847 20.3362 213.365 21.6802C214.506 22.6806 216.297 23.6092 218.709 24.439C221.12 25.2687 222.743 26.0924 223.606 26.9551C224.469 27.8178 224.882 29.0219 224.882 30.5496C224.908 31.2402 224.782 31.9281 224.514 32.5651C224.246 33.202 223.842 33.7726 223.331 34.237C222.297 35.1685 220.916 35.6148 219.194 35.6148C217.229 35.6148 215.644 35.0637 214.509 33.9614C213.374 32.859 212.787 31.3404 212.787 29.4443V29.2736H210.373V29.4113C210.328 30.9856 210.722 32.5412 211.511 33.9045C212.27 35.1747 213.386 36.1943 214.719 36.837C216.122 37.5261 217.67 37.8682 219.233 37.8344C221.683 37.8344 223.648 37.1455 225.131 35.8005C226.613 34.4556 227.371 32.6644 227.371 30.4567C227.351 29.2135 227.068 27.9887 226.542 26.8622" fill="white"/>
<path d="M24.7187 0.00573749C20.0176 0.00514504 15.422 1.39865 11.5128 4.01002C7.60373 6.62139 4.55686 10.3333 2.75741 14.6764C0.957958 19.0195 0.486842 23.7987 1.40362 28.4095C2.3204 33.0204 4.58384 37.2558 7.90782 40.5802C11.2318 43.9046 15.4668 46.1687 20.0776 47.086C24.6883 48.0034 29.4678 47.5328 33.8111 45.7339C38.1544 43.935 41.8666 40.8886 44.4785 36.9798C47.0903 33.071 48.4846 28.4754 48.4846 23.7743C48.4822 17.4718 45.9774 11.428 41.5211 6.9711C37.0648 2.51422 31.0213 0.00891295 24.7187 0.00573749ZM31.848 6.16732V32.9253L18.5152 5.81385C20.5095 5.12182 22.6048 4.76551 24.7158 4.75946C27.1632 4.74914 29.5881 5.2278 31.848 6.16732ZM5.70689 23.7713C5.7023 20.921 6.34147 18.1065 7.57639 15.5376C8.81131 12.9687 10.6103 10.7117 12.8391 8.93508V38.5897C10.6128 36.8148 8.81529 34.5607 7.58049 31.9951C6.34569 29.4296 5.70523 26.6186 5.70689 23.7713ZM17.5449 41.3724V14.6174L30.8804 41.7259C28.8858 42.4173 26.7907 42.7746 24.6798 42.7833C22.2312 42.7925 19.8057 42.3129 17.5449 41.3724ZM36.6015 38.6016V8.94704C38.8267 10.725 40.6232 12.9809 41.8578 15.5477C43.0924 18.1144 43.7334 20.9261 43.7334 23.7743C43.7334 26.6226 43.0924 29.4343 41.8578 32.001C40.6232 34.5678 38.8267 36.8237 36.6015 38.6016Z" fill="white"/>
</svg>
