<svg width="47" height="31" viewBox="0 0 47 31" fill="none" xmlns="http://www.w3.org/2000/svg">
<path d="M13.601 0.408203C14.9676 0.408203 16.1974 0.530368 17.325 0.779486C18.4457 1.02621 19.4016 1.43342 20.209 1.99633C21.0049 2.55925 21.6267 3.3066 22.0745 4.24559C22.5084 5.1726 22.7242 6.33195 22.7242 7.70211C22.7242 9.18724 22.3993 10.428 21.7473 11.4173C21.0907 12.409 20.1232 13.221 18.8331 13.8486C20.5895 14.3732 21.8912 15.2906 22.7543 16.5937C23.6221 17.9088 24.0467 19.4825 24.0467 21.327C24.0467 22.8241 23.7706 24.1104 23.216 25.1907C22.6817 26.2549 21.9064 27.1703 20.9561 27.8592C19.9718 28.5668 18.8724 29.086 17.7101 29.3922C16.4916 29.7224 15.2367 29.8883 13.9769 29.8856H0.136719V0.408203H13.601ZM12.7866 12.318C13.9003 12.318 14.8238 12.0449 15.5523 11.4916C16.2762 10.9454 16.6266 10.0448 16.6266 8.81116C16.6266 8.12609 16.5083 7.56078 16.2762 7.11764C16.0502 6.69131 15.7156 6.33681 15.3087 6.09242C14.8828 5.83163 14.4127 5.65686 13.9235 5.57741C13.3903 5.47475 12.8487 5.42581 12.3063 5.4313H6.42454V12.318H12.7866ZM13.137 24.8673C13.7565 24.8673 14.3458 24.8122 14.9003 24.6829C15.4595 24.5583 15.956 24.3571 16.3783 24.0577C16.8006 23.7703 17.1486 23.3798 17.3992 22.8816C17.6521 22.3881 17.7751 21.7438 17.7751 20.9701C17.7751 19.4514 17.3598 18.3711 16.5384 17.7172C15.7147 17.0704 14.6103 16.7494 13.2576 16.7494H6.42454V24.8697H13.137V24.8673ZM33.0097 24.7691C33.8613 25.6267 35.0887 26.0578 36.685 26.0578C37.8289 26.0578 38.8173 25.7584 39.6502 25.1644C40.4716 24.5679 40.9728 23.9307 41.1653 23.272H46.1654C45.3626 25.8399 44.1445 27.6747 42.4786 28.779C40.8336 29.888 38.8312 30.439 36.4924 30.439C34.8636 30.439 33.3972 30.1683 32.084 29.6317C30.8234 29.1249 29.6843 28.342 28.7452 27.337C27.8215 26.3085 27.1074 25.0988 26.6453 23.7798C26.1375 22.3213 25.886 20.7808 25.9029 19.231C25.9029 17.6357 26.1604 16.1434 26.6662 14.7661C27.1464 13.4347 27.8837 12.2179 28.8333 11.1898C29.773 10.1837 30.8867 9.39084 32.1837 8.80877C33.5476 8.21657 35.0152 7.92138 36.4947 7.94165C38.2442 7.94165 39.7732 8.29137 41.0865 8.99561C42.36 9.66786 43.4642 10.6373 44.3116 11.8269C45.1538 13.0079 45.7548 14.3612 46.1283 15.8775C46.5019 17.3914 46.6318 18.9723 46.5251 20.6275H31.6037C31.606 22.3139 32.1559 23.9116 33.0097 24.7691ZM39.5342 13.5564C38.859 12.7851 37.7175 12.3683 36.3207 12.3683C35.4135 12.3683 34.6641 12.524 34.0608 12.845C33.5092 13.1326 33.0198 13.5327 32.6223 14.0211C32.2731 14.4645 32.0142 14.9762 31.8612 15.5254C31.7274 15.9833 31.6411 16.4547 31.6037 16.9315H40.8428C40.7083 15.4368 40.2117 14.3325 39.5342 13.5564ZM30.4436 2.38678H42.0192V5.29715H30.4436V2.38678Z" fill="#E5E5E5"/>
</svg>
