<svg width="30" height="31" viewBox="0 0 30 31" fill="none" xmlns="http://www.w3.org/2000/svg">
<path d="M28.2137 0.794922H2.21279C1.78495 0.794922 1.37463 0.969554 1.0721 1.2804C0.769569 1.59125 0.599609 2.01285 0.599609 2.45245V29.1686C0.599717 29.6081 0.769724 30.0296 1.07224 30.3404C1.37476 30.6511 1.78502 30.8257 2.21279 30.8257H16.2106V19.1963H12.4017V14.6641H16.2106V11.3215C16.2106 7.44256 18.5163 5.33082 21.8839 5.33082C23.4971 5.33082 24.8834 5.45386 25.2877 5.50933V9.56307L22.952 9.56432C21.1204 9.56432 20.766 10.4586 20.766 11.7707V14.6645H25.1338L24.5651 19.1967H20.766V30.8257H28.2141C28.6418 30.8256 29.0521 30.6509 29.3545 30.3401C29.6569 30.0292 29.8268 29.6077 29.8268 29.1682V2.45245C29.8268 2.01285 29.6569 1.59125 29.3544 1.2804C29.0518 0.969554 28.6415 0.794922 28.2137 0.794922Z" fill="#F2F2F2"/>
</svg>
