<svg width="30" height="31" viewBox="0 0 30 31" fill="none" xmlns="http://www.w3.org/2000/svg">
<path fill-rule="evenodd" clip-rule="evenodd" d="M14.6136 0.794922C10.6445 0.794922 10.1477 0.81294 8.58841 0.885014C7.03353 0.958589 5.97112 1.21235 5.04169 1.58323C4.06622 1.95988 3.18248 2.55072 2.45216 3.3145C1.70885 4.06493 1.13383 4.97295 0.767214 5.97523C0.406258 6.93021 0.159288 8.02182 0.0876815 9.61946C0.0160749 11.2216 0 11.7321 0 15.8103C0 19.8885 0.0160749 20.399 0.0876815 22.0011C0.159288 23.5988 0.406258 24.6904 0.767214 25.6454C1.13387 26.6476 1.70889 27.5556 2.45216 28.3061C3.18254 29.0698 4.06626 29.6606 5.04169 30.0374C5.97112 30.4083 7.03353 30.662 8.58841 30.7356C10.1477 30.8077 10.6445 30.8257 14.6136 30.8257C18.5827 30.8257 19.0795 30.8077 20.6388 30.7356C22.1937 30.662 23.2561 30.4083 24.1855 30.0374C25.161 29.6607 26.0447 29.0699 26.775 28.3061C27.5184 27.5557 28.0934 26.6476 28.46 25.6454C28.8209 24.6904 29.0679 23.5988 29.1395 22.0011C29.2097 20.399 29.2272 19.8885 29.2272 15.8103C29.2272 11.7321 29.2097 11.2216 29.1395 9.61946C29.0679 8.02182 28.8209 6.93021 28.46 5.97523C28.0934 4.97295 27.5184 4.06493 26.775 3.3145C26.0447 2.55072 25.161 1.95988 24.1855 1.58323C23.2561 1.21235 22.1937 0.958589 20.6388 0.885014C19.0795 0.81294 18.5827 0.794922 14.6136 0.794922ZM14.6136 3.50069C18.5154 3.50069 18.9772 3.51571 20.5175 3.58778C21.9438 3.65535 22.7168 3.8986 23.2327 4.10431C23.9137 4.37759 24.4018 4.70343 24.9133 5.22746C25.4247 5.753 25.7404 6.25451 26.0064 6.95423C26.2051 7.48427 26.4448 8.27859 26.5091 9.74259C26.5792 11.3267 26.5938 11.7997 26.5938 15.8103C26.5938 19.8194 26.5792 20.2939 26.5091 21.8765C26.4433 23.342 26.2051 24.1363 26.0064 24.6664C25.7721 25.3186 25.3986 25.9087 24.9133 26.3931C24.4018 26.9187 23.9137 27.243 23.2327 27.5163C22.7168 27.7205 21.9438 27.9668 20.519 28.0328C18.9787 28.1049 18.5169 28.1199 14.6136 28.1199C10.7118 28.1199 10.2485 28.1049 8.70971 28.0328C7.28342 27.9653 6.51036 27.7205 5.9945 27.5163C5.35966 27.2757 4.7854 26.8919 4.31394 26.3931C3.82856 25.9087 3.45503 25.3187 3.22084 24.6664C3.02063 24.1363 2.78243 23.342 2.71813 21.878C2.64798 20.2939 2.63337 19.8209 2.63337 15.8103C2.63337 11.8012 2.64798 11.3267 2.71813 9.74409C2.78389 8.27859 3.02063 7.48427 3.22084 6.95423C3.48681 6.25451 3.80392 5.753 4.31394 5.22746C4.82541 4.70192 5.31351 4.37759 5.9945 4.10431C6.51036 3.8986 7.28342 3.65385 8.70825 3.58778C10.25 3.51571 10.7103 3.50069 14.6136 3.50069ZM14.6136 20.8149C13.3218 20.8149 12.0829 20.2877 11.1695 19.3491C10.2561 18.4106 9.74289 17.1376 9.74289 15.8103C9.74289 14.483 10.2561 13.21 11.1695 12.2715C12.0829 11.3329 13.3218 10.8057 14.6136 10.8057C15.9054 10.8057 17.1443 11.3329 18.0577 12.2715C18.9712 13.21 19.4843 14.483 19.4843 15.8103C19.4843 17.1376 18.9712 18.4106 18.0577 19.3491C17.1443 20.2877 15.9054 20.8149 14.6136 20.8149ZM14.6136 8.0999C13.6282 8.0999 12.6524 8.29934 11.7419 8.68682C10.8315 9.07431 10.0042 9.64225 9.30741 10.3582C8.61059 11.0742 8.05785 11.9242 7.68073 12.8597C7.30362 13.7951 7.10952 14.7978 7.10952 15.8103C7.10952 16.8228 7.30362 17.8255 7.68073 18.7609C8.05785 19.6964 8.61059 20.5464 9.30741 21.2624C10.0042 21.9784 10.8315 22.5463 11.7419 22.9338C12.6524 23.3213 13.6282 23.5207 14.6136 23.5207C16.6038 23.5207 18.5125 22.7084 19.9198 21.2624C21.3271 19.8164 22.1177 17.8552 22.1177 15.8103C22.1177 13.7654 21.3271 11.8042 19.9198 10.3582C18.5125 8.91225 16.6038 8.0999 14.6136 8.0999ZM24.168 7.79509C24.168 8.03171 24.1226 8.26602 24.0345 8.48463C23.9464 8.70324 23.8172 8.90187 23.6543 9.06919C23.4915 9.23651 23.2982 9.36923 23.0854 9.45978C22.8727 9.55033 22.6446 9.59694 22.4143 9.59694C22.1841 9.59694 21.956 9.55033 21.7433 9.45978C21.5305 9.36923 21.3372 9.23651 21.1743 9.06919C21.0115 8.90187 20.8823 8.70324 20.7942 8.48463C20.7061 8.26602 20.6607 8.03171 20.6607 7.79509C20.6607 7.31721 20.8455 6.85891 21.1743 6.52099C21.5032 6.18308 21.9492 5.99325 22.4143 5.99325C22.8794 5.99325 23.3255 6.18308 23.6543 6.52099C23.9832 6.85891 24.168 7.31721 24.168 7.79509Z" fill="#F2F2F2"/>
</svg>
