<svg width="30" height="29" viewBox="0 0 30 29" fill="none" xmlns="http://www.w3.org/2000/svg">
<path d="M4.04883 7C5.98182 7 7.54883 5.433 7.54883 3.5C7.54883 1.567 5.98182 0 4.04883 0C2.11583 0 0.548828 1.567 0.548828 3.5C0.548828 5.433 2.11583 7 4.04883 7Z" fill="#E5E5E5"/>
<path d="M10.4968 9.48231V28.9984H16.6013V19.3473C16.6013 16.8006 17.0839 14.3344 20.2649 14.3344C23.4022 14.3344 23.4411 17.246 23.4411 19.508V29H29.5488V18.2974C29.5488 13.0402 28.4086 9 22.2183 9C19.2462 9 17.254 10.619 16.4393 12.1511H16.3567V9.48231H10.4968ZM0.548828 9.48231H6.66304V28.9984H0.548828V9.48231Z" fill="#E5E5E5"/>
</svg>
