<svg width="30" height="31" viewBox="0 0 30 31" fill="none" xmlns="http://www.w3.org/2000/svg">
<path d="M14.7509 0.408203C6.6874 0.408203 0.0898438 7.16554 0.0898438 15.4243C0.0898438 23.6816 6.6874 30.439 14.7509 30.439C22.813 30.439 29.4105 23.6816 29.4105 15.4243C29.4105 7.16554 22.8863 0.408203 14.7509 0.408203ZM21.4937 22.105C21.2017 22.5544 20.6881 22.7062 20.2464 22.4071C16.7994 20.2278 12.4749 19.7769 7.34334 20.9778C6.83268 21.1311 6.39245 20.7554 6.2457 20.303C6.09749 19.7769 6.46435 19.329 6.90605 19.1772C12.4749 17.8997 17.3145 18.4273 21.1254 20.8305C21.639 21.0544 21.7124 21.6541 21.4937 22.105ZM23.2547 17.9764C22.8863 18.5009 22.2275 18.7264 21.7124 18.3506C17.7547 15.8767 11.7456 15.1222 7.12763 16.6252C6.54359 16.777 5.88032 16.4749 5.73504 15.8767C5.58683 15.2725 5.88178 14.5962 6.46729 14.4459C11.8175 12.7956 18.4166 13.6223 22.9597 16.4764C23.3999 16.7004 23.6201 17.4503 23.2547 17.9764ZM23.3999 13.7696C18.7086 10.9184 10.8652 10.6179 6.39245 12.0472C6.05231 12.1476 5.68748 12.1099 5.37376 11.9419C5.06004 11.774 4.82155 11.4887 4.70784 11.1454C4.60809 10.7966 4.64386 10.4218 4.80768 10.0994C4.9715 9.77698 5.25068 9.53193 5.58683 9.41548C10.7918 7.83887 19.3689 8.13796 24.794 11.446C25.4529 11.8202 25.673 12.722 25.3061 13.3968C24.9393 13.9229 24.0603 14.1453 23.3999 13.7696Z" fill="#E5E5E5"/>
</svg>
