<svg width="39" height="31" viewBox="0 0 39 31" fill="none" xmlns="http://www.w3.org/2000/svg">
<path d="M38.2332 4.3622C36.8323 4.9486 35.3079 5.37063 33.7377 5.535C35.3679 4.59514 36.5887 3.11033 37.1711 1.35913C35.6413 2.24223 33.9654 2.86148 32.2178 3.1894C31.4874 2.43164 30.604 1.82798 29.6226 1.41602C28.6413 1.00407 27.583 0.792648 26.5138 0.79494C22.1877 0.79494 18.7085 4.19783 18.7085 8.3737C18.7085 8.9601 18.7817 9.5465 18.9008 10.1107C12.4231 9.78195 6.64579 6.77888 2.80495 2.18097C2.10511 3.34096 1.73837 4.66174 1.74288 6.0059C1.74288 8.63581 3.12082 10.9548 5.22207 12.3186C3.98377 12.2712 2.77447 11.941 1.69253 11.3546V11.4479C1.69253 15.1306 4.37516 18.1826 7.95049 18.8845C7.27918 19.0537 6.5886 19.1402 5.89502 19.1421C5.38687 19.1421 4.9062 19.0933 4.42094 19.0266C5.40976 22.0297 8.28925 24.2109 11.7181 24.282C9.03544 26.3211 5.67528 27.5205 2.02671 27.5205C1.37207 27.5205 0.767794 27.4983 0.140625 27.4272C3.6015 29.5818 7.70786 30.8257 12.1301 30.8257C26.4863 30.8257 34.342 19.2843 34.342 9.26663C34.342 8.93789 34.342 8.60915 34.3191 8.28041C35.8389 7.20091 37.1711 5.86374 38.2332 4.3622Z" fill="#F2F2F2"/>
</svg>
