<svg width="41" height="31" viewBox="0 0 41 31" fill="none" xmlns="http://www.w3.org/2000/svg">
<path d="M40.5493 15.2942C40.5493 15.1925 40.5493 15.077 40.5449 14.9429C40.5404 14.5686 40.5315 14.148 40.5226 13.6997C40.487 12.4103 40.4246 11.1256 40.3266 9.91471C40.193 8.24633 39.997 6.85525 39.7298 5.81078C39.4477 4.72079 38.8949 3.72669 38.1266 2.92785C37.3583 2.12901 36.4013 1.5534 35.3514 1.25857C34.0909 0.907329 31.6233 0.690117 28.1491 0.556092C26.4966 0.491391 24.7284 0.449797 22.9601 0.426689C22.341 0.417446 21.7664 0.412825 21.2497 0.408203H19.9402C19.4235 0.412825 18.849 0.417446 18.2298 0.426689C16.4616 0.449797 14.6933 0.491391 13.0408 0.556092C9.56663 0.694738 7.09461 0.911951 5.83855 1.25857C4.78828 1.55268 3.83096 2.12804 3.06251 2.927C2.29407 3.72595 1.7415 4.72043 1.46018 5.81078C1.18848 6.85525 0.996953 8.24633 0.86333 9.91471C0.76534 11.1256 0.702982 12.4103 0.66735 13.6997C0.653987 14.148 0.649533 14.5686 0.645079 14.9429C0.645079 15.077 0.640625 15.1925 0.640625 15.2942V15.553C0.640625 15.6547 0.640625 15.7702 0.645079 15.9042C0.649533 16.2786 0.658441 16.6991 0.66735 17.1474C0.702982 18.4368 0.76534 19.7216 0.86333 20.9325C0.996953 22.6008 1.19293 23.9919 1.46018 25.0364C2.0303 27.2501 3.70504 28.997 5.83855 29.5886C7.09461 29.9398 9.56663 30.157 13.0408 30.2911C14.6933 30.3558 16.4616 30.3974 18.2298 30.4205C18.849 30.4297 19.4235 30.4343 19.9402 30.439H21.2497C21.7664 30.4343 22.341 30.4297 22.9601 30.4205C24.7284 30.3974 26.4966 30.3558 28.1491 30.2911C31.6233 30.1524 34.0953 29.9352 35.3514 29.5886C37.4849 28.997 39.1596 27.2547 39.7298 25.0364C40.0015 23.9919 40.193 22.6008 40.3266 20.9325C40.4246 19.7216 40.487 18.4368 40.5226 17.1474C40.536 16.6991 40.5404 16.2786 40.5449 15.9042C40.5449 15.7702 40.5493 15.6547 40.5493 15.553V15.2942ZM37.3424 15.5345C37.3424 15.6316 37.3424 15.7378 37.3379 15.8626C37.3335 16.2231 37.3246 16.6206 37.3156 17.0504C37.2845 18.2797 37.2221 19.509 37.1286 20.6505C37.0083 22.1387 36.8391 23.3588 36.6297 24.1768C36.3536 25.2444 35.5429 26.0901 34.5185 26.372C33.5831 26.6308 31.2269 26.8388 28.0244 26.9636C26.4031 27.0283 24.6571 27.0699 22.9156 27.093C22.3053 27.1022 21.7397 27.1068 21.2319 27.1068H19.958L18.2744 27.093C16.5328 27.0699 14.7913 27.0283 13.1655 26.9636C9.96305 26.8342 7.60238 26.6308 6.67147 26.372C5.64703 26.0855 4.83638 25.2444 4.56023 24.1768C4.35089 23.3588 4.18163 22.1387 4.06137 20.6505C3.96783 19.509 3.90993 18.2797 3.8743 17.0504C3.86094 16.6206 3.85648 16.2185 3.85203 15.8626C3.85203 15.7378 3.84757 15.6269 3.84757 15.5345V15.3127C3.84757 15.2156 3.84757 15.1093 3.85203 14.9845C3.85648 14.6241 3.86539 14.2266 3.8743 13.7968C3.90548 12.5675 3.96783 11.3381 4.06137 10.1966C4.18163 8.70849 4.35089 7.4884 4.56023 6.67039C4.83638 5.60281 5.64703 4.75707 6.67147 4.47516C7.60683 4.21635 9.96305 4.00838 13.1655 3.8836C14.7868 3.8189 16.5328 3.7773 18.2744 3.7542C18.8846 3.74495 19.4503 3.74033 19.958 3.74033H21.2319L22.9156 3.7542C24.6571 3.7773 26.3987 3.8189 28.0244 3.8836C31.2269 4.013 33.5876 4.21635 34.5185 4.47516C35.5429 4.76169 36.3536 5.60281 36.6297 6.67039C36.8391 7.4884 37.0083 8.70849 37.1286 10.1966C37.2221 11.3381 37.28 12.5675 37.3156 13.7968C37.329 14.2266 37.3335 14.6287 37.3379 14.9845C37.3379 15.1093 37.3424 15.2202 37.3424 15.3127V15.5345ZM16.6308 21.6164L26.9643 15.3774L16.6308 9.23072V21.6164Z" fill="#E5E5E5"/>
</svg>
