<svg width="702" height="748" viewBox="0 0 702 748" fill="none" xmlns="http://www.w3.org/2000/svg">
<rect x="0.453125" y="0.897461" width="701.547" height="700.977" fill="#FF8A00"/>
<path fill-rule="evenodd" clip-rule="evenodd" d="M349.027 380.629C354.534 378.859 360.865 379.065 366.514 379.517C372.252 379.977 378.409 380.766 383.793 383.254C388.473 385.416 392.42 389.053 394.825 394.264C396.802 398.547 397.729 403.245 398.31 408.017C398.548 409.97 398.747 411.927 398.936 413.886L399.325 417.963C399.477 419.521 399.61 420.69 399.877 422.429C400.616 427.239 401.645 431.257 403.942 434.757C409.505 443.229 418.589 446.064 426.849 449.68C432.135 451.994 436.321 456.157 437.482 462.845C438.603 469.297 481.203 523.429 485.385 527.992L485.5 528.115C488.744 531.507 488.362 537.882 488.816 542.537C489.303 547.527 489.766 552.522 490.205 557.518C491.098 567.668 491.893 577.829 492.591 587.999C495.319 627.772 496.557 667.684 496.294 707.582L496.278 709.841C496.237 714.904 496.27 719.99 496.074 725.048C495.886 729.91 494.619 734.776 490.739 737.315C487.145 739.668 482.6 739.461 478.583 739.696L478.343 739.711C474.032 739.985 469.721 740.209 465.407 740.395C447.874 741.148 430.326 741.229 412.784 741.135C377.983 740.949 343.146 740.061 308.378 742.324C299.515 742.9 271.26 739.396 262.425 740.395C253.981 741.349 261.226 746.158 256.01 745.841C238.854 744.799 222.58 740.354 206.143 735C204.09 734.331 202.519 732.017 202.545 729.516C202.851 702.045 203.518 674.58 204.562 647.133C205.492 622.684 206.717 598.25 208.237 573.841C208.898 563.231 209.614 552.625 210.386 542.025L210.72 537.483C211.156 531.625 211.407 525.659 212.399 519.883C213.38 514.169 215.606 509.215 218.835 504.788C221.731 500.817 254.527 469.726 262.425 463.84C269.985 458.206 277.924 453.453 285.686 448.231C288.915 446.058 292.016 446.84 294.774 444.173C296.228 442.768 317.33 433.295 323.023 430.17L323.191 430.077C327.548 427.65 331.558 425.018 334.569 420.82C335.578 419.413 337.558 410.549 337.562 407.716C337.569 402.657 337.238 397.327 338.553 392.426C340.125 386.565 343.913 382.272 349.027 380.629Z" fill="white"/>
<path fill-rule="evenodd" clip-rule="evenodd" d="M471.633 553.963C471.555 554.053 471.473 554.144 471.396 554.239C471.486 554.092 471.564 553.939 471.633 553.787V553.963ZM283.67 444.416C283.826 444.335 283.978 444.254 284.129 444.173C284.207 444.302 284.301 444.421 284.4 444.54C284.645 444.83 284.887 445.143 285.141 445.429C284.65 445.096 284.158 444.758 283.67 444.416ZM502.828 711.809C502.545 704.876 502.23 697.943 501.894 691.011C501.23 677.461 500.546 663.91 499.632 650.379C497.776 622.958 496.047 595.547 493.264 568.227C492.096 556.775 490.466 545.409 488.831 534.037C489.04 533.818 489.253 533.599 489.462 533.385C489.236 536.496 492.875 538.467 494.678 535.364C494.813 535.131 494.944 534.898 495.075 534.656C496.637 531.725 500.234 517.346 499.984 516.128C499.534 513.934 498.28 511.984 497.3 510.052C496.444 508.363 495.579 506.673 494.703 504.999C492.953 501.644 491.15 498.324 489.261 495.074C485.348 488.346 481.07 481.885 476.03 476.237C470.813 470.385 464.827 465.574 458.643 461.212C455.672 459.118 452.607 457.22 449.485 455.449C446.404 453.708 443.031 451.781 439.712 450.791C439.524 450.734 439.331 451.039 439.503 451.201C440.384 452.01 441.306 452.771 442.245 453.503C439.704 452.481 437.086 451.743 434.447 451.481C429.337 449.397 424.166 447.49 419.081 445.315C414.081 443.174 409.156 440.767 405.833 435.695C402.993 431.36 401.198 426.055 399.818 420.888C398.301 415.193 397.699 409.273 396.298 403.569C396.187 403.107 395.535 403.055 395.449 403.569C394.45 409.554 394.495 416.282 395.064 422.324C395.662 428.662 397.199 434.881 400.543 440.034C404.427 446.024 409.697 449.359 415.626 452.019C420.408 454.17 425.252 456.358 430.148 458.28C429.509 458.766 428.862 459.251 428.194 459.712C425.538 461.545 422.777 463.172 419.953 464.633C414.799 467.301 409.369 469.3 403.907 470.923C393.741 473.929 383.316 475.457 372.835 475.657C351.863 476.061 330.657 470.961 311.476 461.112C306.076 458.338 300.802 455.288 295.582 452.086C293.951 451.086 292.312 450.078 290.681 449.04C290.816 449.031 290.955 449.017 291.091 449.002C294.733 448.603 298.331 447.789 301.855 446.638C309.071 444.273 315.988 440.586 322.782 436.955C328.543 433.877 334.476 430.37 337.996 423.957C339.877 420.526 340.742 416.501 341.442 412.562C342.225 408.175 343.147 403.768 343.717 399.339C343.917 397.788 343.618 395.69 342.184 394.957C341.61 394.666 341.139 394.428 340.496 394.428C339.074 394.428 337.615 395.628 337.275 397.274C336.435 401.38 335.927 405.601 335.267 409.749C334.698 413.337 334.177 417.082 332.51 420.236C329.596 425.76 323.884 428.586 319.057 431.275C312.939 434.681 306.817 438.002 300.462 440.767C297.663 441.984 294.815 443.089 291.927 443.992C292.041 443.169 291.943 442.303 291.525 441.651C290.828 440.576 290.038 439.862 289.14 439.04C288.165 438.145 286.854 437.679 285.702 438.074C285.702 438.078 285.698 438.074 285.698 438.074C285.231 437.955 284.715 438.002 284.182 438.283C282.535 439.159 280.892 440.043 279.248 440.943C255.609 453.856 232.642 469.024 215.247 492.124C212.74 495.454 210.392 498.957 208.191 502.567C206.052 506.074 203.405 509.881 202.815 514.229C202.766 514.591 203.221 514.758 203.299 514.386C203.438 513.715 203.626 513.059 203.86 512.421C203.372 514.401 203.401 516.504 204.089 518.573C204.905 521.009 206.401 522.623 208.29 523.264C206.392 532.919 205.118 542.701 204.094 552.593C202.623 566.843 201.578 581.127 200.791 595.447C199.217 624.029 198.517 652.753 199.025 681.386C199.168 689.479 199.406 697.573 199.766 705.661C199.947 709.706 200.143 713.745 200.369 717.789C200.59 721.767 200.41 726.149 203.397 728.247C203.434 728.404 203.475 728.556 203.512 728.713C204.237 731.649 207.47 730.707 207.773 728.042C207.777 728.014 207.781 727.98 207.786 727.952C210.228 725.788 209.859 722.181 209.679 718.721C209.486 714.987 209.281 711.257 209.109 707.526C208.781 700.37 208.503 693.215 208.253 686.053C207.765 671.894 207.491 657.715 207.4 643.546C207.22 615.203 208.63 586.902 210.301 558.64C211.002 546.816 211.822 535.045 212.072 523.226C213.379 522.437 213.78 520.191 213.125 518.678C228.606 530.944 242.972 545.608 254.507 562.651C256.433 565.496 258.273 568.427 260.035 571.411C260.608 572.381 261.153 573.39 261.702 574.398C261.17 577.21 260.756 580.07 260.215 582.768C259.1 588.34 258.629 594.12 257.99 599.782C256.691 611.282 255.777 622.887 255.003 634.448C253.478 657.282 252.347 680.111 251.991 703.011C251.794 715.962 251.532 728.994 252.024 741.941C251.659 744.472 253.622 746.946 255.675 747.265C257.474 747.545 259.154 746.461 259.94 744.714C265.546 745.523 271.299 745.895 276.868 745.942C284.37 746.004 291.873 745.995 299.376 745.809C314.386 745.428 329.391 744.981 344.397 744.462C374.408 743.435 404.419 742.402 434.434 741.37C442.757 741.084 451.079 740.799 459.401 740.513C463.155 740.385 467.834 741.641 470.793 738.277C471.301 737.696 471.694 737.016 471.973 736.288C472.858 736.545 473.944 736.293 474.526 735.498C475.612 734.009 476.411 732.629 476.37 730.565C476.333 728.632 475.874 726.596 475.636 724.684C475.185 721.091 474.751 717.499 474.337 713.902C473.522 706.793 472.76 699.676 472.059 692.553C470.625 677.989 469.322 663.391 468.306 648.779C466.289 619.885 465.72 590.838 465.79 561.852C465.798 559.259 465.81 556.666 465.822 554.072C465.917 554.211 466.019 554.339 466.13 554.449C466.22 554.539 466.31 554.629 466.4 554.725C467.449 555.795 469.195 556.347 470.453 555.334C471.997 554.172 473.063 552.431 474.268 550.856C475.534 549.205 476.837 547.597 478.152 545.999C480.701 542.906 483.336 539.941 486.024 537.01C486.241 536.778 486.458 536.54 486.675 536.311C486.692 545.537 486.683 554.758 486.897 563.979C487.216 577.677 487.855 591.361 488.441 605.04C489.605 632.127 490.81 659.204 491.969 686.286C492.293 693.847 492.6 701.412 492.924 708.972C493.088 712.755 493.248 716.538 493.404 720.321C493.486 722.366 493.568 724.417 493.649 726.463C493.74 728.661 493.621 731.011 494.26 733.1C495.715 737.877 502 738.553 503.209 733.1C503.967 729.68 503.385 725.72 503.25 722.209C503.111 718.746 502.972 715.277 502.828 711.809Z" fill="black"/>
<path fill-rule="evenodd" clip-rule="evenodd" d="M435.765 323.445C434.763 310.462 436.316 296.853 431.314 284.512C422.594 264.036 398.139 257.209 379.181 249.414C371.586 247.167 346.029 246.853 337.136 243.881C317.009 237.152 312.2 229.136 296.207 241.947C293.508 244.135 291.819 246.514 290.587 249.763L290.637 249.777C290.285 251.132 290.662 252.484 291.455 253.516C284.521 260.61 281.619 271.246 285.177 280.689C296.788 305.264 296.242 318.551 292.501 344.969C287.616 369.632 298.779 378.642 317.267 392.061C316.514 393.522 316.358 395.463 317.34 396.752C338.718 426.821 379.028 441.177 413.566 425.915C427.585 419.67 433.844 404.727 437.416 391.244C441.577 376.147 442.855 360.238 439.468 344.859C438.101 337.746 436.322 330.685 435.765 323.445Z" fill="white"/>
<path fill-rule="evenodd" clip-rule="evenodd" d="M312.452 179.597C315.047 179.207 317.007 180.818 317.939 183.09L317.988 183.212C318.287 183.985 318.621 184.737 318.979 185.476C325.473 182.287 334.739 183.106 338.849 189.564C341.781 194.175 339.992 199.649 338.887 204.539L338.161 207.761C339.564 208.655 340.622 210.255 340.572 211.912L340.566 212.039L340.271 216.533C341.208 215.583 342.064 214.548 342.828 213.446C343.355 212.478 343.925 211.528 344.537 210.608C348.136 205.189 356.216 209.898 353.246 215.701C352.676 216.82 352.035 217.88 351.347 218.902C350.571 220.41 349.933 221.959 349.444 223.552C350.849 224.164 351.929 225.524 352.043 227.576C352.309 232.37 349.794 236.369 345.794 238.882C344.617 239.621 343.402 239.764 342.3 239.49C342.106 239.752 341.912 240.013 341.727 240.28C343.321 241.576 344.76 243.054 345.997 244.693C349.718 244.135 353.461 243.873 357.204 243.865C361.777 241.622 367.254 241.669 372.17 242.509C375.335 243.05 378.373 244.101 381.487 244.857C384.769 245.651 388.103 245.681 391.423 246.221C395.609 246.901 399.28 248.836 401.588 251.923C404.124 251.999 406.791 253.038 409.002 254.448C414.15 257.734 419.268 261.066 424.403 264.373C426.374 265.642 427.111 267.669 426.748 269.929L426.724 270.074L426.551 271.011L426.957 271.588C428.528 273.81 430.238 276.136 431.255 278.588C433.137 281.303 434.838 284.15 436.344 287.085C438.374 291.029 440.049 295.21 441.184 299.501C441.466 300.586 441.749 301.68 441.935 302.786C442.201 304.349 441.791 305.561 441.568 307.06C441.289 308.961 441.188 310.886 440.893 312.791C440.694 314.054 439.623 314.675 438.5 314.708C438.922 317.922 439.226 321.157 439.517 324.367C439.926 328.953 440.205 333.552 440.445 338.151C441.686 339.954 444.222 341.382 446.053 341.876C448.589 342.556 451.247 341.817 453.644 340.951C455.15 340.406 456.387 342.302 455.652 343.569C453.344 347.548 448.407 347.531 444.669 345.77C443.087 345.026 441.699 343.95 440.669 342.547C440.732 343.882 440.8 345.216 440.867 346.555L440.93 347.768C441.69 361.929 443.331 376.577 440.673 390.598C436.07 414.886 415.988 433.379 391.457 434.815C378.584 435.569 367.865 431.763 362.534 429.64C357.204 427.517 359.275 423.189 362.976 424.426C369.351 426.558 381.061 429.733 391.542 428.362C416.242 425.13 437.188 412.773 435.036 359.554C434.731 352.007 433.791 344.456 433.589 336.91C433.395 329.532 433.466 322.15 433.141 314.776L433.033 312.26C432.906 309.32 432.771 306.367 432.551 303.424C432.285 302.284 432.065 301.127 431.741 300.008C430.859 296.963 429.707 294.002 428.276 291.177C427.96 291.418 427.605 291.591 427.221 291.658C424.306 292.182 421.572 292.034 418.842 290.818C417.567 290.256 416.445 289.509 415.399 288.584C414.901 288.149 414.567 287.727 414.306 287.287C412.985 287.309 411.664 286.912 410.837 285.961C409.894 284.878 409.737 283.76 410.107 282.724L410.145 282.621L410.052 282.587C408.939 285.471 406.719 288.01 404.284 289.724C400.436 292.444 395.622 293.229 391.006 293.301C385.909 293.377 380.533 292.592 375.503 291.789C374.174 291.578 372.854 291.337 371.558 291.012C371.508 291.063 371.457 291.122 371.402 291.173C367.086 295.307 361.014 296.371 355.537 294.011C352.372 292.647 349.718 290.451 347.372 287.934C347.338 289.251 347.271 290.569 347.157 291.874L347.11 292.392C346.876 294.822 346.427 297.4 344.592 299.155C341.625 301.997 337.321 300.856 333.899 299.007C333.904 299.095 333.904 299.188 333.904 299.281C334.828 302.423 335.756 305.569 336.684 308.716L336.884 309.386C337.559 311.62 338.3 313.857 338.503 316.195C338.891 320.663 335.921 325.076 330.958 323.577C328.356 322.793 326.27 320.603 324.27 318.849L323.009 317.757C326.271 328.429 328.532 339.481 328.743 350.618C328.756 351.222 328.237 351.678 327.663 351.699C326.321 351.754 324.878 351.488 323.528 350.951C323.452 350.947 323.376 350.943 323.296 350.93C320.992 350.597 318.853 349.765 316.967 348.536C317.401 349.917 317.595 351.399 317.481 352.949C317.452 353.325 316.865 353.456 316.781 353.042C315.692 347.683 309.426 343.633 304.026 344.659C298.228 345.761 293.958 350.753 292.911 356.433C291.789 362.536 293.937 369.592 297.916 374.301C299.747 376.472 302.156 378.284 305.017 378.74C306.325 378.947 307.684 378.875 308.954 378.503C309.494 378.343 310 378.119 310.515 377.908C311.266 377.604 312.144 377.557 312.853 377.236C314.46 376.514 316.076 377.997 315.262 379.648C314.553 381.088 313.916 382.059 312.739 382.803C313.692 383.968 314.557 385.59 314.878 386.025C316.515 388.238 318.178 390.328 320.043 392.351C321.941 394.404 324.013 396.279 326.203 398.014L327.124 398.742C329.233 400.417 331.07 401.968 332.558 404.37C333.731 406.266 332.212 408.838 330.013 408.809C323.136 408.712 318.135 402.664 314.574 397.381C314.068 396.625 313.591 395.827 313.148 395.007C312.988 395.265 312.81 395.506 312.612 395.725L313.005 396.781C314.169 399.889 309.152 401.921 307.696 399.019C306.637 396.916 305.41 394.915 304.042 393.023C303.237 392.909 302.447 392.419 302.009 391.785C300.899 390.176 299.654 388.55 298.604 386.836C298.021 386.282 297.422 385.75 296.81 385.231C296.633 385.387 296.452 385.543 296.279 385.708C295.511 387.461 294.561 389.061 293.384 390.569L293.132 390.891C290.876 393.735 287.939 396.647 284.304 397.343C283.194 397.554 282.126 396.173 283.11 395.29C285.654 393.001 288.662 391.443 291.008 388.888C292.164 387.629 293.226 386.243 294.138 384.79L294.346 384.454C294.498 384.205 294.654 383.955 294.814 383.702C293.755 382.98 292.696 382.254 291.637 381.527C288.722 384.02 284.925 385.161 281.7 387.226L281.38 387.435C278.464 389.386 275.392 385.07 277.73 382.701C280.307 380.099 282.458 376.997 284.74 374.105C283.667 372.126 283.159 369.786 282.969 367.421C282.894 366.751 282.835 366.081 282.776 365.412C281.139 365.437 279.494 364.875 278.101 363.908L277.574 363.532C275.882 364.073 274.105 364.335 272.405 364.288C268.405 364.17 266.768 359.596 269.27 356.703C271.823 353.747 276.291 353.101 279.831 354.537C279.945 354.478 280.063 354.414 280.177 354.351C280.008 353.574 280.046 352.869 280.238 352.25L280.182 351.873C279.404 350.677 278.892 349.312 278.698 347.87C278.544 346.727 278.575 345.595 278.84 344.467C278.927 344.092 279.11 343.703 279.25 343.311C278.962 342.584 278.793 341.832 278.74 341.076C278.66 340.981 278.58 340.882 278.504 340.776C276.747 338.307 277.102 335.333 278.774 333.335C278.781 333.208 278.793 333.081 278.81 332.955C278.713 332.734 278.623 332.512 278.541 332.287C276.907 330.638 275.708 328.653 275.932 326.194C276.063 324.747 276.657 323.445 277.556 322.471C277.397 321.999 277.382 321.452 277.575 320.996C276.14 317.176 276.321 312.574 277.354 308.302C277.126 307.651 277.008 306.946 277.034 306.199C277.152 303.027 279.894 300.113 283.143 300.151C283.535 300.155 283.901 300.206 284.253 300.28L284.257 300.205C284.382 299.253 284.643 298.373 285.025 297.584C284.837 297.516 284.664 297.418 284.511 297.289C282.429 298.4 280.226 299.25 277.917 299.829C276.218 300.255 274.479 298.323 275.534 296.727C276.024 295.987 276.565 295.322 277.147 294.715C276.319 294.719 275.479 294.776 274.628 294.885C273.101 295.083 271.396 294.04 270.405 292.63C269.173 293.829 267.936 295.024 266.7 296.219C263.569 299.256 258.839 297.022 258.346 293.018C257.413 292.769 256.544 292.347 255.78 291.743C250.843 293.888 245.531 295.066 240.101 295.29C236.202 295.451 233.923 290.907 235.746 287.697C236.97 285.543 238.489 283.609 240.24 281.928C237.522 282.76 234.716 283.36 231.851 283.744C230.303 283.951 228.113 282.667 227.493 281.244C225.121 275.771 225.324 270.065 228.054 264.74C228.159 264.529 228.278 264.326 228.391 264.123C228.674 263.418 228.982 262.721 229.316 262.037C225.957 258.532 225.666 253.321 227.476 248.958C226.75 247.78 226.472 246.361 226.965 245.077C228.37 241.382 230.396 237.969 232.953 235.039C232.708 234.566 232.493 234.063 232.311 233.522C230.873 229.151 232.539 223.877 235.902 220.832C238.016 218.915 240.447 217.766 243.041 217.031C244.134 215.097 245.539 213.353 247.177 211.883C247.24 211.744 247.303 211.604 247.375 211.465C249.923 206.659 254.565 204.083 259.54 203.487C259.734 201.608 261 199.813 262.839 199.23C263.346 197.605 264.101 196.05 265.139 194.64C266.772 192.418 269.485 191.371 272.042 192.828C273.443 193.626 274.785 194.543 276.042 195.556C276.607 195.291 277.247 195.12 277.969 195.065L278.152 195.054L282.312 194.843C284.055 194.07 285.793 193.259 287.536 192.469C288.582 191.603 289.751 190.881 291.025 190.345C292.468 189.741 293.945 189.399 295.426 189.285C296.629 188.892 297.84 188.546 299.072 188.276C301.966 187.642 304.996 187.287 308 187.317C308.062 186.539 308.092 185.751 308.086 184.954L308.08 184.555C308.013 182 310.051 179.96 312.452 179.597ZM309.532 384.019C309.119 384.107 308.701 384.179 308.284 384.23C308.41 384.542 308.537 384.855 308.659 385.167C308.997 385.357 309.338 385.539 309.68 385.708C309.579 385.134 309.52 384.555 309.532 384.019ZM287.855 377.571L287.575 378.088C287.529 378.173 287.485 378.256 287.441 378.338C288.036 378.292 288.635 378.305 289.225 378.372L289.224 378.309C289.148 378.284 289.072 378.26 288.999 378.224C288.592 378.029 288.213 377.809 287.855 377.571ZM299.572 353.984C303.305 354.201 306.468 354.774 309.863 356.409L310.154 356.551C313.154 358.042 318.117 360.796 317.699 364.744C317.581 365.868 316.766 367.05 315.484 366.961C311.969 366.721 309.96 363.173 307.581 360.96C305.18 358.731 302.23 356.437 299.323 354.904C298.912 354.689 299.074 354.005 299.521 353.983L299.572 353.984ZM282.647 301.959C281.75 301.988 282.05 302.86 282.511 302.132C282.549 302.073 282.596 302.014 282.647 301.959ZM330.931 243.881C322.459 244.104 313.933 249.11 307.586 254.171C302.065 258.574 297.298 263.81 293.076 269.455C291.99 272.266 291.057 275.135 290.27 278.026C289.751 279.935 289.426 281.865 288.991 283.79L288.856 284.381C288.515 285.019 288.261 285.707 288.076 286.416C288.846 287.188 289.844 287.741 290.942 288.004C291.296 288.088 291.59 288.271 291.823 288.513C292.707 287.036 293.48 285.477 293.93 283.824L293.947 283.747C295.647 280.961 297.493 278.26 299.472 275.652C304.932 268.452 310.945 261.889 318.173 256.429C323.654 252.29 329.781 249.047 336.296 246.939C334.701 245.652 332.89 244.633 330.931 243.881Z" fill="black"/>
<path fill-rule="evenodd" clip-rule="evenodd" d="M407.302 400.476C404.194 401.377 400.858 401.458 397.689 400.527C394.815 399.683 391.865 397.826 389.75 395.368C387.871 393.184 386.654 390.531 386.702 387.698C386.707 387.374 386.823 387.104 387 386.895C387.192 386.669 387.459 386.514 387.745 386.447C388.04 386.378 388.351 386.402 388.616 386.523C388.856 386.632 389.062 386.817 389.191 387.088C389.516 387.516 389.839 387.937 390.165 388.346C392.778 391.576 395.309 393.99 399.239 394.856C401.371 395.325 403.501 395.117 405.455 394.4C407.547 393.633 409.437 392.284 410.919 390.557C411.589 389.777 412.379 389.459 413.152 389.453C414.028 389.447 414.894 389.855 415.546 390.506C416.187 391.146 416.617 392.015 416.656 392.925C416.69 393.724 416.43 394.558 415.737 395.302C413.456 397.753 410.501 399.549 407.302 400.476ZM407.21 360.022C410.396 361.961 415.251 366.481 411.823 371.286C407.788 375.524 401.979 370.665 399.117 368.468C396.462 366.765 393.48 371.145 395.943 373.133C416.628 388.461 425.023 360.529 408.821 357.743C407.037 357.436 406.375 359.422 407.21 360.022ZM377.403 351.493C376.379 350.837 375.175 350.612 373.84 351.22C372.796 351.695 370.966 353.278 369.693 355.359C368.822 356.783 368.204 358.453 368.332 360.193C368.362 360.597 368.213 360.895 367.978 361.115C367.792 361.289 367.524 361.417 367.208 361.457C366.941 361.491 366.641 361.46 366.398 361.384C365.934 361.239 365.689 360.938 365.597 360.693C364.705 358.323 365.089 355.678 366.088 353.292C367.437 350.071 369.886 347.374 371.491 346.504C374.237 345.016 377.476 344.947 380.226 346.464C382.567 347.755 384.03 349.839 385.486 351.963C385.795 352.414 386.102 352.863 386.42 353.303C387.056 354.185 387.119 355.061 386.873 355.811C386.6 356.642 385.904 357.344 385.034 357.711C384.23 358.051 383.296 358.098 382.47 357.75C381.772 357.455 381.132 356.881 380.727 355.907C380.044 354.266 378.907 352.455 377.403 351.493ZM429.412 355.143C428.711 355.509 428.162 355.619 427.384 355.386C426.954 355.257 426.528 355.009 426.196 354.676C425.866 354.345 425.628 353.935 425.535 353.479C425.307 352.355 424.693 351.302 423.817 350.616C423.068 350.03 422.123 349.719 421.075 349.894C419.944 350.083 418.867 350.809 418.125 351.665C417.877 351.952 417.682 352.277 417.487 352.6C417.121 353.204 416.766 353.766 416.261 354.21C416.07 354.378 415.782 354.495 415.503 354.495C415.39 354.495 415.275 354.477 415.165 354.443C414.039 353.312 413.823 352.454 413.859 351.603C413.897 350.711 414.249 349.807 414.817 348.964C416.149 346.987 418.679 345.366 420.386 344.999C422.723 344.496 425.045 345.1 426.907 346.406C428.822 347.751 430.241 349.839 430.684 352.192C430.79 352.758 430.745 353.37 430.529 353.9C430.318 354.418 429.951 354.862 429.412 355.143ZM382.557 330.412C381.154 331.78 379.494 331.992 377.814 332.18C376.881 332.286 376.135 332.371 375.402 332.537C373.387 332.992 371.395 333.678 369.577 334.665C367.677 335.698 365.607 336.943 364.117 338.538C363.763 338.918 363.429 339.316 363.095 339.715C362.79 340.079 362.496 340.429 362.187 340.767C361.831 341.155 361.494 341.562 361.158 341.968C360.95 342.31 360.909 342.394 360.868 342.482C360.805 342.614 360.731 342.761 360.648 342.919C360.533 343.136 360.399 343.373 360.259 343.588C360.025 343.981 359.9 344.089 359.792 344.137C359.612 344.217 359.441 344.257 359.276 344.235C359.121 344.215 358.975 344.141 358.83 344.019C358.11 343.41 357.898 342.41 357.919 341.349C357.953 339.739 358.546 337.956 359.093 336.86C360.365 334.314 362.129 331.666 364.25 329.766C366.67 327.596 369.318 325.954 372.359 324.822C374.249 324.119 376.438 323.473 378.497 323.555C379.979 323.613 381.394 324.054 382.563 325.156C383.28 325.832 383.624 326.793 383.624 327.754C383.624 328.734 383.267 329.72 382.557 330.412ZM432.267 342.94C432.177 343.086 432.054 343.187 431.916 343.248C431.772 343.311 431.612 343.329 431.457 343.303C431.304 343.277 431.158 343.208 431.042 343.101C430.931 342.999 430.846 342.864 430.808 342.698C429.877 338.603 428.068 335.557 424.208 333.592C422.309 332.626 420.125 332.012 418.058 331.522C417.457 331.38 416.823 331.288 416.184 331.194C414.18 330.902 412.162 330.566 410.856 328.946C410.069 327.969 409.739 326.721 409.926 325.579C410.102 324.504 410.729 323.518 411.87 322.927C414.711 321.457 418.241 322.9 421.11 324.129C421.323 324.22 421.532 324.309 421.736 324.395C424.542 325.581 427.1 327.145 429.203 329.382C430.872 331.157 432.418 333.781 433.041 336.481C433.559 338.726 433.437 341.019 432.267 342.94Z" fill="black"/>
<path d="M328.228 547.571C327.544 547.183 326.839 546.841 326.112 546.545C325.499 546.291 324.807 546.061 324.037 545.856C323.289 545.628 322.555 545.523 321.835 545.542C321.249 545.557 320.778 545.66 320.421 545.849C320.087 546.038 319.924 546.347 319.932 546.775C319.938 547.09 320.045 547.346 320.251 547.544C320.458 547.741 320.755 547.925 321.141 548.095C321.527 548.243 321.991 548.388 322.535 548.532C323.101 548.675 323.735 548.849 324.438 549.056C325.548 549.365 326.546 549.711 327.432 550.093C328.34 550.475 329.116 550.939 329.757 551.485C330.398 552.009 330.895 552.661 331.248 553.44C331.601 554.22 331.789 555.173 331.811 556.299C331.839 557.74 331.592 558.963 331.071 559.968C330.572 560.95 329.889 561.746 329.023 562.354C328.178 562.963 327.207 563.416 326.109 563.715C325.033 563.992 323.943 564.144 322.84 564.173C321.961 564.196 321.059 564.152 320.134 564.041C319.208 563.931 318.281 563.763 317.353 563.54C316.447 563.316 315.563 563.046 314.701 562.731C313.861 562.415 313.077 562.052 312.348 561.643L315.073 555.792C315.87 556.267 316.701 556.684 317.564 557.045C318.291 557.364 319.108 557.646 320.014 557.893C320.942 558.139 321.879 558.25 322.825 558.225C323.546 558.206 324.039 558.103 324.306 557.915C324.595 557.705 324.736 557.442 324.73 557.127C324.724 556.789 324.572 556.511 324.275 556.294C323.999 556.053 323.613 555.849 323.114 555.682C322.615 555.515 322.037 555.35 321.38 555.187C320.746 555.023 320.067 554.827 319.341 554.598C318.276 554.266 317.356 553.907 316.583 553.521C315.809 553.114 315.169 552.657 314.664 552.152C314.158 551.625 313.774 551.026 313.513 550.357C313.275 549.688 313.147 548.913 313.13 548.035C313.104 546.706 313.318 545.529 313.771 544.503C314.247 543.477 314.895 542.615 315.715 541.917C316.535 541.219 317.471 540.688 318.522 540.322C319.596 539.933 320.73 539.723 321.923 539.692C322.802 539.669 323.659 539.737 324.496 539.895C325.332 540.031 326.136 540.224 326.906 540.474C327.699 540.701 328.437 540.963 329.118 541.261C329.8 541.536 330.413 541.801 330.959 542.057L328.228 547.571ZM343.181 563.673C341.627 563.713 340.238 563.513 339.012 563.072C337.787 562.609 336.749 561.971 335.9 561.16C335.073 560.348 334.435 559.407 333.986 558.337C333.537 557.267 333.301 556.136 333.278 554.942C333.253 553.658 333.432 552.437 333.815 551.277C334.22 550.117 334.82 549.099 335.614 548.222C336.43 547.344 337.431 546.642 338.614 546.115C339.82 545.565 341.223 545.269 342.821 545.227C344.398 545.186 345.799 545.408 347.025 545.894C348.251 546.358 349.277 547.007 350.104 547.841C350.954 548.653 351.592 549.616 352.019 550.731C352.469 551.824 352.705 552.978 352.729 554.194C352.736 554.532 352.72 554.882 352.682 555.243C352.666 555.582 352.638 555.887 352.598 556.158L340.134 556.486C340.22 557.43 340.583 558.107 341.222 558.519C341.86 558.908 342.551 559.092 343.294 559.073C343.992 559.054 344.642 558.88 345.244 558.548C345.868 558.216 346.276 557.766 346.468 557.198L351.936 558.609C351.243 560.047 350.151 561.236 348.66 562.177C347.192 563.116 345.365 563.615 343.181 563.673ZM345.802 552.483C345.672 551.631 345.344 550.963 344.816 550.481C344.289 549.999 343.62 549.769 342.809 549.79C341.998 549.812 341.339 550.077 340.831 550.586C340.322 551.095 340.02 551.779 339.924 552.638L345.802 552.483ZM366.828 550.41C365.59 550.443 364.466 550.607 363.458 550.904C362.45 551.201 361.705 551.671 361.221 552.315L361.427 562.855L355.009 563.024L354.663 545.254L360.54 545.1L360.606 548.478C361.213 547.268 361.972 546.335 362.883 545.68C363.816 545.002 364.823 544.649 365.904 544.621C366.332 544.609 366.602 544.614 366.716 544.633L366.828 550.41ZM373.452 562.539L367.127 544.927L373.714 544.754L377.137 557.406L380.098 544.586L386.077 544.429L380.444 562.356L373.452 562.539ZM388.094 562.155L387.748 544.385L394.165 544.216L394.512 561.986L388.094 562.155ZM387.719 542.898L387.613 537.493L394.031 537.325L394.137 542.73L387.719 542.898ZM396.606 553.042C396.582 551.825 396.774 550.66 397.18 549.545C397.586 548.408 398.186 547.412 398.981 546.557C399.797 545.679 400.809 544.977 402.015 544.449C403.221 543.899 404.612 543.604 406.188 543.562C408.35 543.506 410.16 543.909 411.619 544.772C413.1 545.634 414.215 546.765 414.963 548.165L408.751 550.221C408.126 549.359 407.296 548.941 406.26 548.969C405.382 548.992 404.645 549.349 404.05 550.041C403.455 550.71 403.169 551.652 403.193 552.868C403.217 554.085 403.539 555.023 404.16 555.682C404.781 556.319 405.53 556.627 406.409 556.603C407.444 556.576 408.258 556.115 408.849 555.221L415.134 556.949C414.441 558.387 413.372 559.575 411.926 560.515C410.502 561.453 408.709 561.951 406.548 562.008C404.971 562.049 403.57 561.838 402.345 561.375C401.119 560.889 400.081 560.24 399.231 559.428C398.404 558.594 397.766 557.63 397.316 556.538C396.867 555.423 396.63 554.258 396.606 553.042ZM425.844 561.501C424.29 561.542 422.9 561.342 421.675 560.901C420.449 560.437 419.412 559.8 418.563 558.988C417.736 558.176 417.098 557.235 416.649 556.165C416.2 555.096 415.964 553.964 415.941 552.77C415.916 551.486 416.095 550.265 416.477 549.106C416.883 547.946 417.483 546.927 418.277 546.05C419.093 545.172 420.093 544.47 421.277 543.943C422.483 543.393 423.885 543.097 425.484 543.055C427.06 543.014 428.462 543.236 429.688 543.722C430.913 544.186 431.94 544.835 432.767 545.67C433.617 546.481 434.255 547.444 434.682 548.56C435.132 549.652 435.368 550.806 435.392 552.023C435.398 552.36 435.383 552.71 435.345 553.072C435.329 553.41 435.301 553.715 435.261 553.986L422.797 554.314C422.883 555.258 423.246 555.936 423.884 556.347C424.523 556.736 425.214 556.921 425.957 556.901C426.655 556.883 427.305 556.708 427.907 556.377C428.531 556.045 428.939 555.595 429.131 555.026L434.599 556.437C433.906 557.875 432.814 559.064 431.323 560.005C429.854 560.945 428.028 561.443 425.844 561.501ZM428.464 550.312C428.335 549.459 428.007 548.792 427.479 548.31C426.952 547.828 426.282 547.597 425.472 547.619C424.661 547.64 424.002 547.905 423.493 548.414C422.985 548.923 422.683 549.607 422.587 550.466L428.464 550.312ZM314.797 604.093L314.33 580.107L323.551 579.865C325.533 579.813 327.284 580.082 328.805 580.673C330.326 581.264 331.604 582.087 332.638 583.141C333.672 584.196 334.463 585.448 335.009 586.899C335.555 588.326 335.844 589.862 335.876 591.506C335.912 593.331 335.651 594.994 335.095 596.496C334.561 597.974 333.774 599.257 332.737 600.343C331.699 601.407 330.442 602.251 328.967 602.876C327.492 603.478 325.842 603.803 324.018 603.851L314.797 604.093ZM329.188 591.682C329.17 590.759 329.03 589.917 328.768 589.158C328.505 588.399 328.132 587.755 327.648 587.227C327.188 586.699 326.616 586.297 325.935 586.022C325.254 585.724 324.496 585.586 323.663 585.608L321.028 585.677L321.272 598.177L323.906 598.108C324.762 598.085 325.525 597.908 326.194 597.574C326.864 597.241 327.418 596.787 327.857 596.213C328.319 595.637 328.655 594.964 328.866 594.192C329.098 593.42 329.206 592.583 329.188 591.682ZM347.292 603.577C345.738 603.618 344.348 603.418 343.123 602.977C341.898 602.514 340.86 601.876 340.011 601.065C339.184 600.253 338.546 599.312 338.097 598.242C337.648 597.172 337.412 596.04 337.389 594.847C337.364 593.563 337.543 592.341 337.926 591.182C338.331 590.022 338.931 589.004 339.725 588.127C340.541 587.249 341.541 586.547 342.725 586.02C343.931 585.47 345.333 585.174 346.932 585.132C348.509 585.091 349.91 585.313 351.136 585.799C352.361 586.262 353.388 586.912 354.215 587.746C355.065 588.557 355.703 589.521 356.13 590.636C356.58 591.729 356.816 592.883 356.84 594.099C356.846 594.437 356.831 594.787 356.793 595.148C356.777 595.487 356.749 595.792 356.709 596.063L344.245 596.39C344.331 597.335 344.694 598.012 345.333 598.424C345.971 598.812 346.662 598.997 347.405 598.978C348.103 598.959 348.753 598.784 349.355 598.453C349.979 598.121 350.387 597.671 350.579 597.103L356.047 598.514C355.354 599.952 354.262 601.141 352.771 602.081C351.302 603.021 349.476 603.52 347.292 603.577ZM349.912 592.388C349.783 591.535 349.455 590.868 348.927 590.386C348.4 589.904 347.73 589.674 346.92 589.695C346.109 589.717 345.45 589.982 344.941 590.491C344.433 591 344.131 591.684 344.035 592.543L349.912 592.388ZM366.456 603.074C364.902 603.115 363.378 602.907 361.882 602.451C360.385 601.972 359.11 601.261 358.055 600.32L360.176 596.411C361.294 597.126 362.363 597.672 363.384 598.051C364.428 598.429 365.378 598.607 366.234 598.584C367.134 598.561 367.579 598.267 367.568 597.704C367.562 597.389 367.377 597.123 367.012 596.908C366.67 596.691 365.989 596.45 364.97 596.184C363.702 595.857 362.637 595.535 361.775 595.22C360.934 594.882 360.24 594.517 359.692 594.126C359.166 593.734 358.786 593.293 358.551 592.804C358.316 592.314 358.192 591.731 358.179 591.056C358.161 590.155 358.325 589.317 358.671 588.542C359.016 587.766 359.498 587.089 360.118 586.509C360.76 585.929 361.517 585.481 362.39 585.165C363.284 584.826 364.261 584.643 365.319 584.615C366.625 584.581 367.867 584.717 369.045 585.024C370.245 585.331 371.452 585.986 372.665 586.991L370.308 590.906C369.191 590.214 368.258 589.732 367.509 589.459C366.76 589.163 366.059 589.024 365.406 589.041C365.023 589.051 364.709 589.138 364.464 589.302C364.219 589.444 364.1 589.672 364.106 589.987C364.113 590.325 364.298 590.602 364.663 590.818C365.027 591.011 365.741 591.229 366.805 591.471C368.095 591.775 369.183 592.107 370.068 592.467C370.954 592.804 371.66 593.192 372.186 593.628C372.735 594.042 373.128 594.528 373.364 595.085C373.599 595.619 373.724 596.247 373.738 596.968C373.756 597.891 373.603 598.717 373.28 599.447C372.956 600.177 372.473 600.809 371.83 601.344C371.209 601.879 370.44 602.293 369.522 602.588C368.627 602.882 367.605 603.044 366.456 603.074ZM376.042 602.484L375.695 584.714L382.113 584.546L382.459 602.316L376.042 602.484ZM375.666 583.228L375.561 577.823L381.979 577.654L382.084 583.059L375.666 583.228ZM392.53 602.051C391.381 602.081 390.318 601.884 389.341 601.459C388.386 601.011 387.563 600.401 386.873 599.631C386.181 598.838 385.634 597.906 385.23 596.835C384.848 595.763 384.645 594.597 384.621 593.335C384.595 592.007 384.774 590.774 385.157 589.637C385.54 588.5 386.085 587.517 386.789 586.687C387.517 585.857 388.383 585.203 389.387 584.726C390.391 584.227 391.501 583.961 392.717 583.929C394.001 583.895 395.132 584.125 396.11 584.617C397.088 585.087 397.868 585.799 398.45 586.753L398.398 584.118L403.972 583.971L404.286 600.12C404.314 601.516 404.079 602.784 403.583 603.924C403.087 605.063 402.374 606.04 401.444 606.853C400.513 607.666 399.388 608.304 398.068 608.767C396.748 609.252 395.277 609.516 393.656 609.559C391.764 609.608 390.115 609.359 388.707 608.81C387.3 608.261 386.045 607.449 384.942 606.374L388.252 602.772C388.917 603.363 389.703 603.849 390.612 604.231C391.544 604.634 392.527 604.823 393.563 604.795C394.149 604.78 394.699 604.687 395.214 604.515C395.751 604.344 396.219 604.072 396.617 603.701C397.016 603.353 397.322 602.894 397.537 602.325C397.773 601.755 397.884 601.077 397.869 600.288L397.846 599.14C397.347 600.099 396.617 600.817 395.658 601.293C394.721 601.768 393.678 602.021 392.53 602.051ZM394.728 596.923C395.381 596.906 395.941 596.745 396.408 596.44C396.897 596.111 397.35 595.637 397.766 595.018L397.704 591.843C397.373 591.04 396.888 590.411 396.248 589.954C395.631 589.497 394.984 589.278 394.309 589.295C393.858 589.307 393.433 589.431 393.032 589.667C392.653 589.88 392.321 590.17 392.035 590.538C391.749 590.884 391.532 591.306 391.384 591.806C391.235 592.283 391.166 592.792 391.177 593.332C391.198 594.436 391.542 595.317 392.209 595.975C392.875 596.634 393.714 596.95 394.728 596.923ZM425.445 601.186L419.027 601.355L418.832 591.355C418.815 590.477 418.6 589.851 418.187 589.479C417.796 589.084 417.342 588.893 416.824 588.907C416.284 588.921 415.714 589.172 415.115 589.661C414.517 590.15 414.078 590.77 413.8 591.521L413.994 601.487L407.576 601.656L407.23 583.886L413.006 583.734L413.057 586.369C413.669 585.384 414.533 584.629 415.649 584.104C416.788 583.556 418.134 583.261 419.687 583.221C420.903 583.189 421.865 583.389 422.572 583.821C423.301 584.23 423.852 584.756 424.225 585.4C424.62 586.043 424.881 586.735 425.008 587.475C425.136 588.215 425.205 588.889 425.217 589.497L425.445 601.186ZM314.021 631.925C313.993 630.461 314.235 629.012 314.748 627.579C315.283 626.145 316.069 624.852 317.105 623.698C318.142 622.544 319.408 621.598 320.903 620.86C322.398 620.122 324.114 619.728 326.05 619.677C328.37 619.616 330.383 620.048 332.091 620.972C333.821 621.873 335.118 623.101 335.982 624.655L331.019 628.368C330.782 627.789 330.469 627.312 330.078 626.94C329.71 626.566 329.299 626.273 328.844 626.059C328.39 625.846 327.914 625.701 327.417 625.624C326.942 625.546 326.479 625.513 326.029 625.525C325.083 625.55 324.265 625.763 323.575 626.164C322.906 626.542 322.352 627.041 321.914 627.661C321.497 628.258 321.184 628.942 320.974 629.714C320.786 630.462 320.699 631.208 320.713 631.951C320.73 632.785 320.869 633.581 321.132 634.34C321.394 635.1 321.768 635.766 322.252 636.339C322.736 636.912 323.32 637.37 324.002 637.713C324.707 638.032 325.487 638.181 326.343 638.158C326.793 638.146 327.254 638.089 327.725 637.987C328.196 637.861 328.643 637.681 329.066 637.444C329.512 637.185 329.9 636.87 330.231 636.501C330.584 636.109 330.856 635.64 331.048 635.094L336.481 638.162C336.138 639.05 335.602 639.853 334.872 640.57C334.165 641.287 333.344 641.895 332.407 642.393C331.493 642.89 330.498 643.277 329.422 643.553C328.368 643.828 327.335 643.979 326.322 644.006C324.543 644.053 322.903 643.747 321.403 643.087C319.926 642.405 318.635 641.493 317.531 640.35C316.45 639.207 315.602 637.899 314.988 636.428C314.373 634.957 314.051 633.456 314.021 631.925ZM337.876 618.826L344.293 618.657L344.636 636.258C344.663 637.609 345.228 638.27 346.331 638.241C346.601 638.234 346.893 638.181 347.207 638.083C347.52 637.985 347.81 637.853 348.078 637.688L348.98 642.397C348.222 642.777 347.36 643.081 346.396 643.31C345.454 643.537 344.555 643.662 343.7 643.685C341.988 643.73 340.662 643.325 339.722 642.471C338.782 641.617 338.295 640.357 338.263 638.69L337.876 618.826ZM355.875 643.365C354.074 643.412 352.69 642.908 351.723 641.851C350.756 640.773 350.252 639.186 350.211 637.092L349.983 625.403L356.401 625.234L356.6 635.47C356.616 636.259 356.796 636.862 357.142 637.281C357.511 637.7 357.999 637.901 358.607 637.885C359.103 637.872 359.607 637.746 360.121 637.507C360.634 637.268 361.143 636.759 361.646 635.98L361.434 625.102L367.851 624.933L368.059 635.609C368.071 636.217 368.17 636.642 368.355 636.885C368.539 637.106 368.857 637.233 369.308 637.266L369.414 642.671C368.315 642.925 367.416 643.062 366.718 643.08C364.534 643.137 363.257 642.348 362.887 640.713L362.739 640.075C361.928 641.2 360.952 642.026 359.814 642.552C358.674 643.055 357.362 643.326 355.875 643.365ZM383.36 642.643C380.68 642.713 378.746 641.727 377.557 639.686L377.611 642.456L372.038 642.602L371.557 617.941L377.975 617.772L378.161 627.299C378.66 626.317 379.377 625.566 380.314 625.045C381.249 624.502 382.359 624.214 383.642 624.18C384.723 624.152 385.73 624.362 386.662 624.811C387.617 625.259 388.441 625.891 389.133 626.706C389.824 627.499 390.372 628.465 390.777 629.604C391.182 630.72 391.398 631.942 391.423 633.271C391.449 634.6 391.259 635.833 390.853 636.97C390.47 638.084 389.914 639.057 389.187 639.887C388.482 640.717 387.627 641.381 386.623 641.881C385.619 642.358 384.531 642.612 383.36 642.643ZM381.397 637.286C382.455 637.258 383.293 636.898 383.911 636.206C384.55 635.513 384.859 634.604 384.837 633.478C384.827 632.937 384.727 632.433 384.538 631.965C384.371 631.496 384.137 631.085 383.838 630.733C383.56 630.379 383.217 630.107 382.808 629.915C382.421 629.722 381.991 629.632 381.518 629.644C380.843 629.662 380.206 629.927 379.608 630.438C379.009 630.927 378.559 631.57 378.26 632.366L378.321 635.542C379.178 636.736 380.204 637.318 381.397 637.286Z" fill="white"/>
</svg>
