<svg width="54" height="54" viewBox="0 0 54 54" fill="none" xmlns="http://www.w3.org/2000/svg">
<path d="M17.6325 12.8679C18.9293 12.8679 20.0963 12.9802 21.1663 13.2092C22.2298 13.436 23.137 13.8103 23.9032 14.3277C24.6584 14.8451 25.2485 15.5321 25.6734 16.3952C26.0852 17.2473 26.2899 18.313 26.2899 19.5724C26.2899 20.9375 25.9817 22.078 25.363 22.9874C24.7399 23.8989 23.8217 24.6453 22.5975 25.2222C24.2643 25.7044 25.4995 26.5477 26.3185 27.7454C27.142 28.9542 27.5449 30.4008 27.5449 32.0962C27.5449 33.4723 27.2829 34.6547 26.7567 35.6477C26.2496 36.6259 25.5139 37.4673 24.6122 38.1005C23.6781 38.7509 22.6347 39.2282 21.5318 39.5096C20.3755 39.8131 19.1847 39.9656 17.9892 39.9632H4.85547V12.8679H17.6325ZM16.8596 23.8152C17.9165 23.8152 18.7928 23.5642 19.4842 23.0556C20.1711 22.5536 20.5036 21.7257 20.5036 20.5918C20.5036 19.9621 20.3913 19.4425 20.1711 19.0351C19.9566 18.6433 19.6391 18.3174 19.253 18.0928C18.8488 17.8531 18.4027 17.6924 17.9385 17.6194C17.4325 17.525 16.9186 17.48 16.4039 17.4851H10.8223V23.8152H16.8596ZM17.1921 35.3504C17.78 35.3504 18.3392 35.2998 18.8655 35.1809C19.3961 35.0664 19.8673 34.8814 20.268 34.6062C20.6687 34.342 20.999 33.9831 21.2368 33.5251C21.4768 33.0716 21.5935 32.4793 21.5935 31.7681C21.5935 30.3722 21.1994 29.3792 20.4199 28.7781C19.6383 28.1836 18.5903 27.8886 17.3066 27.8886H10.8223V35.3526H17.1921V35.3504ZM36.0505 35.2602C36.8585 36.0484 38.0233 36.4447 39.5381 36.4447C40.6236 36.4447 41.5616 36.1695 42.352 35.6234C43.1314 35.0752 43.607 34.4895 43.7898 33.884H48.5346C47.7728 36.2444 46.6169 37.9309 45.036 38.946C43.4749 39.9654 41.5748 40.4718 39.3554 40.4718C37.8097 40.4718 36.4182 40.223 35.172 39.7298C33.9758 39.264 32.8948 38.5443 32.0036 37.6205C31.127 36.6751 30.4494 35.5632 30.011 34.3508C29.529 33.0102 29.2904 31.5942 29.3064 30.1696C29.3064 28.7032 29.5508 27.3315 30.0308 26.0655C30.4864 24.8417 31.1861 23.7233 32.0872 22.7782C32.979 21.8534 34.0358 21.1246 35.2666 20.5896C36.5609 20.0453 37.9536 19.7739 39.3576 19.7926C41.0177 19.7926 42.4687 20.114 43.7149 20.7613C44.9234 21.3793 45.9713 22.2703 46.7754 23.3639C47.5746 24.4494 48.1449 25.6934 48.4994 27.0871C48.8539 28.4786 48.9772 29.9318 48.8759 31.4533H34.7162C34.7184 33.0033 35.2402 34.4719 36.0505 35.2602ZM42.2419 24.9536C41.6012 24.2446 40.5179 23.8615 39.1924 23.8615C38.3315 23.8615 37.6203 24.0046 37.0479 24.2996C36.5244 24.564 36.06 24.9318 35.6828 25.3807C35.3514 25.7883 35.1058 26.2586 34.9606 26.7634C34.8336 27.1844 34.7517 27.6176 34.7162 28.0559H43.4837C43.356 26.682 42.8848 25.6669 42.2419 24.9536ZM33.6153 14.6866H44.6V17.3618H33.6153V14.6866Z" fill="#E5E5E5"/>
</svg>
