<svg width="59" height="36" viewBox="0 0 59 36" fill="none" xmlns="http://www.w3.org/2000/svg">
<path d="M17.5188 0C19.2101 0 20.732 0.146447 22.1275 0.445083C23.5145 0.740848 24.6975 1.229 25.6968 1.90381C26.6817 2.57861 27.4513 3.47452 28.0055 4.60014C28.5425 5.71142 28.8095 7.10122 28.8095 8.74372C28.8095 10.524 28.4075 12.0115 27.6006 13.1974C26.788 14.3862 25.5906 15.3597 23.994 16.112C26.1677 16.7408 27.7787 17.8406 28.8469 19.4027C29.9208 20.9792 30.4463 22.8658 30.4463 25.0768C30.4463 26.8715 30.1046 28.4135 29.4183 29.7085C28.7569 30.9843 27.7975 32.0817 26.6214 32.9074C25.4033 33.7557 24.0426 34.3782 22.6042 34.7452C21.0961 35.141 19.5431 35.3399 17.984 35.3367H0.855469V0H17.5188ZM16.5109 14.2771C17.8892 14.2771 19.0321 13.9497 19.9337 13.2864C20.8296 12.6317 21.2632 11.552 21.2632 10.0732C21.2632 9.25198 21.1168 8.5743 20.8296 8.04307C20.5499 7.532 20.1358 7.10705 19.6322 6.81407C19.1051 6.50145 18.5233 6.29193 17.9179 6.1967C17.258 6.07363 16.5877 6.01497 15.9165 6.02154H8.63724V14.2771H16.5109V14.2771ZM16.9445 29.3209C17.7112 29.3209 18.4405 29.2548 19.1268 29.0998C19.8189 28.9505 20.4334 28.7093 20.956 28.3503C21.4786 28.0057 21.9093 27.5377 22.2194 26.9404C22.5324 26.3489 22.6846 25.5765 22.6846 24.649C22.6846 22.8284 22.1706 21.5334 21.1541 20.7495C20.1347 19.9742 18.7679 19.5894 17.0938 19.5894H8.63724V29.3238H16.9445V29.3209ZM41.5389 29.2032C42.5927 30.2312 44.1118 30.748 46.0873 30.748C47.503 30.748 48.7263 30.3891 49.7571 29.677C50.7736 28.962 51.3939 28.1981 51.6322 27.4085H57.8203C56.8268 30.4867 55.3192 32.6863 53.2575 34.0101C51.2216 35.3396 48.7435 36 45.849 36C43.8332 36 42.0184 35.6755 40.3932 35.0323C38.8332 34.4248 37.4234 33.4863 36.2611 32.2814C35.1179 31.0485 34.2342 29.5984 33.6624 28.0172C33.0338 26.2688 32.7226 24.4221 32.7435 22.5643C32.7435 20.6518 33.0622 18.8629 33.6882 17.2118C34.2824 15.6157 35.1949 14.1572 36.3702 12.9246C37.5331 11.7186 38.9115 10.7681 40.5166 10.0704C42.2046 9.36045 44.0209 9.00657 45.8519 9.03087C48.017 9.03087 49.9093 9.45011 51.5346 10.2943C53.1107 11.1002 54.4773 12.2623 55.526 13.6884C56.5683 15.1041 57.312 16.7265 57.7744 18.5442C58.2367 20.3589 58.3975 22.2541 58.2654 24.2383H39.7988C39.8016 26.2599 40.4822 28.1752 41.5389 29.2032V29.2032ZM49.6135 15.7617C48.7779 14.837 47.3652 14.3374 45.6365 14.3374C44.5138 14.3374 43.5863 14.5241 42.8397 14.9088C42.157 15.2536 41.5514 15.7333 41.0593 16.3187C40.6272 16.8503 40.3069 17.4637 40.1175 18.122C39.9519 18.671 39.845 19.2361 39.7988 19.8076H51.2331C51.0665 18.0158 50.452 16.692 49.6135 15.7617V15.7617ZM38.363 2.37186H52.6889V5.86073H38.363V2.37186Z" fill="#E5E5E5"/>
</svg>
