<svg width="37" height="36" viewBox="0 0 37 36" fill="none" xmlns="http://www.w3.org/2000/svg">
<path d="M34.765 0H2.73895C2.21197 0 1.70657 0.209344 1.33393 0.581979C0.961297 0.954613 0.751953 1.46002 0.751953 1.987V34.0135C0.752086 34.5404 0.961488 35.0457 1.33411 35.4182C1.70673 35.7907 2.21206 36 2.73895 36H19.9805V22.059H15.289V16.626H19.9805V12.619C19.9805 7.969 22.8205 5.4375 26.9685 5.4375C28.9555 5.4375 30.663 5.585 31.161 5.6515V10.511L28.284 10.5125C26.028 10.5125 25.5915 11.5845 25.5915 13.1575V16.6265H30.9715L30.271 22.0595H25.5915V36H34.7655C35.2924 35.9999 35.7976 35.7905 36.1702 35.4178C36.5427 35.0452 36.752 34.5399 36.752 34.013V1.987C36.752 1.46002 36.5426 0.954613 36.17 0.581979C35.7973 0.209344 35.2919 0 34.765 0V0Z" fill="#F2F2F2"/>
</svg>
