<svg width="33" height="33" viewBox="0 0 33 33" fill="none" xmlns="http://www.w3.org/2000/svg">
<path d="M30.7537 0.456543H2.50462C2.03979 0.456543 1.59399 0.641199 1.2653 0.969888C0.936609 1.29858 0.751953 1.74438 0.751953 2.20921V30.4588C0.75207 30.9235 0.936777 31.3692 1.26545 31.6978C1.59413 32.0264 2.03986 32.211 2.50462 32.211H17.7128V19.9141H13.5746V15.1218H17.7128V11.5874C17.7128 7.48574 20.2179 5.25279 23.8767 5.25279C25.6294 5.25279 27.1355 5.38289 27.5748 5.44155V9.72796L25.037 9.72928C23.0471 9.72928 22.6621 10.6749 22.6621 12.0624V15.1222H27.4076L26.7897 19.9145H22.6621V32.211H30.7542C31.2189 32.2109 31.6646 32.0262 31.9932 31.6975C32.3218 31.3688 32.5064 30.9231 32.5064 30.4583V2.20921C32.5064 1.74438 32.3217 1.29858 31.9931 0.969888C31.6644 0.641199 31.2186 0.456543 30.7537 0.456543Z" fill="#F2F2F2"/>
</svg>
