<svg width="361" height="462" viewBox="0 0 361 462" fill="none" xmlns="http://www.w3.org/2000/svg">
<rect x="-6.14062" width="371" height="438" fill="#FF8A00"/>
<path fill-rule="evenodd" clip-rule="evenodd" d="M174.339 194.162C178.354 192.871 182.969 193.021 187.088 193.351C191.271 193.687 195.76 194.262 199.685 196.075C203.097 197.652 205.975 200.303 207.728 204.102C209.17 207.225 209.846 210.65 210.269 214.129C210.443 215.553 210.588 216.98 210.726 218.408L211.009 221.38C211.12 222.517 211.217 223.369 211.412 224.636C211.951 228.143 212.701 231.073 214.376 233.624C218.431 239.801 225.054 241.868 231.076 244.504C234.93 246.191 237.982 249.226 238.828 254.102C239.645 258.806 270.703 298.271 273.752 301.598L273.836 301.688C276.201 304.161 275.923 308.809 276.254 312.202C276.608 315.841 276.946 319.482 277.267 323.124C277.917 330.524 278.497 337.932 279.006 345.347C280.995 374.344 281.897 403.442 281.706 432.53L281.694 434.176C281.664 437.868 281.688 441.576 281.545 445.264C281.408 448.808 280.484 452.356 277.656 454.207C275.035 455.923 271.722 455.772 268.793 455.943L268.618 455.953C265.475 456.153 262.332 456.317 259.187 456.452C246.405 457.001 233.611 457.061 220.822 456.992C195.449 456.857 170.052 456.209 144.703 457.859C138.242 458.279 117.642 455.724 111.201 456.452C105.045 457.148 110.327 460.654 106.524 460.423C94.0161 459.663 82.1519 456.422 70.1681 452.519C68.6711 452.032 67.5263 450.345 67.5452 448.521C67.7677 428.493 68.2547 408.47 69.0156 388.459C69.6934 370.634 70.5867 352.821 71.6947 335.025C72.1764 327.289 72.6987 319.557 73.2614 311.829L73.5051 308.518C73.8229 304.247 74.0058 299.898 74.729 295.686C75.4445 291.521 77.0676 287.909 79.4211 284.681C81.5329 281.786 105.443 259.119 111.201 254.828C116.713 250.72 122.501 247.255 128.159 243.447C130.513 241.864 132.774 242.434 134.786 240.489C135.846 239.465 151.23 232.559 155.381 230.28L155.503 230.212C158.68 228.443 161.603 226.524 163.798 223.464C164.534 222.438 165.977 215.975 165.98 213.91C165.985 210.221 165.744 206.335 166.703 202.762C167.849 198.489 170.611 195.36 174.339 194.162Z" fill="white"/>
<path fill-rule="evenodd" clip-rule="evenodd" d="M263.726 320.533C263.669 320.598 263.61 320.665 263.553 320.734C263.619 320.626 263.675 320.515 263.726 320.404V320.533ZM126.69 240.666C126.804 240.607 126.914 240.548 127.025 240.489C127.081 240.583 127.15 240.67 127.222 240.756C127.401 240.968 127.577 241.197 127.763 241.405C127.404 241.162 127.046 240.916 126.69 240.666ZM286.469 435.611C286.263 430.557 286.033 425.503 285.788 420.449C285.304 410.57 284.805 400.691 284.139 390.825C282.786 370.834 281.525 350.85 279.497 330.932C278.645 322.582 277.456 314.296 276.264 306.005C276.417 305.845 276.572 305.686 276.724 305.53C276.56 307.798 279.213 309.235 280.527 306.973C280.626 306.803 280.721 306.633 280.817 306.456C281.955 304.319 284.578 293.836 284.396 292.948C284.067 291.349 283.153 289.927 282.439 288.519C281.815 287.287 281.184 286.056 280.545 284.835C279.27 282.389 277.955 279.968 276.578 277.599C273.725 272.694 270.606 267.983 266.931 263.866C263.128 259.599 258.764 256.092 254.256 252.911C252.09 251.385 249.855 250.001 247.579 248.71C245.332 247.441 242.874 246.036 240.454 245.314C240.316 245.273 240.176 245.495 240.302 245.613C240.944 246.203 241.616 246.757 242.3 247.291C240.448 246.546 238.539 246.008 236.615 245.817C232.89 244.298 229.12 242.907 225.412 241.322C221.768 239.761 218.177 238.006 215.754 234.308C213.684 231.148 212.375 227.28 211.368 223.513C210.263 219.361 209.824 215.045 208.802 210.886C208.721 210.55 208.246 210.511 208.184 210.886C207.455 215.25 207.488 220.155 207.903 224.56C208.339 229.181 209.459 233.715 211.897 237.472C214.729 241.839 218.571 244.27 222.894 246.209C226.38 247.777 229.911 249.373 233.481 250.774C233.015 251.128 232.543 251.482 232.056 251.818C230.12 253.154 228.107 254.34 226.049 255.405C222.29 257.351 218.332 258.808 214.35 259.991C206.938 262.183 199.338 263.297 191.696 263.443C176.407 263.738 160.947 260.019 146.962 252.838C143.025 250.816 139.18 248.592 135.374 246.258C134.185 245.529 132.99 244.794 131.801 244.038C131.9 244.031 132.001 244.021 132.1 244.01C134.756 243.719 137.379 243.126 139.948 242.286C145.209 240.562 150.252 237.874 155.205 235.227C159.405 232.983 163.731 230.426 166.297 225.75C167.668 223.249 168.299 220.315 168.809 217.442C169.38 214.244 170.052 211.032 170.468 207.803C170.614 206.672 170.396 205.142 169.35 204.608C168.932 204.396 168.588 204.222 168.119 204.222C167.083 204.222 166.019 205.097 165.771 206.297C165.159 209.291 164.788 212.368 164.307 215.392C163.892 218.008 163.513 220.738 162.297 223.037C160.173 227.065 156.008 229.125 152.489 231.085C148.029 233.569 143.566 235.99 138.932 238.006C136.892 238.893 134.816 239.699 132.709 240.357C132.793 239.757 132.721 239.126 132.417 238.651C131.909 237.867 131.332 237.346 130.678 236.747C129.967 236.094 129.011 235.754 128.172 236.042C128.172 236.045 128.169 236.042 128.169 236.042C127.828 235.956 127.452 235.99 127.063 236.195C125.862 236.833 124.664 237.478 123.466 238.134C106.232 247.548 89.4874 258.607 76.8058 275.448C74.9775 277.876 73.2657 280.43 71.6614 283.062C70.102 285.619 68.1721 288.394 67.7419 291.564C67.7061 291.828 68.0377 291.95 68.0944 291.679C68.196 291.19 68.3334 290.711 68.5037 290.246C68.1482 291.689 68.1691 293.223 68.671 294.731C69.2655 296.507 70.3559 297.684 71.7331 298.152C70.3499 305.19 69.4208 312.322 68.674 319.533C67.6015 329.923 66.8397 340.336 66.2661 350.777C65.1189 371.615 64.6081 392.556 64.9785 413.432C65.0831 419.332 65.2564 425.233 65.5193 431.13C65.6507 434.078 65.7941 437.023 65.9584 439.971C66.1197 442.872 65.9883 446.066 68.1661 447.596C68.193 447.711 68.2229 447.821 68.2498 447.936C68.7785 450.076 71.1356 449.39 71.3567 447.447C71.3597 447.426 71.3627 447.402 71.3657 447.381C73.1462 445.803 72.8773 443.173 72.7458 440.651C72.6054 437.929 72.4561 435.209 72.3306 432.489C72.0916 427.272 71.8885 422.055 71.7062 416.834C71.3507 406.511 71.1506 396.174 71.0848 385.844C70.9534 365.18 71.9811 344.547 73.1999 323.943C73.7108 315.322 74.3083 306.74 74.4905 298.124C75.4435 297.548 75.7363 295.911 75.2583 294.808C86.5448 303.75 97.0187 314.441 105.428 326.867C106.832 328.941 108.174 331.078 109.458 333.253C109.877 333.96 110.274 334.696 110.674 335.431C110.286 337.481 109.984 339.566 109.59 341.533C108.777 345.595 108.434 349.809 107.968 353.938C107.021 362.322 106.354 370.782 105.79 379.211C104.678 395.858 103.854 412.502 103.594 429.197C103.451 438.639 103.259 448.14 103.618 457.579C103.352 459.425 104.783 461.229 106.28 461.461C107.591 461.665 108.816 460.875 109.39 459.601C113.476 460.191 117.671 460.462 121.731 460.496C127.201 460.542 132.671 460.535 138.141 460.399C149.084 460.122 160.023 459.796 170.963 459.418C192.843 458.669 214.723 457.916 236.606 457.163C242.674 456.955 248.741 456.747 254.808 456.539C257.545 456.445 260.957 457.361 263.114 454.908C263.484 454.485 263.771 453.989 263.974 453.458C264.619 453.645 265.411 453.462 265.835 452.882C266.627 451.797 267.209 450.791 267.179 449.285C267.153 447.877 266.818 446.392 266.645 444.998C266.316 442.379 265.999 439.76 265.698 437.137C265.103 431.955 264.548 426.766 264.037 421.573C262.991 410.955 262.041 400.312 261.3 389.659C259.83 368.593 259.415 347.416 259.466 326.284C259.472 324.394 259.481 322.503 259.49 320.612C259.559 320.713 259.633 320.806 259.714 320.887C259.78 320.952 259.845 321.018 259.911 321.088C260.676 321.868 261.948 322.271 262.866 321.532C263.992 320.685 264.769 319.415 265.647 318.268C266.57 317.064 267.52 315.891 268.479 314.726C270.337 312.471 272.258 310.31 274.218 308.173C274.376 308.003 274.534 307.83 274.693 307.663C274.705 314.389 274.699 321.112 274.854 327.835C275.087 337.821 275.553 347.798 275.98 357.771C276.829 377.518 277.707 397.26 278.553 417.004C278.789 422.516 279.013 428.032 279.249 433.544C279.368 436.301 279.485 439.059 279.598 441.817C279.658 443.308 279.718 444.804 279.777 446.295C279.843 447.898 279.756 449.611 280.223 451.134C281.283 454.617 285.866 455.109 286.747 451.134C287.3 448.64 286.876 445.754 286.777 443.194C286.675 440.669 286.574 438.14 286.469 435.611Z" fill="black"/>
<path fill-rule="evenodd" clip-rule="evenodd" d="M241.638 141.252C240.844 131.004 242.074 120.263 238.115 110.522C231.211 94.3605 211.851 88.9718 196.843 82.8188C190.83 81.046 170.598 80.7982 163.557 78.4517C147.624 73.1411 143.817 66.8136 131.156 76.9252C129.019 78.6525 127.682 80.5298 126.706 83.0948L126.746 83.1058C126.468 84.1752 126.766 85.2422 127.394 86.0572C121.904 91.6565 119.607 100.051 122.424 107.505C131.616 126.901 131.183 137.389 128.222 158.241C124.354 177.708 133.192 184.819 147.828 195.411C147.232 196.564 147.109 198.096 147.886 199.113C164.81 222.846 196.722 234.178 224.064 222.132C235.162 217.202 240.117 205.408 242.945 194.766C246.239 182.849 247.251 170.293 244.569 158.154C243.488 152.54 242.079 146.967 241.638 141.252Z" fill="white"/>
<path fill-rule="evenodd" clip-rule="evenodd" d="M144.016 27.7125C146.071 27.4047 147.622 28.6766 148.36 30.4693L148.399 30.5659C148.636 31.1759 148.9 31.7692 149.184 32.3525C154.325 29.8359 161.66 30.4825 164.914 35.5792C167.235 39.2192 165.819 43.5392 164.944 47.3992L164.369 49.9425C165.48 50.6478 166.317 51.9107 166.278 53.2185L166.273 53.3192L166.04 56.8659C166.781 56.1159 167.459 55.2992 168.064 54.4292C168.481 53.6659 168.932 52.9159 169.417 52.1892C172.266 47.9125 178.663 51.6292 176.311 56.2092C175.86 57.0925 175.352 57.9292 174.808 58.7359C174.193 59.9259 173.689 61.1492 173.302 62.4059C174.414 62.8892 175.269 63.9625 175.359 65.5825C175.57 69.3659 173.579 72.5225 170.412 74.5059C169.48 75.0892 168.518 75.2025 167.646 74.9859C167.493 75.1925 167.339 75.3992 167.192 75.6092C168.455 76.6325 169.594 77.7992 170.572 79.0925C173.519 78.6525 176.482 78.4459 179.444 78.4392C183.065 76.6692 187.401 76.7059 191.293 77.3692C193.798 77.7959 196.203 78.6259 198.668 79.2225C201.267 79.8492 203.906 79.8725 206.535 80.2992C209.849 80.8359 212.755 82.3625 214.582 84.7992C216.589 84.8592 218.701 85.6792 220.451 86.7925C224.526 89.3859 228.578 92.0159 232.643 94.6259C234.204 95.6279 234.787 97.2275 234.5 99.0117L234.481 99.1259L234.344 99.8659L234.665 100.321C235.909 102.074 237.263 103.911 238.068 105.846C239.558 107.989 240.904 110.236 242.097 112.553C243.703 115.666 245.029 118.966 245.928 122.353C246.152 123.209 246.376 124.073 246.523 124.946C246.733 126.179 246.409 127.136 246.232 128.319C246.012 129.819 245.931 131.339 245.698 132.843C245.541 133.839 244.692 134.329 243.804 134.356C244.138 136.893 244.378 139.446 244.609 141.979C244.933 145.599 245.153 149.229 245.343 152.859C246.326 154.283 248.333 155.409 249.783 155.799C251.79 156.336 253.895 155.753 255.792 155.069C256.985 154.639 257.963 156.136 257.382 157.136C255.555 160.276 251.647 160.263 248.687 158.873C247.435 158.286 246.336 157.436 245.521 156.329C245.571 157.383 245.624 158.436 245.678 159.493L245.727 160.45C246.329 171.627 247.628 183.189 245.524 194.256C241.88 213.426 225.982 228.022 206.562 229.156C196.371 229.751 187.884 226.747 183.664 225.071C179.444 223.396 181.085 219.979 184.014 220.956C189.061 222.638 198.332 225.145 206.628 224.063C226.183 221.512 242.765 211.759 241.061 169.753C240.82 163.796 240.076 157.836 239.915 151.879C239.762 146.056 239.818 140.229 239.561 134.409L239.476 132.423C239.375 130.103 239.268 127.772 239.094 125.449C238.883 124.549 238.71 123.636 238.452 122.753C237.754 120.349 236.842 118.013 235.71 115.783C235.459 115.973 235.179 116.109 234.875 116.163C232.567 116.576 230.402 116.459 228.241 115.499C227.232 115.056 226.343 114.466 225.515 113.736C225.121 113.393 224.857 113.059 224.65 112.713C223.604 112.729 222.559 112.416 221.904 111.666C221.157 110.811 221.033 109.928 221.326 109.111L221.356 109.029L221.283 109.003C220.401 111.279 218.644 113.283 216.716 114.636C213.67 116.783 209.859 117.403 206.204 117.459C202.169 117.519 197.913 116.899 193.932 116.266C192.879 116.099 191.834 115.909 190.808 115.653C190.768 115.693 190.728 115.739 190.685 115.779C187.268 119.043 182.461 119.883 178.125 118.019C175.62 116.943 173.519 115.209 171.661 113.223C171.635 114.263 171.581 115.303 171.491 116.333L171.454 116.742C171.269 118.66 170.913 120.695 169.46 122.079C167.112 124.323 163.705 123.423 160.996 121.963C160.999 122.033 160.999 122.106 160.999 122.179C161.73 124.659 162.465 127.143 163.2 129.626L163.358 130.155C163.893 131.918 164.479 133.684 164.64 135.529C164.947 139.056 162.596 142.539 158.667 141.356C156.607 140.737 154.956 139.009 153.372 137.624L152.374 136.763C154.956 145.186 156.747 153.909 156.914 162.699C156.924 163.176 156.513 163.536 156.058 163.553C154.996 163.596 153.854 163.386 152.785 162.963C152.725 162.959 152.665 162.956 152.601 162.946C150.777 162.683 149.084 162.026 147.591 161.056C147.935 162.146 148.088 163.316 147.998 164.539C147.975 164.836 147.51 164.939 147.444 164.613C146.582 160.383 141.621 157.186 137.346 157.996C132.756 158.866 129.375 162.806 128.547 167.289C127.659 172.106 129.359 177.676 132.509 181.393C133.958 183.106 135.866 184.536 138.131 184.896C139.166 185.059 140.242 185.003 141.247 184.709C141.675 184.583 142.076 184.406 142.483 184.239C143.078 183.999 143.773 183.963 144.334 183.709C145.606 183.139 146.886 184.309 146.241 185.613C145.68 186.749 145.175 187.516 144.244 188.103C144.998 189.023 145.683 190.303 145.937 190.646C147.233 192.393 148.549 194.043 150.026 195.639C151.529 197.259 153.169 198.739 154.903 200.109L155.631 200.684C157.301 202.005 158.755 203.23 159.933 205.126C160.862 206.623 159.659 208.653 157.919 208.629C152.474 208.553 148.516 203.779 145.697 199.609C145.296 199.013 144.918 198.383 144.568 197.736C144.441 197.939 144.3 198.129 144.143 198.303L144.454 199.136C145.376 201.589 141.404 203.193 140.252 200.903C139.413 199.243 138.441 197.663 137.359 196.169C136.721 196.079 136.096 195.693 135.749 195.193C134.87 193.923 133.885 192.639 133.053 191.286C132.592 190.849 132.118 190.429 131.634 190.019C131.493 190.143 131.35 190.266 131.213 190.396C130.605 191.779 129.853 193.043 128.921 194.233L128.721 194.486C126.936 196.732 124.61 199.03 121.733 199.579C120.854 199.746 120.009 198.656 120.787 197.959C122.802 196.153 125.183 194.923 127.041 192.906C127.956 191.912 128.796 190.818 129.518 189.671L129.683 189.406C129.803 189.209 129.927 189.013 130.054 188.813C129.215 188.243 128.377 187.669 127.538 187.096C125.23 189.064 122.224 189.964 119.672 191.594L119.418 191.759C117.11 193.299 114.678 189.893 116.528 188.023C118.568 185.969 120.271 183.52 122.078 181.237C121.229 179.675 120.826 177.828 120.676 175.962C120.616 175.433 120.57 174.905 120.523 174.376C119.227 174.396 117.925 173.953 116.822 173.189L116.405 172.893C115.065 173.319 113.659 173.526 112.313 173.489C109.146 173.396 107.85 169.786 109.831 167.503C111.852 165.169 115.389 164.659 118.192 165.793C118.282 165.746 118.376 165.696 118.466 165.646C118.332 165.033 118.362 164.476 118.514 163.988L118.47 163.69C117.854 162.746 117.448 161.669 117.295 160.53C117.173 159.629 117.198 158.735 117.407 157.845C117.476 157.548 117.621 157.241 117.732 156.932C117.504 156.358 117.37 155.765 117.328 155.168C117.265 155.093 117.201 155.015 117.141 154.931C115.75 152.983 116.031 150.635 117.355 149.058C117.361 148.958 117.37 148.858 117.384 148.758C117.306 148.584 117.235 148.408 117.17 148.231C115.877 146.929 114.928 145.363 115.105 143.422C115.209 142.28 115.679 141.252 116.391 140.483C116.265 140.111 116.253 139.679 116.406 139.319C115.27 136.303 115.413 132.672 116.231 129.299C116.051 128.786 115.957 128.229 115.977 127.639C116.071 125.136 118.242 122.836 120.814 122.866C121.124 122.869 121.414 122.909 121.692 122.968L121.696 122.908C121.795 122.157 122.002 121.463 122.304 120.84C122.155 120.786 122.018 120.709 121.897 120.607C120.249 121.484 118.505 122.155 116.676 122.612C115.332 122.948 113.955 121.423 114.79 120.163C115.178 119.579 115.606 119.054 116.067 118.575C115.412 118.579 114.746 118.623 114.073 118.709C112.864 118.866 111.514 118.043 110.729 116.929C109.754 117.876 108.775 118.819 107.797 119.763C105.318 122.159 101.574 120.396 101.183 117.236C100.444 117.039 99.7563 116.706 99.1517 116.229C95.2435 117.923 91.038 118.853 86.7389 119.029C83.6524 119.156 81.8486 115.569 83.2916 113.036C84.2603 111.336 85.4629 109.809 86.8491 108.483C84.6979 109.139 82.4766 109.613 80.2084 109.916C78.9825 110.079 77.2489 109.066 76.7578 107.943C74.8805 103.623 75.0409 99.1192 77.2021 94.9159C77.2856 94.7492 77.3791 94.5892 77.4693 94.4292C77.6931 93.8725 77.937 93.3225 78.2009 92.7825C75.5419 90.0159 75.3114 85.9025 76.7445 82.4592C76.1699 81.5292 75.9495 80.4092 76.3403 79.3959C77.4526 76.4792 79.056 73.7859 81.0803 71.4725C80.8865 71.0992 80.7162 70.7025 80.5725 70.2759C79.4335 66.8259 80.7529 62.6625 83.4152 60.2592C85.0887 58.7459 87.0128 57.8392 89.0671 57.2592C89.9323 55.7325 91.0446 54.3559 92.3407 53.1959C92.3908 53.0859 92.4409 52.9759 92.4977 52.8659C94.5153 49.0725 98.1897 47.0392 102.128 46.5692C102.282 45.0859 103.284 43.6692 104.74 43.2092C105.141 41.9259 105.739 40.6992 106.561 39.5859C107.853 37.8325 110.001 37.0059 112.026 38.1559C113.135 38.7859 114.197 39.5092 115.192 40.3092C115.639 40.1 116.146 39.9646 116.718 39.9214L116.862 39.9125L120.156 39.7459C121.536 39.1359 122.912 38.4959 124.291 37.8725C125.12 37.1892 126.045 36.6192 127.054 36.1959C128.196 35.7192 129.365 35.4492 130.538 35.3592C131.49 35.0492 132.449 34.7759 133.424 34.5625C135.716 34.0625 138.114 33.7825 140.492 33.8059C140.541 33.1916 140.565 32.5699 140.56 31.941L140.556 31.6259C140.502 29.6092 142.116 27.9992 144.016 27.7125ZM141.706 189.063C141.379 189.133 141.048 189.189 140.718 189.229C140.818 189.476 140.918 189.723 141.015 189.969C141.282 190.119 141.553 190.262 141.823 190.396C141.743 189.943 141.696 189.486 141.706 189.063ZM124.544 183.973L124.322 184.382C124.286 184.448 124.25 184.514 124.216 184.579C124.687 184.542 125.161 184.552 125.629 184.606L125.627 184.556C125.567 184.536 125.507 184.517 125.449 184.489C125.127 184.334 124.827 184.161 124.544 183.973ZM133.82 165.356C136.776 165.528 139.28 165.98 141.967 167.27L142.198 167.383C144.573 168.559 148.501 170.732 148.171 173.849C148.077 174.736 147.433 175.669 146.417 175.599C143.635 175.409 142.045 172.609 140.161 170.863C138.26 169.103 135.925 167.293 133.623 166.083C133.298 165.912 133.426 165.373 133.78 165.356L133.82 165.356ZM120.421 124.292C119.711 124.316 119.949 125.004 120.314 124.429C120.344 124.383 120.38 124.336 120.421 124.292ZM158.645 78.4518C151.939 78.6278 145.189 82.5795 140.164 86.5738C135.793 90.0488 132.019 94.1821 128.677 98.6371C127.817 100.856 127.079 103.121 126.455 105.402C126.045 106.909 125.787 108.432 125.443 109.952L125.336 110.418C125.066 110.922 124.865 111.465 124.719 112.025C125.328 112.634 126.118 113.071 126.988 113.278C127.268 113.344 127.501 113.489 127.685 113.68C128.385 112.514 128.997 111.283 129.353 109.979L129.366 109.918C130.712 107.719 132.174 105.587 133.741 103.529C138.063 97.8458 142.823 92.6658 148.545 88.3558C152.885 85.0891 157.735 82.5291 162.892 80.8658C161.63 79.8495 160.196 79.0455 158.645 78.4518Z" fill="black"/>
<path fill-rule="evenodd" clip-rule="evenodd" d="M219.268 202.326C216.796 203.04 214.142 203.104 211.622 202.367C209.336 201.698 206.988 200.227 205.306 198.28C203.811 196.551 202.843 194.449 202.881 192.206C202.886 191.949 202.978 191.736 203.119 191.57C203.271 191.391 203.484 191.268 203.712 191.215C203.946 191.16 204.194 191.18 204.405 191.275C204.596 191.361 204.759 191.508 204.861 191.723C205.12 192.061 205.377 192.395 205.636 192.719C207.715 195.277 209.728 197.189 212.854 197.874C214.551 198.247 216.245 198.082 217.799 197.514C219.463 196.906 220.967 195.838 222.145 194.47C222.678 193.852 223.307 193.6 223.922 193.596C224.618 193.591 225.307 193.914 225.826 194.429C226.336 194.936 226.678 195.625 226.709 196.346C226.736 196.978 226.529 197.639 225.978 198.228C224.164 200.17 221.812 201.592 219.268 202.326ZM219.193 170.287C221.728 171.822 225.59 175.402 222.863 179.208C219.654 182.564 215.033 178.716 212.756 176.976C210.644 175.627 208.272 179.096 210.231 180.671C226.685 192.81 233.363 170.688 220.475 168.482C219.056 168.238 218.529 169.812 219.193 170.287ZM195.484 163.531C194.669 163.012 193.711 162.834 192.649 163.315C191.819 163.691 190.363 164.945 189.35 166.593C188.657 167.721 188.166 169.044 188.268 170.422C188.292 170.742 188.173 170.978 187.986 171.152C187.838 171.29 187.625 171.391 187.374 171.423C187.161 171.45 186.923 171.425 186.729 171.365C186.36 171.25 186.165 171.012 186.092 170.818C185.383 168.941 185.688 166.846 186.483 164.956C187.556 162.406 189.504 160.269 190.781 159.581C192.965 158.402 195.542 158.347 197.729 159.548C199.591 160.571 200.755 162.221 201.913 163.904C202.159 164.261 202.403 164.616 202.656 164.965C203.162 165.664 203.212 166.357 203.016 166.951C202.799 167.61 202.246 168.165 201.554 168.456C200.914 168.725 200.171 168.763 199.514 168.487C198.959 168.253 198.45 167.799 198.127 167.027C197.585 165.727 196.68 164.294 195.484 163.531ZM236.856 166.423C236.298 166.712 235.861 166.8 235.242 166.615C234.9 166.512 234.562 166.316 234.297 166.052C234.035 165.791 233.845 165.465 233.772 165.105C233.591 164.214 233.102 163.381 232.405 162.837C231.81 162.373 231.058 162.127 230.224 162.265C229.325 162.415 228.467 162.99 227.877 163.668C227.68 163.895 227.525 164.152 227.37 164.408C227.079 164.887 226.796 165.332 226.395 165.683C226.243 165.817 226.014 165.909 225.792 165.909C225.702 165.909 225.61 165.895 225.523 165.868C224.627 164.972 224.455 164.293 224.484 163.619C224.514 162.912 224.794 162.197 225.246 161.529C226.305 159.963 228.318 158.679 229.676 158.388C231.535 157.99 233.382 158.468 234.863 159.503C236.386 160.568 237.515 162.221 237.867 164.085C237.952 164.534 237.916 165.018 237.744 165.438C237.577 165.848 237.285 166.2 236.856 166.423ZM199.584 146.835C198.468 147.919 197.147 148.087 195.811 148.236C195.068 148.32 194.476 148.387 193.892 148.518C192.289 148.879 190.704 149.422 189.259 150.204C187.747 151.022 186.101 152.008 184.916 153.271C184.634 153.572 184.368 153.888 184.102 154.204C183.86 154.492 183.626 154.769 183.38 155.037C183.097 155.344 182.829 155.667 182.562 155.988C182.397 156.259 182.364 156.326 182.331 156.395C182.281 156.499 182.222 156.616 182.156 156.741C182.065 156.913 181.958 157.101 181.846 157.271C181.661 157.582 181.561 157.668 181.475 157.706C181.332 157.769 181.196 157.801 181.065 157.784C180.941 157.768 180.825 157.709 180.71 157.612C180.137 157.13 179.968 156.338 179.986 155.498C180.012 154.222 180.484 152.81 180.919 151.942C181.931 149.926 183.334 147.829 185.021 146.324C186.946 144.606 189.053 143.305 191.472 142.409C192.975 141.852 194.716 141.34 196.354 141.405C197.533 141.451 198.659 141.8 199.588 142.673C200.159 143.208 200.433 143.97 200.433 144.731C200.433 145.507 200.148 146.287 199.584 146.835ZM239.126 156.757C239.055 156.873 238.957 156.953 238.848 157.001C238.733 157.052 238.605 157.066 238.482 157.045C238.36 157.025 238.244 156.97 238.152 156.885C238.064 156.804 237.996 156.697 237.966 156.566C237.225 153.323 235.787 150.91 232.716 149.354C231.205 148.589 229.468 148.103 227.824 147.715C227.346 147.602 226.841 147.529 226.333 147.455C224.739 147.223 223.134 146.958 222.095 145.674C221.469 144.901 221.207 143.912 221.355 143.008C221.495 142.156 221.994 141.376 222.902 140.908C225.162 139.743 227.97 140.886 230.252 141.859C230.421 141.931 230.587 142.002 230.75 142.071C232.981 143.009 235.017 144.248 236.69 146.02C238.017 147.426 239.247 149.504 239.742 151.642C240.155 153.42 240.058 155.236 239.126 156.757Z" fill="black"/>
<path d="M158.057 314.637C157.604 314.38 157.137 314.153 156.655 313.956C156.248 313.788 155.789 313.635 155.279 313.499C154.783 313.348 154.296 313.279 153.818 313.291C153.43 313.301 153.118 313.369 152.881 313.495C152.659 313.62 152.551 313.825 152.557 314.109C152.561 314.318 152.631 314.488 152.768 314.619C152.905 314.75 153.102 314.871 153.358 314.984C153.614 315.082 153.922 315.179 154.283 315.274C154.658 315.369 155.079 315.484 155.544 315.622C156.28 315.826 156.942 316.056 157.53 316.309C158.132 316.562 158.646 316.87 159.072 317.232C159.497 317.58 159.826 318.012 160.061 318.529C160.295 319.046 160.419 319.677 160.434 320.424C160.452 321.38 160.289 322.191 159.943 322.858C159.612 323.509 159.159 324.036 158.585 324.44C158.025 324.843 157.381 325.144 156.653 325.342C155.939 325.525 155.216 325.627 154.485 325.646C153.902 325.661 153.304 325.632 152.69 325.559C152.076 325.485 151.462 325.374 150.846 325.226C150.246 325.077 149.659 324.898 149.088 324.689C148.531 324.48 148.011 324.24 147.527 323.968L149.334 320.088C149.863 320.403 150.414 320.68 150.986 320.919C151.468 321.13 152.01 321.318 152.611 321.481C153.226 321.645 153.848 321.718 154.475 321.701C154.953 321.689 155.28 321.62 155.457 321.496C155.649 321.357 155.742 321.182 155.738 320.973C155.734 320.749 155.633 320.565 155.436 320.421C155.254 320.261 154.997 320.126 154.666 320.015C154.335 319.904 153.952 319.795 153.517 319.687C153.097 319.578 152.646 319.448 152.165 319.297C151.458 319.076 150.849 318.838 150.336 318.583C149.822 318.312 149.398 318.01 149.063 317.675C148.728 317.325 148.473 316.928 148.3 316.484C148.142 316.04 148.058 315.527 148.046 314.945C148.029 314.063 148.171 313.283 148.471 312.602C148.787 311.922 149.216 311.35 149.76 310.888C150.304 310.425 150.924 310.072 151.622 309.83C152.334 309.572 153.086 309.433 153.877 309.412C154.459 309.397 155.028 309.442 155.583 309.547C156.137 309.637 156.67 309.765 157.181 309.93C157.707 310.081 158.196 310.255 158.648 310.452C159.1 310.635 159.507 310.811 159.869 310.981L158.057 314.637ZM167.973 325.314C166.943 325.341 166.021 325.208 165.209 324.916C164.396 324.608 163.708 324.186 163.145 323.648C162.597 323.109 162.174 322.485 161.876 321.776C161.578 321.066 161.422 320.316 161.406 319.524C161.39 318.673 161.508 317.863 161.762 317.094C162.031 316.325 162.429 315.65 162.955 315.068C163.497 314.486 164.16 314.021 164.945 313.671C165.745 313.307 166.675 313.11 167.735 313.082C168.78 313.055 169.709 313.202 170.522 313.525C171.335 313.832 172.016 314.263 172.564 314.816C173.128 315.354 173.551 315.993 173.834 316.733C174.132 317.457 174.289 318.222 174.305 319.029C174.309 319.253 174.299 319.485 174.273 319.724C174.263 319.949 174.244 320.151 174.218 320.331L165.953 320.548C166.01 321.174 166.25 321.624 166.674 321.896C167.097 322.154 167.555 322.277 168.048 322.264C168.511 322.252 168.942 322.136 169.341 321.916C169.755 321.696 170.026 321.397 170.153 321.021L173.779 321.956C173.32 322.91 172.595 323.698 171.607 324.322C170.633 324.945 169.422 325.276 167.973 325.314ZM169.711 317.894C169.625 317.329 169.408 316.886 169.058 316.567C168.708 316.247 168.264 316.094 167.727 316.108C167.189 316.123 166.752 316.298 166.415 316.636C166.078 316.974 165.877 317.427 165.814 317.997L169.711 317.894ZM183.654 316.519C182.833 316.541 182.088 316.65 181.419 316.847C180.751 317.044 180.257 317.356 179.936 317.783L180.072 324.772L175.817 324.884L175.587 313.1L179.484 312.998L179.528 315.238C179.931 314.436 180.434 313.817 181.038 313.383C181.657 312.933 182.325 312.699 183.041 312.68C183.325 312.673 183.504 312.676 183.579 312.689L183.654 316.519ZM188.047 324.562L183.852 312.883L188.22 312.768L190.49 321.159L192.453 312.657L196.418 312.553L192.683 324.441L188.047 324.562ZM197.756 324.307L197.526 312.524L201.782 312.412L202.011 324.196L197.756 324.307ZM197.507 311.538L197.437 307.954L201.693 307.842L201.763 311.426L197.507 311.538ZM203.4 318.264C203.385 317.458 203.511 316.685 203.781 315.946C204.05 315.192 204.448 314.531 204.975 313.964C205.516 313.382 206.187 312.917 206.987 312.567C207.787 312.202 208.709 312.006 209.754 311.979C211.188 311.941 212.388 312.208 213.355 312.78C214.338 313.352 215.077 314.102 215.573 315.031L211.454 316.394C211.039 315.822 210.489 315.545 209.802 315.563C209.219 315.579 208.731 315.816 208.337 316.274C207.942 316.718 207.752 317.343 207.768 318.15C207.784 318.956 207.998 319.578 208.409 320.015C208.821 320.438 209.318 320.642 209.9 320.626C210.587 320.608 211.127 320.303 211.518 319.71L215.687 320.855C215.227 321.809 214.518 322.597 213.559 323.22C212.615 323.842 211.426 324.172 209.993 324.21C208.947 324.237 208.018 324.097 207.206 323.79C206.393 323.468 205.704 323.038 205.141 322.5C204.593 321.946 204.169 321.307 203.871 320.583C203.573 319.844 203.416 319.071 203.4 318.264ZM222.788 323.874C221.758 323.901 220.836 323.768 220.024 323.476C219.211 323.168 218.523 322.746 217.96 322.208C217.412 321.669 216.989 321.045 216.691 320.336C216.393 319.626 216.237 318.876 216.221 318.084C216.205 317.233 216.323 316.423 216.577 315.654C216.846 314.885 217.244 314.21 217.77 313.628C218.312 313.046 218.975 312.581 219.76 312.231C220.56 311.867 221.49 311.67 222.55 311.642C223.595 311.615 224.524 311.762 225.337 312.085C226.15 312.392 226.831 312.822 227.379 313.376C227.942 313.914 228.366 314.553 228.649 315.292C228.947 316.017 229.104 316.782 229.12 317.589C229.124 317.813 229.114 318.045 229.088 318.284C229.078 318.509 229.059 318.711 229.033 318.891L220.768 319.108C220.825 319.734 221.065 320.184 221.489 320.456C221.912 320.714 222.37 320.837 222.863 320.824C223.326 320.811 223.757 320.696 224.156 320.476C224.57 320.256 224.841 319.957 224.968 319.58L228.594 320.516C228.135 321.47 227.41 322.258 226.422 322.882C225.448 323.505 224.236 323.836 222.788 323.874ZM224.526 316.454C224.44 315.889 224.222 315.446 223.873 315.127C223.523 314.807 223.079 314.654 222.541 314.668C222.004 314.683 221.567 314.858 221.23 315.196C220.893 315.534 220.692 315.987 220.629 316.557L224.526 316.454ZM149.141 351.593L148.831 335.688L154.946 335.527C156.26 335.492 157.422 335.671 158.43 336.063C159.439 336.455 160.286 337 160.972 337.7C161.658 338.399 162.182 339.229 162.544 340.191C162.906 341.138 163.098 342.156 163.119 343.247C163.143 344.456 162.97 345.559 162.601 346.555C162.247 347.535 161.725 348.386 161.037 349.106C160.349 349.812 159.516 350.371 158.538 350.786C157.559 351.185 156.466 351.4 155.256 351.432L149.141 351.593ZM158.684 343.363C158.673 342.751 158.579 342.193 158.405 341.689C158.231 341.186 157.984 340.759 157.663 340.409C157.358 340.058 156.979 339.792 156.527 339.609C156.075 339.412 155.573 339.321 155.02 339.335L153.273 339.381L153.435 347.67L155.182 347.624C155.749 347.609 156.255 347.491 156.699 347.27C157.143 347.049 157.51 346.748 157.802 346.367C158.108 345.986 158.331 345.539 158.47 345.027C158.625 344.515 158.696 343.96 158.684 343.363ZM170.689 351.251C169.659 351.278 168.737 351.145 167.925 350.853C167.112 350.545 166.424 350.123 165.861 349.585C165.312 349.046 164.889 348.422 164.592 347.713C164.294 347.003 164.137 346.253 164.122 345.461C164.105 344.61 164.224 343.8 164.478 343.032C164.747 342.262 165.145 341.587 165.671 341.005C166.213 340.423 166.876 339.958 167.661 339.608C168.46 339.244 169.39 339.047 170.451 339.019C171.496 338.992 172.425 339.139 173.238 339.462C174.051 339.769 174.731 340.2 175.28 340.753C175.843 341.291 176.267 341.93 176.55 342.67C176.848 343.394 177.005 344.159 177.021 344.966C177.025 345.19 177.014 345.422 176.989 345.661C176.979 345.886 176.96 346.088 176.934 346.268L168.669 346.485C168.726 347.111 168.966 347.561 169.39 347.833C169.813 348.091 170.271 348.214 170.764 348.201C171.227 348.189 171.658 348.073 172.057 347.853C172.471 347.633 172.742 347.334 172.869 346.958L176.495 347.893C176.035 348.847 175.311 349.635 174.322 350.259C173.349 350.882 172.137 351.213 170.689 351.251ZM172.427 343.831C172.341 343.266 172.123 342.823 171.773 342.504C171.424 342.184 170.98 342.031 170.442 342.046C169.905 342.06 169.467 342.235 169.13 342.573C168.793 342.911 168.593 343.364 168.529 343.934L172.427 343.831ZM183.397 350.917C182.367 350.944 181.356 350.806 180.364 350.504C179.372 350.186 178.526 349.715 177.826 349.091L179.233 346.499C179.974 346.973 180.683 347.335 181.36 347.586C182.052 347.837 182.682 347.955 183.25 347.94C183.847 347.924 184.142 347.73 184.135 347.356C184.131 347.147 184.008 346.971 183.766 346.828C183.539 346.685 183.088 346.525 182.412 346.348C181.571 346.131 180.865 345.918 180.293 345.709C179.736 345.485 179.275 345.243 178.912 344.983C178.563 344.723 178.311 344.431 178.155 344.107C177.999 343.782 177.917 343.396 177.908 342.948C177.897 342.35 178.005 341.795 178.234 341.28C178.463 340.766 178.783 340.317 179.194 339.933C179.62 339.548 180.122 339.251 180.701 339.042C181.294 338.817 181.941 338.695 182.643 338.677C183.509 338.654 184.333 338.744 185.114 338.948C185.909 339.151 186.71 339.586 187.515 340.252L185.952 342.848C185.211 342.39 184.592 342.07 184.095 341.889C183.598 341.692 183.134 341.6 182.7 341.611C182.447 341.618 182.239 341.676 182.076 341.785C181.914 341.879 181.835 342.03 181.839 342.239C181.843 342.463 181.966 342.647 182.208 342.79C182.45 342.918 182.923 343.062 183.628 343.223C184.484 343.425 185.205 343.645 185.792 343.884C186.38 344.107 186.848 344.364 187.197 344.654C187.561 344.928 187.821 345.25 187.978 345.619C188.134 345.974 188.217 346.39 188.226 346.868C188.238 347.48 188.137 348.028 187.922 348.512C187.707 348.996 187.387 349.415 186.96 349.77C186.549 350.125 186.039 350.399 185.43 350.595C184.836 350.79 184.159 350.897 183.397 350.917ZM189.753 350.526L189.524 338.743L193.78 338.631L194.009 350.414L189.753 350.526ZM189.505 337.757L189.435 334.173L193.691 334.061L193.76 337.645L189.505 337.757ZM200.687 350.239C199.925 350.259 199.221 350.128 198.573 349.846C197.939 349.549 197.394 349.145 196.936 348.634C196.477 348.108 196.114 347.49 195.846 346.78C195.593 346.069 195.459 345.296 195.442 344.459C195.425 343.578 195.544 342.761 195.798 342.007C196.052 341.253 196.413 340.601 196.88 340.051C197.363 339.5 197.937 339.067 198.603 338.751C199.269 338.419 200.005 338.243 200.811 338.222C201.662 338.2 202.412 338.352 203.061 338.678C203.71 338.99 204.227 339.462 204.613 340.094L204.579 338.347L208.274 338.25L208.483 348.958C208.501 349.884 208.346 350.725 208.017 351.481C207.688 352.236 207.215 352.884 206.598 353.423C205.981 353.962 205.235 354.385 204.359 354.692C203.484 355.014 202.509 355.189 201.434 355.217C200.179 355.25 199.086 355.085 198.152 354.721C197.219 354.357 196.387 353.818 195.656 353.105L197.85 350.717C198.291 351.109 198.813 351.431 199.415 351.684C200.033 351.952 200.685 352.077 201.372 352.059C201.76 352.048 202.125 351.987 202.467 351.873C202.823 351.759 203.133 351.579 203.397 351.333C203.662 351.102 203.865 350.798 204.007 350.42C204.164 350.043 204.237 349.593 204.227 349.07L204.212 348.308C203.881 348.944 203.397 349.42 202.761 349.736C202.14 350.051 201.448 350.219 200.687 350.239ZM202.145 346.838C202.578 346.827 202.949 346.72 203.259 346.518C203.583 346.3 203.883 345.986 204.159 345.575L204.118 343.469C203.899 342.937 203.577 342.52 203.153 342.217C202.743 341.914 202.315 341.769 201.867 341.78C201.568 341.788 201.286 341.87 201.02 342.027C200.769 342.168 200.548 342.36 200.359 342.604C200.169 342.833 200.025 343.114 199.927 343.445C199.829 343.761 199.783 344.099 199.79 344.457C199.804 345.189 200.032 345.773 200.474 346.21C200.916 346.647 201.473 346.856 202.145 346.838ZM222.513 349.665L218.258 349.777L218.128 343.146C218.117 342.564 217.974 342.149 217.701 341.902C217.442 341.64 217.14 341.514 216.797 341.523C216.439 341.532 216.061 341.699 215.664 342.023C215.267 342.347 214.976 342.758 214.791 343.256L214.92 349.865L210.665 349.977L210.435 338.193L214.265 338.093L214.299 339.84C214.705 339.187 215.278 338.686 216.018 338.338C216.773 337.974 217.665 337.779 218.696 337.752C219.502 337.731 220.139 337.864 220.608 338.15C221.092 338.421 221.457 338.77 221.704 339.197C221.967 339.624 222.14 340.082 222.224 340.573C222.308 341.064 222.354 341.511 222.362 341.914L222.513 349.665ZM148.617 369.524C148.598 368.553 148.758 367.593 149.098 366.642C149.453 365.692 149.975 364.834 150.662 364.068C151.349 363.303 152.188 362.676 153.18 362.187C154.171 361.698 155.309 361.436 156.593 361.402C158.131 361.362 159.467 361.648 160.599 362.261C161.746 362.858 162.606 363.672 163.179 364.703L159.888 367.166C159.731 366.781 159.523 366.466 159.264 366.218C159.02 365.971 158.748 365.776 158.446 365.635C158.145 365.493 157.829 365.397 157.499 365.346C157.185 365.294 156.878 365.272 156.579 365.28C155.952 365.297 155.409 365.438 154.952 365.704C154.508 365.955 154.141 366.286 153.85 366.697C153.574 367.092 153.366 367.546 153.227 368.058C153.102 368.554 153.045 369.049 153.054 369.542C153.065 370.094 153.157 370.622 153.332 371.126C153.506 371.629 153.753 372.071 154.075 372.451C154.396 372.831 154.783 373.135 155.235 373.362C155.702 373.574 156.22 373.672 156.787 373.657C157.086 373.65 157.391 373.612 157.704 373.544C158.016 373.461 158.312 373.341 158.593 373.184C158.889 373.012 159.146 372.803 159.365 372.559C159.599 372.298 159.78 371.987 159.907 371.625L163.51 373.66C163.283 374.249 162.927 374.781 162.443 375.257C161.974 375.733 161.43 376.135 160.808 376.465C160.202 376.795 159.543 377.052 158.829 377.235C158.13 377.417 157.445 377.518 156.773 377.535C155.594 377.566 154.506 377.363 153.512 376.926C152.532 376.474 151.676 375.869 150.944 375.111C150.227 374.353 149.665 373.486 149.258 372.51C148.85 371.535 148.637 370.539 148.617 369.524ZM164.435 360.838L168.691 360.726L168.918 372.397C168.935 373.293 169.31 373.732 170.042 373.713C170.221 373.708 170.414 373.673 170.622 373.608C170.83 373.542 171.023 373.455 171.2 373.346L171.798 376.468C171.295 376.72 170.724 376.922 170.085 377.073C169.46 377.224 168.864 377.307 168.297 377.322C167.162 377.352 166.283 377.084 165.659 376.517C165.036 375.951 164.713 375.115 164.691 374.01L164.435 360.838ZM176.371 377.11C175.176 377.141 174.258 376.807 173.617 376.107C172.976 375.391 172.642 374.339 172.614 372.95L172.463 365.199L176.719 365.087L176.851 371.875C176.862 372.398 176.981 372.798 177.211 373.076C177.455 373.353 177.779 373.487 178.182 373.476C178.511 373.468 178.845 373.384 179.186 373.226C179.526 373.067 179.863 372.73 180.197 372.213L180.056 365L184.312 364.888L184.45 371.967C184.458 372.37 184.523 372.652 184.646 372.813C184.768 372.96 184.979 373.044 185.278 373.066L185.348 376.65C184.619 376.819 184.024 376.909 183.561 376.921C182.112 376.959 181.265 376.436 181.02 375.352L180.922 374.928C180.384 375.675 179.737 376.222 178.982 376.571C178.227 376.904 177.356 377.084 176.371 377.11ZM194.596 376.631C192.819 376.678 191.537 376.024 190.748 374.67L190.784 376.507L187.088 376.604L186.77 360.251L191.025 360.139L191.149 366.456C191.479 365.805 191.955 365.307 192.576 364.962C193.196 364.602 193.932 364.411 194.783 364.389C195.5 364.37 196.168 364.509 196.786 364.807C197.419 365.104 197.965 365.523 198.424 366.064C198.883 366.59 199.246 367.23 199.515 367.985C199.783 368.725 199.926 369.536 199.943 370.417C199.96 371.298 199.834 372.116 199.565 372.87C199.311 373.609 198.942 374.253 198.46 374.804C197.993 375.354 197.426 375.795 196.76 376.126C196.094 376.442 195.373 376.611 194.596 376.631ZM193.294 373.079C193.996 373.061 194.552 372.822 194.961 372.363C195.386 371.904 195.59 371.301 195.576 370.554C195.569 370.195 195.503 369.861 195.377 369.551C195.266 369.24 195.112 368.967 194.913 368.733C194.729 368.499 194.501 368.318 194.23 368.191C193.974 368.063 193.689 368.004 193.375 368.012C192.927 368.024 192.505 368.199 192.108 368.538C191.711 368.862 191.413 369.289 191.214 369.817L191.255 371.923C191.823 372.714 192.503 373.1 193.294 373.079Z" fill="white"/>
</svg>
