<svg width="37" height="38" viewBox="0 0 37 38" fill="none" xmlns="http://www.w3.org/2000/svg">
<path fill-rule="evenodd" clip-rule="evenodd" d="M18.3764 0.276855C13.3854 0.276855 12.7606 0.298907 10.7998 0.387114C8.84457 0.477158 7.5086 0.78772 6.33986 1.24162C5.11321 1.70258 4.00193 2.42567 3.08356 3.36042C2.14886 4.27882 1.42578 5.3901 0.964762 6.61672C0.510864 7.78546 0.200303 9.12142 0.110258 11.0767C0.020214 13.0374 0 13.6622 0 18.6533C0 23.6443 0.020214 24.2691 0.110258 26.2299C0.200303 28.1851 0.510864 29.5211 0.964762 30.6898C1.42583 31.9164 2.1489 33.0277 3.08356 33.9461C4.002 34.8808 5.11327 35.6039 6.33986 36.0649C7.5086 36.5188 8.84457 36.8294 10.7998 36.9194C12.7606 37.0076 13.3854 37.0297 18.3764 37.0297C23.3674 37.0297 23.9922 37.0076 25.953 36.9194C27.9083 36.8294 29.2442 36.5188 30.413 36.0649C31.6396 35.6039 32.7509 34.8808 33.6693 33.9461C34.604 33.0277 35.327 31.9164 35.7881 30.6898C36.242 29.5211 36.5525 28.1851 36.6426 26.2299C36.7308 24.2691 36.7528 23.6443 36.7528 18.6533C36.7528 13.6622 36.7308 13.0374 36.6426 11.0767C36.5525 9.12142 36.242 7.78546 35.7881 6.61672C35.327 5.3901 34.604 4.27882 33.6693 3.36042C32.7509 2.42567 31.6396 1.70258 30.413 1.24162C29.2442 0.78772 27.9083 0.477158 25.953 0.387114C23.9922 0.298907 23.3674 0.276855 18.3764 0.276855ZM18.3764 3.58829C23.2829 3.58829 23.8636 3.60666 25.8005 3.69487C27.594 3.77756 28.5661 4.07526 29.2148 4.32702C30.0712 4.66147 30.6849 5.06024 31.3281 5.70157C31.9713 6.34475 32.3682 6.95852 32.7027 7.81486C32.9526 8.46355 33.254 9.43566 33.3348 11.2274C33.423 13.1661 33.4414 13.7449 33.4414 18.6533C33.4414 23.5598 33.423 24.1405 33.3348 26.0773C33.2521 27.8709 32.9526 28.843 32.7027 29.4917C32.4081 30.2899 31.9384 31.012 31.3281 31.605C30.6849 32.2481 30.0712 32.6451 29.2148 32.9795C28.5661 33.2294 27.594 33.5308 25.8023 33.6117C23.8654 33.6999 23.2848 33.7183 18.3764 33.7183C13.4699 33.7183 12.8874 33.6999 10.9523 33.6117C9.1588 33.529 8.18669 33.2294 7.53801 32.9795C6.73971 32.685 6.01757 32.2153 5.42472 31.605C4.81436 31.0121 4.34466 30.29 4.05016 29.4917C3.7984 28.843 3.49887 27.8709 3.41801 26.0792C3.32981 24.1405 3.31143 23.5616 3.31143 18.6533C3.31143 13.7468 3.32981 13.1661 3.41801 11.2292C3.50071 9.43566 3.7984 8.46355 4.05016 7.81486C4.38461 6.95852 4.78338 6.34475 5.42472 5.70157C6.06789 5.0584 6.68166 4.66147 7.53801 4.32702C8.18669 4.07526 9.1588 3.77572 10.9505 3.69487C12.8892 3.60666 13.4681 3.58829 18.3764 3.58829ZM18.3764 24.7781C16.752 24.7781 15.1941 24.1328 14.0455 22.9842C12.8969 21.8356 12.2516 20.2777 12.2516 18.6533C12.2516 17.0289 12.8969 15.471 14.0455 14.3223C15.1941 13.1737 16.752 12.5284 18.3764 12.5284C20.0008 12.5284 21.5587 13.1737 22.7073 14.3223C23.856 15.471 24.5013 17.0289 24.5013 18.6533C24.5013 20.2777 23.856 21.8356 22.7073 22.9842C21.5587 24.1328 20.0008 24.7781 18.3764 24.7781ZM18.3764 9.21698C17.1372 9.21698 15.9102 9.46106 14.7653 9.93528C13.6204 10.4095 12.5802 11.1046 11.7039 11.9808C10.8277 12.857 10.1326 13.8973 9.65842 15.0422C9.1842 16.187 8.94012 17.4141 8.94012 18.6533C8.94012 19.8925 9.1842 21.1195 9.65842 22.2644C10.1326 23.4092 10.8277 24.4495 11.7039 25.3257C12.5802 26.202 13.6204 26.897 14.7653 27.3713C15.9102 27.8455 17.1372 28.0896 18.3764 28.0896C20.8791 28.0896 23.2792 27.0954 25.0489 25.3257C26.8185 23.5561 27.8127 21.1559 27.8127 18.6533C27.8127 16.1506 26.8185 13.7505 25.0489 11.9808C23.2792 10.2112 20.8791 9.21698 18.3764 9.21698ZM30.3909 8.84394C30.3909 9.13353 30.3339 9.42028 30.2231 9.68782C30.1122 9.95537 29.9498 10.1985 29.745 10.4032C29.5403 10.608 29.2972 10.7704 29.0296 10.8813C28.7621 10.9921 28.4753 11.0491 28.1857 11.0491C27.8962 11.0491 27.6094 10.9921 27.3419 10.8813C27.0743 10.7704 26.8312 10.608 26.6265 10.4032C26.4217 10.1985 26.2593 9.95537 26.1484 9.68782C26.0376 9.42028 25.9806 9.13353 25.9806 8.84394C25.9806 8.25909 26.2129 7.6982 26.6265 7.28465C27.04 6.8711 27.6009 6.63877 28.1857 6.63877C28.7706 6.63877 29.3315 6.8711 29.745 7.28465C30.1586 7.6982 30.3909 8.25909 30.3909 8.84394Z" fill="#F2F2F2"/>
</svg>
