<svg width="36" height="36" viewBox="0 0 36 36" fill="none" xmlns="http://www.w3.org/2000/svg">
<path fill-rule="evenodd" clip-rule="evenodd" d="M18 0C13.1112 0 12.4992 0.0215999 10.5786 0.108C8.6634 0.1962 7.3548 0.5004 6.21 0.945C5.00848 1.39652 3.91996 2.1048 3.0204 3.0204C2.10484 3.91999 1.39657 5.0085 0.945 6.21C0.5004 7.3548 0.1962 8.6634 0.108 10.5786C0.0197999 12.4992 0 13.1112 0 18C0 22.8888 0.0197999 23.5008 0.108 25.4214C0.1962 27.3366 0.5004 28.6452 0.945 29.79C1.39662 30.9915 2.10489 32.08 3.0204 32.9796C3.92003 33.8951 5.00853 34.6034 6.21 35.055C7.3548 35.4996 8.6634 35.8038 10.5786 35.892C12.4992 35.9784 13.1112 36 18 36C22.8888 36 23.5008 35.9784 25.4214 35.892C27.3366 35.8038 28.6452 35.4996 29.79 35.055C30.9915 34.6034 32.08 33.8952 32.9796 32.9796C33.8952 32.08 34.6034 30.9915 35.055 29.79C35.4996 28.6452 35.8038 27.3366 35.892 25.4214C35.9784 23.5008 36 22.8888 36 18C36 13.1112 35.9784 12.4992 35.892 10.5786C35.8038 8.6634 35.4996 7.3548 35.055 6.21C34.6034 5.0085 33.8952 3.91999 32.9796 3.0204C32.08 2.1048 30.9915 1.39652 29.79 0.945C28.6452 0.5004 27.3366 0.1962 25.4214 0.108C23.5008 0.0215999 22.8888 0 18 0ZM18 3.2436C22.806 3.2436 23.3748 3.2616 25.272 3.348C27.0288 3.429 27.981 3.7206 28.6164 3.9672C29.4552 4.2948 30.0564 4.6854 30.6864 5.3136C31.3164 5.9436 31.7052 6.5448 32.0328 7.3836C32.2776 8.019 32.5728 8.9712 32.652 10.7262C32.7384 12.6252 32.7564 13.1922 32.7564 18C32.7564 22.806 32.7384 23.3748 32.652 25.272C32.571 27.0288 32.2776 27.981 32.0328 28.6164C31.7442 29.3983 31.2842 30.1056 30.6864 30.6864C30.0564 31.3164 29.4552 31.7052 28.6164 32.0328C27.981 32.2776 27.0288 32.5728 25.2738 32.652C23.3766 32.7384 22.8078 32.7564 18 32.7564C13.194 32.7564 12.6234 32.7384 10.728 32.652C8.9712 32.571 8.019 32.2776 7.3836 32.0328C6.60165 31.7443 5.89431 31.2843 5.3136 30.6864C4.71575 30.1057 4.25567 29.3983 3.9672 28.6164C3.7206 27.981 3.4272 27.0288 3.348 25.2738C3.2616 23.3748 3.2436 22.8078 3.2436 18C3.2436 13.194 3.2616 12.6252 3.348 10.728C3.429 8.9712 3.7206 8.019 3.9672 7.3836C4.2948 6.5448 4.6854 5.9436 5.3136 5.3136C5.9436 4.6836 6.5448 4.2948 7.3836 3.9672C8.019 3.7206 8.9712 3.4272 10.7262 3.348C12.6252 3.2616 13.1922 3.2436 18 3.2436ZM18 23.9994C16.4089 23.9994 14.8829 23.3673 13.7578 22.2422C12.6327 21.1171 12.0006 19.5911 12.0006 18C12.0006 16.4089 12.6327 14.8829 13.7578 13.7578C14.8829 12.6327 16.4089 12.0006 18 12.0006C19.5911 12.0006 21.1171 12.6327 22.2422 13.7578C23.3673 14.8829 23.9994 16.4089 23.9994 18C23.9994 19.5911 23.3673 21.1171 22.2422 22.2422C21.1171 23.3673 19.5911 23.9994 18 23.9994V23.9994ZM18 8.757C16.7862 8.757 15.5843 8.99608 14.4629 9.46058C13.3414 9.92509 12.3225 10.6059 11.4642 11.4642C10.6059 12.3225 9.92509 13.3414 9.46058 14.4629C8.99608 15.5843 8.757 16.7862 8.757 18C8.757 19.2138 8.99608 20.4157 9.46058 21.5371C9.92509 22.6586 10.6059 23.6775 11.4642 24.5358C12.3225 25.3941 13.3414 26.0749 14.4629 26.5394C15.5843 27.0039 16.7862 27.243 18 27.243C20.4514 27.243 22.8024 26.2692 24.5358 24.5358C26.2692 22.8024 27.243 20.4514 27.243 18C27.243 15.5486 26.2692 13.1976 24.5358 11.4642C22.8024 9.73081 20.4514 8.757 18 8.757V8.757ZM29.7684 8.3916C29.7684 8.67526 29.7125 8.95613 29.604 9.2182C29.4954 9.48026 29.3363 9.71838 29.1357 9.91895C28.9352 10.1195 28.6971 10.2786 28.435 10.3872C28.1729 10.4957 27.8921 10.5516 27.6084 10.5516C27.3247 10.5516 27.0439 10.4957 26.7818 10.3872C26.5197 10.2786 26.2816 10.1195 26.081 9.91895C25.8805 9.71838 25.7214 9.48026 25.6128 9.2182C25.5043 8.95613 25.4484 8.67526 25.4484 8.3916C25.4484 7.81873 25.676 7.26933 26.081 6.86425C26.4861 6.45917 27.0355 6.2316 27.6084 6.2316C28.1813 6.2316 28.7307 6.45917 29.1357 6.86425C29.5408 7.26933 29.7684 7.81873 29.7684 8.3916" fill="#F2F2F2"/>
</svg>
