<svg width="70" height="69" viewBox="0 0 70 69" fill="none" xmlns="http://www.w3.org/2000/svg">
<g clip-path="url(#clip0)">
<path d="M1.02347 1.52762H68.9137V48.2661C68.9137 59.0058 60.2074 67.712 49.4677 67.712H1.02347V1.52762Z" stroke="black" stroke-width="2.04694"/>
<path d="M65.9216 50.8453C67.1047 49.443 68.115 47.5775 68.9134 45.2173V48.2662C68.9134 59.0059 60.2071 67.7121 49.4674 67.7121H47.6063C51.0322 66.8203 53.4229 65.6409 54.9759 64.1415C56.7733 62.4061 57.3506 60.3394 57.2463 58.1329C57.1773 56.6739 56.8097 55.1347 56.3137 53.5625C57.658 54.0099 59.0142 54.1844 60.3423 54.027C62.4288 53.7797 64.3351 52.7256 65.9216 50.8453Z" stroke="black" stroke-width="2.04694"/>
<path d="M13.9538 12.991H15.9394C15.8794 10.8055 13.9471 9.21965 11.1752 9.21965C8.43661 9.21965 6.3377 10.7855 6.3377 13.1376C6.3377 15.0366 7.697 16.1494 9.8892 16.7424L11.5017 17.1822C12.9609 17.5687 14.087 18.0484 14.087 19.2611C14.087 20.5938 12.8143 21.4733 11.0619 21.4733C9.47608 21.4733 8.15676 20.767 8.03682 19.2811H5.97122C6.10449 21.7532 8.01683 23.279 11.0752 23.279C14.2803 23.279 16.126 21.5932 16.126 19.2811C16.126 16.8224 13.9338 15.8695 12.2013 15.4431L10.8687 15.0966C9.80257 14.8234 8.38331 14.3237 8.38997 13.0177C8.38997 11.8583 9.44942 10.9987 11.1286 10.9987C12.6944 10.9987 13.8072 11.7317 13.9538 12.991ZM21.524 23.2591C23.7562 23.2591 25.3354 22.1596 25.7885 20.4938L23.9028 20.154C23.543 21.1202 22.6768 21.6132 21.544 21.6132C19.8382 21.6132 18.6922 20.5071 18.6389 18.5348H25.9151V17.8285C25.9151 14.1304 23.7029 12.6845 21.3841 12.6845C18.5323 12.6845 16.6532 14.8567 16.6532 18.0018C16.6532 21.1801 18.5056 23.2591 21.524 23.2591ZM18.6455 17.0423C18.7255 15.5897 19.7783 14.3303 21.3974 14.3303C22.9433 14.3303 23.9561 15.4764 23.9628 17.0423H18.6455ZM26.8122 23.0525H28.8045V16.8024C28.8045 15.4631 29.8373 14.4969 31.2499 14.4969C31.663 14.4969 32.1294 14.5702 32.2893 14.6169V12.7112C32.0894 12.6845 31.6963 12.6645 31.4431 12.6645C30.2437 12.6645 29.2176 13.3442 28.8445 14.4436H28.7378V12.8178H26.8122V23.0525ZM41.767 12.8178H39.6281L37.0427 20.6937H36.9361L34.3441 12.8178H32.2052L35.9233 23.0525H38.0556L41.767 12.8178ZM42.3259 23.0525H44.3182V12.8178H42.3259V23.0525ZM43.332 11.2386C44.0183 11.2386 44.5914 10.7055 44.5914 10.0525C44.5914 9.39955 44.0183 8.85983 43.332 8.85983C42.6391 8.85983 42.0727 9.39955 42.0727 10.0525C42.0727 10.7055 42.6391 11.2386 43.332 11.2386ZM49.9961 23.2591C52.4149 23.2591 53.9807 21.8065 54.2006 19.8142H52.2616C52.0084 20.9203 51.1488 21.5733 50.0094 21.5733C48.3236 21.5733 47.2375 20.1673 47.2375 17.9351C47.2375 15.7429 48.3436 14.3637 50.0094 14.3637C51.2754 14.3637 52.0484 15.1632 52.2616 16.1227H54.2006C53.9874 14.0571 52.3016 12.6845 49.9761 12.6845C47.0909 12.6845 45.2252 14.8567 45.2252 17.9818C45.2252 21.0669 47.0243 23.2591 49.9961 23.2591ZM59.4288 23.2591C61.6609 23.2591 63.2401 22.1596 63.6932 20.4938L61.8075 20.154C61.4477 21.1202 60.5815 21.6132 59.4488 21.6132C57.743 21.6132 56.5969 20.5071 56.5436 18.5348H63.8198V17.8285C63.8198 14.1304 61.6076 12.6845 59.2888 12.6845C56.437 12.6845 54.558 14.8567 54.558 18.0018C54.558 21.1801 56.4103 23.2591 59.4288 23.2591ZM56.5503 17.0423C56.6302 15.5897 57.683 14.3303 59.3022 14.3303C60.848 14.3303 61.8608 15.4764 61.8675 17.0423H56.5503ZM10.9287 41.0525C15.0865 41.0525 17.4919 38.4738 17.4919 34.2094C17.4919 29.9649 15.0865 27.4062 11.0686 27.4062H6.51094V41.0525H10.9287ZM8.56988 39.2534V29.2053H10.942C13.9271 29.2053 15.4663 30.991 15.4663 34.2094C15.4663 37.441 13.9271 39.2534 10.8154 39.2534H8.56988ZM22.9899 41.2591C25.2221 41.2591 26.8013 40.1596 27.2544 38.4938L25.3687 38.154C25.0089 39.1202 24.1427 39.6132 23.0099 39.6132C21.3042 39.6132 20.1581 38.5071 20.1048 36.5348H27.381V35.8285C27.381 32.1304 25.1688 30.6845 22.85 30.6845C19.9982 30.6845 18.1191 32.8567 18.1191 36.0018C18.1191 39.1801 19.9715 41.2591 22.9899 41.2591ZM20.1114 35.0423C20.1914 33.5897 21.2442 32.3303 22.8633 32.3303C24.4092 32.3303 25.422 33.4764 25.4287 35.0423H20.1114ZM35.9474 33.3165C35.5343 31.724 34.2883 30.6845 32.0761 30.6845C29.764 30.6845 28.1248 31.9039 28.1248 33.7163C28.1248 35.1689 29.0044 36.135 30.9234 36.5615L32.6558 36.9413C33.642 37.1612 34.1017 37.6009 34.1017 38.2406C34.1017 39.0335 33.2555 39.6532 31.9495 39.6532C30.7568 39.6532 29.9905 39.1401 29.7507 38.134L27.825 38.4272C28.1581 40.2396 29.664 41.2591 31.9628 41.2591C34.4349 41.2591 36.1473 39.9464 36.1473 38.094C36.1473 36.6481 35.2278 35.7552 33.3488 35.3221L31.723 34.949C30.5969 34.6825 30.1105 34.3026 30.1171 33.6097C30.1105 32.8234 30.9634 32.2637 32.0961 32.2637C33.3355 32.2637 33.9085 32.95 34.1417 33.6363L35.9474 33.3165ZM37.0244 41.0525H39.0167V30.8178H37.0244V41.0525ZM38.0306 29.2386C38.7169 29.2386 39.2899 28.7055 39.2899 28.0525C39.2899 27.3996 38.7169 26.8598 38.0306 26.8598C37.3376 26.8598 36.7712 27.3996 36.7712 28.0525C36.7712 28.7055 37.3376 29.2386 38.0306 29.2386ZM44.6747 45.0837C47.28 45.0837 49.2923 43.891 49.2923 41.279V30.8178H47.34V32.4769H47.1934C46.8402 31.8439 46.1339 30.6845 44.2282 30.6845C41.7562 30.6845 39.9371 32.6368 39.9371 35.8952C39.9371 39.1601 41.7962 40.8992 44.2149 40.8992C46.0939 40.8992 46.8202 39.8398 47.18 39.1868H47.3066V41.1991C47.3066 42.7783 46.2072 43.4779 44.6947 43.4779C43.0355 43.4779 42.3892 42.645 42.036 42.0786L40.3236 42.7849C40.8633 44.0176 42.2293 45.0837 44.6747 45.0837ZM44.6547 39.2468C42.8756 39.2468 41.9494 37.8808 41.9494 35.8685C41.9494 33.9029 42.8556 32.377 44.6547 32.377C46.3938 32.377 47.3266 33.7962 47.3266 35.8685C47.3266 37.9807 46.3738 39.2468 44.6547 39.2468ZM52.6431 34.9756C52.6431 33.3431 53.6426 32.4103 55.0285 32.4103C56.3811 32.4103 57.2007 33.2965 57.2007 34.7824V41.0525H59.193V34.5425C59.193 32.0105 57.8004 30.6845 55.7082 30.6845C54.1689 30.6845 53.1628 31.3975 52.6897 32.4836H52.5631V30.8178H50.6508V41.0525H52.6431V34.9756ZM17.8451 49.8439C17.3787 46.9254 15.0932 45.2196 12.208 45.2196C8.67649 45.2196 6.07117 47.8649 6.07117 52.2294C6.07117 56.5938 8.66316 59.2391 12.208 59.2391C15.2064 59.2391 17.3986 57.36 17.8451 54.6614L15.7662 54.6548C15.413 56.4005 13.9471 57.36 12.2213 57.36C9.88253 57.36 8.11678 55.5676 8.11678 52.2294C8.11678 48.9177 9.87587 47.0987 12.228 47.0987C13.9671 47.0987 15.4263 48.0782 15.7662 49.8439H17.8451ZM20.8277 45.4062H18.8354V59.0525H20.8277V45.4062ZM28.6779 54.808C28.6845 56.5471 27.3919 57.3734 26.2725 57.3734C25.0398 57.3734 24.1869 56.4805 24.1869 55.0879V48.8178H22.1946V55.3278C22.1946 57.8664 23.5872 59.1858 25.5528 59.1858C27.092 59.1858 28.1382 58.3728 28.6112 57.2801H28.7179V59.0525H30.6768V48.8178H28.6779V54.808ZM32.2002 59.0525H34.1459V57.46H34.3125C34.6723 58.113 35.4053 59.2524 37.271 59.2524C39.7497 59.2524 41.5487 57.2667 41.5487 53.9551C41.5487 50.6368 39.723 48.6845 37.251 48.6845C35.352 48.6845 34.6656 49.8439 34.3125 50.4769H34.1926V45.4062H32.2002V59.0525ZM34.1526 53.9351C34.1526 51.7962 35.0854 50.377 36.8245 50.377C38.6303 50.377 39.5365 51.9029 39.5365 53.9351C39.5365 55.9874 38.6036 57.5533 36.8245 57.5533C35.1121 57.5533 34.1526 56.0874 34.1526 53.9351ZM43.7851 59.1791C44.5114 59.1791 45.1178 58.5861 45.1178 57.8464C45.1178 57.1202 44.5114 56.5205 43.7851 56.5205C43.0522 56.5205 42.4525 57.1202 42.4525 57.8464C42.4525 58.5861 43.0522 59.1791 43.7851 59.1791Z" fill="black"/>
</g>
<defs>
<clipPath id="clip0">
<rect y="0.50415" width="69.9371" height="68.2314" fill="white"/>
</clipPath>
</defs>
</svg>
