<svg width="51" height="49" viewBox="0 0 51 49" fill="none" xmlns="http://www.w3.org/2000/svg">
<g clip-path="url(#clip0)">
<path d="M2.35833 1.99212H48.8071V34.2616C48.8071 41.4265 42.9988 47.2348 35.8338 47.2348H2.35833V1.99212Z" fill="#F9EC77" stroke="black" stroke-width="2.9979"/>
<path d="M47.0387 32.6779C47.681 31.9161 48.2664 31.0174 48.7896 29.9783V34.2492C48.7896 41.4141 42.9813 47.2225 35.8164 47.2225H33.2917C34.8251 46.5735 36.0423 45.8084 36.9704 44.9116C38.755 43.1873 39.3228 41.124 39.2211 38.9728C39.1696 37.8842 38.9463 36.7575 38.6323 35.6206C39.6058 35.84 40.5885 35.9065 41.5636 35.7908C43.6332 35.5453 45.5046 34.4975 47.0387 32.6779Z" stroke="black" stroke-width="2.9979"/>
</g>
<defs>
<clipPath id="clip0">
<rect x="0.859375" y="0.493164" width="49.4466" height="48.2406" fill="white"/>
</clipPath>
</defs>
</svg>
