<svg width="297" height="193" viewBox="0 0 297 193" fill="none" xmlns="http://www.w3.org/2000/svg">
<rect x="1.77539" y="1.63354" width="293.908" height="189.835" fill="#00D36C" stroke="black" stroke-width="2"/>
<rect x="30.0234" y="116.486" width="67.4883" height="10.1736" rx="5.08681" fill="white"/>
<path d="M228.014 91.7533L222.901 86.7818L217.436 92.0955L209.54 84.4189L198.962 94.7041V81.1832H219.804V78.727H196.436V111.886H230.541V89.7801H228.014V91.7533ZM222.901 90.255L228.014 95.2264V102.381L219.221 93.8313L222.901 90.255ZM198.962 109.432V98.1788L209.54 87.8937L228.014 105.855V109.433L198.962 109.432Z" fill="white"/>
<path d="M228.646 80.5707V76.8864H226.12V80.5707H222.33V83.027H226.12V86.7113H228.646V83.027H232.435V80.5707H228.646Z" fill="white"/>
<rect x="160.936" y="47.3864" width="103" height="92" rx="1.5" stroke="white" stroke-width="3"/>
<rect x="33.5117" y="75.1769" width="88" height="3.30749" fill="white"/>
<rect x="33.5117" y="51.1769" width="64" height="7.463" fill="white"/>
<rect x="33.5117" y="88.4064" width="50.6094" height="3.30749" fill="white"/>
<rect x="33.5117" y="81.7919" width="69.4958" height="3.30749" fill="white"/>
<rect x="33.5117" y="95.0214" width="50.6094" height="3.30749" fill="white"/>
</svg>
