<svg width="465" height="300" viewBox="0 0 465 300" fill="none" xmlns="http://www.w3.org/2000/svg">
<rect x="1.52597" y="1.52597" width="461.767" height="296.76" fill="#FF8A00" stroke="black" stroke-width="3.05194"/>
<path d="M254.994 106.958L272.076 95M260.119 127.456L285.742 118.915M260.119 146.247H290.867M261.827 166.745L285.742 176.994M254.994 187.244L272.076 199.201" stroke="black" stroke-width="3.47746"/>
<rect x="173" y="130.873" width="17.0822" height="30.7479" fill="white" stroke="black" stroke-width="3.47746"/>
<path d="M232.787 95L190.082 130.873V161.62L232.787 204.326V95Z" fill="white" stroke="black" stroke-width="3.47746" stroke-linejoin="bevel"/>
<path d="M234.41 203.711C237.272 203.711 239.549 201.543 241.282 198.767C243.072 195.901 244.621 191.869 245.896 187.04C248.454 177.358 250.015 164.078 250.015 149.476C250.015 134.875 248.454 121.595 245.896 111.912C244.621 107.084 243.072 103.052 241.282 100.185C239.549 97.4098 237.272 95.2422 234.41 95.2422C231.548 95.2422 229.271 97.4098 227.537 100.185C225.747 103.052 224.199 107.084 222.923 111.912C220.366 121.595 218.804 134.875 218.804 149.476C218.804 164.078 220.366 177.358 222.923 187.04C224.199 191.869 225.747 195.901 227.537 198.767C229.271 201.543 231.548 203.711 234.41 203.711Z" fill="white" stroke="black" stroke-width="3.47746"/>
<path d="M219.121 147.955C219.121 134.289 220.829 129.164 220.829 129.164C223.676 131.442 229.37 138.389 229.37 147.955C229.37 157.521 223.676 165.606 220.829 168.453C220.829 168.453 219.121 161.621 219.121 147.955Z" stroke="black" stroke-width="3.47746"/>
</svg>
