<svg width="38" height="38" viewBox="0 0 38 38" fill="none" xmlns="http://www.w3.org/2000/svg">
<path d="M19.0164 3.19702C10.3159 3.19702 3.19727 10.3157 3.19727 19.0161C3.19727 27.7149 10.3159 34.8336 19.0164 34.8336C27.7152 34.8336 34.8339 27.7149 34.8339 19.0161C34.8339 10.3157 27.7944 3.19702 19.0164 3.19702ZM26.2918 26.054C25.9767 26.5274 25.4225 26.6874 24.9459 26.3723C21.2267 24.0764 16.5606 23.6014 11.0237 24.8665C10.4727 25.028 9.99768 24.6322 9.83935 24.1556C9.67943 23.6014 10.0753 23.1296 10.5518 22.9697C16.5606 21.6239 21.7824 22.1796 25.8944 24.7114C26.4485 24.9473 26.5277 25.579 26.2918 26.054ZM28.1918 21.7046C27.7944 22.2572 27.0834 22.4947 26.5277 22.0989C22.2574 19.4927 15.7737 18.6979 10.7909 20.2812C10.1608 20.4411 9.4451 20.1229 9.28835 19.4927C9.12843 18.8562 9.44668 18.1437 10.0784 17.9854C15.8513 16.2469 22.9715 17.1177 27.8735 20.1244C28.3485 20.3604 28.586 21.1504 28.1918 21.7046ZM28.3485 17.2729C23.2866 14.2693 14.8237 13.9526 9.99768 15.4584C9.63067 15.5641 9.23703 15.5244 8.89854 15.3475C8.56004 15.1706 8.30271 14.8701 8.18002 14.5084C8.07238 14.1409 8.11098 13.7461 8.28774 13.4064C8.4645 13.0668 8.76573 12.8086 9.12843 12.6859C14.7445 11.025 23.9991 11.3401 29.8527 14.825C30.5636 15.2193 30.8011 16.1693 30.4053 16.8802C30.0094 17.4344 29.061 17.6687 28.3485 17.2729Z" fill="#E5E5E5"/>
</svg>
