<svg width="37" height="36" viewBox="0 0 37 36" fill="none" xmlns="http://www.w3.org/2000/svg">
<path d="M18.1982 0C8.29776 0 0.197266 8.1005 0.197266 18.0009C0.197266 27.8995 8.29776 36 18.1982 36C28.0968 36 36.1973 27.8995 36.1973 18.0009C36.1973 8.1005 28.1869 0 18.1982 0ZM26.477 26.0095C26.1185 26.5482 25.4879 26.7302 24.9456 26.3717C20.7134 23.7592 15.4037 23.2187 9.10313 24.6582C8.47613 24.842 7.93562 24.3916 7.75545 23.8493C7.57347 23.2187 8.0239 22.6817 8.56622 22.4998C15.4037 20.9683 21.3458 21.6007 26.0248 24.4817C26.6554 24.7501 26.7455 25.469 26.477 26.0095ZM28.6391 21.0602C28.1869 21.689 27.3779 21.9593 26.7455 21.5088C21.8863 18.5432 14.5083 17.6388 8.83827 19.4405C8.12119 19.6224 7.30682 19.2603 7.12845 18.5432C6.94648 17.8189 7.30862 17.0082 8.0275 16.828C14.5965 14.8497 22.6988 15.8406 28.2769 19.2621C28.8175 19.5306 29.0877 20.4296 28.6391 21.0602V21.0602ZM28.8175 16.0172C23.0574 12.5994 13.4272 12.239 7.93562 13.9525C7.51799 14.0728 7.07006 14.0276 6.68487 13.8263C6.29969 13.625 6.00687 13.283 5.86725 12.8714C5.74477 12.4533 5.7887 12.004 5.98983 11.6175C6.19097 11.231 6.53375 10.9373 6.94648 10.7977C13.3371 8.90766 23.8682 9.2662 30.5291 13.2318C31.338 13.6804 31.6083 14.7614 31.1579 15.5704C30.7074 16.201 29.6282 16.4676 28.8175 16.0172Z" fill="#E5E5E5"/>
</svg>
