<svg width="39" height="30" viewBox="0 0 39 30" fill="none" xmlns="http://www.w3.org/2000/svg">
<path d="M38.4523 4.23488C37.0569 4.8034 35.5383 5.21257 33.9741 5.37192C35.5981 4.46072 36.8142 3.02118 37.3943 1.32337C35.8704 2.17955 34.201 2.77992 32.46 3.09784C31.7324 2.36319 30.8524 1.77793 29.8748 1.37853C28.8972 0.979136 27.843 0.774163 26.7779 0.776385C22.4684 0.776385 19.0025 4.07553 19.0025 8.12408C19.0025 8.6926 19.0755 9.26112 19.1941 9.80811C12.7412 9.48939 6.98608 6.57788 3.15997 2.12016C2.46281 3.24478 2.09747 4.52529 2.10197 5.82846C2.10197 8.37819 3.47463 10.6264 5.56782 11.9487C4.33427 11.9028 3.12961 11.5826 2.05181 11.0141V11.1045C2.05181 14.675 4.72416 17.6339 8.28577 18.3144C7.61704 18.4784 6.92911 18.5624 6.23819 18.5642C5.73199 18.5642 5.25316 18.5168 4.76976 18.4522C5.75479 21.3637 8.62323 23.4784 12.0389 23.5473C9.36657 25.5242 6.01929 26.6871 2.38471 26.6871C1.73259 26.6871 1.13062 26.6656 0.505859 26.5967C3.95346 28.6856 8.04407 29.8915 12.4493 29.8915C26.7505 29.8915 34.576 18.702 34.576 8.98978C34.576 8.67107 34.576 8.35235 34.5532 8.03363C36.0673 6.98704 37.3943 5.69064 38.4523 4.23488Z" fill="#F2F2F2"/>
</svg>
