<svg width="48" height="36" viewBox="0 0 48 36" fill="none" xmlns="http://www.w3.org/2000/svg">
<path d="M47.4255 4.27635C45.7 4.97931 43.8224 5.48523 41.8883 5.68227C43.8963 4.55559 45.4 2.77564 46.1173 0.676353C44.233 1.73499 42.1688 2.47733 40.0162 2.87043C39.1166 1.96205 38.0284 1.2384 36.8197 0.744558C35.6109 0.250717 34.3074 -0.00272547 32.9904 2.21027e-05C27.6618 2.21027e-05 23.3764 4.07931 23.3764 9.08522C23.3764 9.78818 23.4667 10.4911 23.6133 11.1675C15.6345 10.7734 8.51845 7.17339 3.78758 1.66156C2.92557 3.05211 2.47384 4.63542 2.4794 6.24676C2.4794 9.39942 4.17665 12.1793 6.76482 13.8142C5.23957 13.7575 3.75004 13.3615 2.41738 12.6586V12.7704C2.41738 17.1852 5.72166 20.8438 10.1255 21.6852C9.29862 21.8881 8.44801 21.9918 7.59371 21.9941C6.96781 21.9941 6.37575 21.9355 5.77804 21.8556C6.996 25.4556 10.5427 28.0704 14.7661 28.1556C11.4619 30.6 7.32305 32.0379 2.829 32.0379C2.02267 32.0379 1.27836 32.0112 0.505859 31.926C4.76872 34.5089 9.82663 36 15.2736 36C32.9566 36 42.6326 22.1645 42.6326 10.1556C42.6326 9.76155 42.6326 9.36747 42.6044 8.97339C44.4764 7.67931 46.1173 6.07635 47.4255 4.27635Z" fill="#F2F2F2"/>
</svg>
