<svg width="50" height="36" viewBox="0 0 50 36" fill="none" xmlns="http://www.w3.org/2000/svg">
<path d="M49.7961 17.8449C49.7961 17.723 49.7961 17.5845 49.7906 17.4238C49.7851 16.9751 49.774 16.4709 49.7629 15.9335C49.7186 14.3878 49.641 12.8476 49.5191 11.3961C49.3529 9.39612 49.1092 7.72853 48.7767 6.47645C48.426 5.1698 47.7384 3.97811 46.7827 3.02048C45.827 2.06285 44.6367 1.37283 43.3308 1.01939C41.7629 0.598338 38.6936 0.33795 34.3723 0.177285C32.3169 0.0997228 30.1175 0.0498612 27.918 0.0221603C27.1479 0.01108 26.4333 0.00554017 25.7906 0H24.1618C23.5191 0.00554017 22.8044 0.01108 22.0344 0.0221603C19.8349 0.0498612 17.6355 0.0997228 15.5801 0.177285C11.2587 0.34349 8.18395 0.603878 6.62162 1.01939C5.31526 1.37196 4.1245 2.06169 3.16868 3.01945C2.21286 3.97722 1.52556 5.16937 1.17564 6.47645C0.837691 7.72853 0.599463 9.39612 0.433258 11.3961C0.311375 12.8476 0.233812 14.3878 0.189491 15.9335C0.17287 16.4709 0.16733 16.9751 0.16179 17.4238C0.16179 17.5845 0.15625 17.723 0.15625 17.8449V18.1551C0.15625 18.277 0.15625 18.4155 0.16179 18.5762C0.16733 19.0249 0.178411 19.5291 0.189491 20.0665C0.233812 21.6122 0.311375 23.1524 0.433258 24.6039C0.599463 26.6039 0.843231 28.2715 1.17564 29.5235C1.88478 32.1773 3.96788 34.2715 6.62162 34.9806C8.18395 35.4017 11.2587 35.662 15.5801 35.8227C17.6355 35.9003 19.8349 35.9501 22.0344 35.9778C22.8044 35.9889 23.5191 35.9945 24.1618 36H25.7906C26.4333 35.9945 27.1479 35.9889 27.918 35.9778C30.1175 35.9501 32.3169 35.9003 34.3723 35.8227C38.6936 35.6565 41.7684 35.3961 43.3308 34.9806C45.9845 34.2715 48.0676 32.1828 48.7767 29.5235C49.1147 28.2715 49.3529 26.6039 49.5191 24.6039C49.641 23.1524 49.7186 21.6122 49.7629 20.0665C49.7795 19.5291 49.7851 19.0249 49.7906 18.5762C49.7906 18.4155 49.7961 18.277 49.7961 18.1551V17.8449V17.8449ZM45.8072 18.133C45.8072 18.2493 45.8072 18.3767 45.8017 18.5263C45.7961 18.9584 45.7851 19.4349 45.774 19.9501C45.7352 21.4238 45.6576 22.8975 45.5413 24.2659C45.3917 26.0499 45.1812 27.5125 44.9208 28.4931C44.5773 29.7729 43.569 30.7867 42.2948 31.1247C41.1313 31.4349 38.2006 31.6842 34.2172 31.8338C32.2006 31.9114 30.0288 31.9612 27.8626 31.9889C27.1036 32 26.4 32.0055 25.7684 32.0055H24.184L22.0898 31.9889C19.9236 31.9612 17.7574 31.9114 15.7352 31.8338C11.7518 31.6787 8.81553 31.4349 7.65763 31.1247C6.3834 30.7812 5.37509 29.7729 5.0316 28.4931C4.77121 27.5125 4.56068 26.0499 4.4111 24.2659C4.29475 22.8975 4.22273 21.4238 4.17841 19.9501C4.16179 19.4349 4.15625 18.9529 4.15071 18.5263C4.15071 18.3767 4.14517 18.2438 4.14517 18.133V17.867C4.14517 17.7507 4.14517 17.6233 4.15071 17.4737C4.15625 17.0415 4.16733 16.5651 4.17841 16.0499C4.21719 14.5762 4.29475 13.1025 4.4111 11.7341C4.56068 9.95014 4.77121 8.48753 5.0316 7.50692C5.37509 6.22715 6.3834 5.2133 7.65763 4.87535C8.82107 4.5651 11.7518 4.31579 15.7352 4.1662C17.7518 4.08864 19.9236 4.03878 22.0898 4.01108C22.8488 4 23.5524 3.99446 24.184 3.99446H25.7684L27.8626 4.01108C30.0288 4.03878 32.195 4.08864 34.2172 4.1662C38.2006 4.32133 41.1369 4.5651 42.2948 4.87535C43.569 5.21884 44.5773 6.22715 44.9208 7.50692C45.1812 8.48753 45.3917 9.95014 45.5413 11.7341C45.6576 13.1025 45.7297 14.5762 45.774 16.0499C45.7906 16.5651 45.7961 17.0471 45.8017 17.4737C45.8017 17.6233 45.8072 17.7562 45.8072 17.867V18.133ZM20.0454 25.4238L32.8986 17.9446L20.0454 10.5762V25.4238Z" fill="#E5E5E5"/>
</svg>
