<svg width="43" height="43" viewBox="0 0 43 43" fill="none" xmlns="http://www.w3.org/2000/svg">
<path d="M39.9062 21.5385C39.9062 21.4483 39.9062 21.3458 39.9021 21.2268C39.898 20.8946 39.8898 20.5213 39.8816 20.1235C39.8488 18.9791 39.7914 17.8389 39.7012 16.7643C39.5781 15.2836 39.3977 14.0491 39.1516 13.1221C38.8919 12.1548 38.3828 11.2725 37.6753 10.5635C36.9678 9.85459 36.0866 9.34374 35.1197 9.08208C33.959 8.77036 31.6867 8.57759 28.4875 8.45864C26.9658 8.40122 25.3375 8.36431 23.7092 8.3438C23.1391 8.3356 22.61 8.33149 22.1342 8.32739H20.9283C20.4525 8.33149 19.9234 8.3356 19.3533 8.3438C17.725 8.36431 16.0967 8.40122 14.575 8.45864C11.3758 8.58169 9.09941 8.77446 7.94277 9.08208C6.97563 9.3431 6.09407 9.85373 5.38645 10.5628C4.67883 11.2719 4.16999 12.1544 3.91094 13.1221C3.66074 14.0491 3.48438 15.2836 3.36133 16.7643C3.27109 17.8389 3.21367 18.9791 3.18086 20.1235C3.16855 20.5213 3.16445 20.8946 3.16035 21.2268C3.16035 21.3458 3.15625 21.4483 3.15625 21.5385V21.7682C3.15625 21.8584 3.15625 21.961 3.16035 22.0799C3.16445 22.4122 3.17266 22.7854 3.18086 23.1832C3.21367 24.3276 3.27109 25.4678 3.36133 26.5424C3.48438 28.0231 3.66484 29.2577 3.91094 30.1846C4.43594 32.1493 5.97812 33.6997 7.94277 34.2247C9.09941 34.5364 11.3758 34.7291 14.575 34.8481C16.0967 34.9055 17.725 34.9424 19.3533 34.9629C19.9234 34.9711 20.4525 34.9752 20.9283 34.9793H22.1342C22.61 34.9752 23.1391 34.9711 23.7092 34.9629C25.3375 34.9424 26.9658 34.9055 28.4875 34.8481C31.6867 34.725 33.9631 34.5323 35.1197 34.2247C37.0844 33.6997 38.6266 32.1534 39.1516 30.1846C39.4018 29.2577 39.5781 28.0231 39.7012 26.5424C39.7914 25.4678 39.8488 24.3276 39.8816 23.1832C39.8939 22.7854 39.898 22.4122 39.9021 22.0799C39.9021 21.961 39.9062 21.8584 39.9062 21.7682V21.5385ZM36.9531 21.7518C36.9531 21.8379 36.9531 21.9323 36.949 22.043C36.9449 22.3629 36.9367 22.7157 36.9285 23.0971C36.8998 24.1881 36.8424 25.2791 36.7563 26.2922C36.6455 27.6129 36.4896 28.6958 36.2969 29.4217C36.0426 30.3692 35.2961 31.1198 34.3527 31.37C33.4914 31.5997 31.3217 31.7842 28.3727 31.895C26.8797 31.9524 25.2719 31.9893 23.6682 32.0098C23.1062 32.018 22.5854 32.0221 22.1178 32.0221H20.9447L19.3943 32.0098C17.7906 31.9893 16.1869 31.9524 14.6898 31.895C11.7408 31.7801 9.56699 31.5997 8.70977 31.37C7.76641 31.1157 7.01992 30.3692 6.76562 29.4217C6.57285 28.6958 6.41699 27.6129 6.30625 26.2922C6.22012 25.2791 6.1668 24.1881 6.13398 23.0971C6.12168 22.7157 6.11758 22.3588 6.11348 22.043C6.11348 21.9323 6.10938 21.8338 6.10938 21.7518V21.5549C6.10938 21.4688 6.10938 21.3745 6.11348 21.2637C6.11758 20.9438 6.12578 20.5911 6.13398 20.2096C6.1627 19.1186 6.22012 18.0276 6.30625 17.0145C6.41699 15.6938 6.57285 14.611 6.76562 13.885C7.01992 12.9375 7.76641 12.187 8.70977 11.9368C9.57109 11.7071 11.7408 11.5225 14.6898 11.4118C16.1828 11.3543 17.7906 11.3174 19.3943 11.2969C19.9562 11.2887 20.4771 11.2846 20.9447 11.2846H22.1178L23.6682 11.2969C25.2719 11.3174 26.8756 11.3543 28.3727 11.4118C31.3217 11.5266 33.4955 11.7071 34.3527 11.9368C35.2961 12.1911 36.0426 12.9375 36.2969 13.885C36.4896 14.611 36.6455 15.6938 36.7563 17.0145C36.8424 18.0276 36.8957 19.1186 36.9285 20.2096C36.9408 20.5911 36.9449 20.9479 36.949 21.2637C36.949 21.3745 36.9531 21.4729 36.9531 21.5549V21.7518ZM17.8809 27.1495L27.3965 21.6124L17.8809 16.1573V27.1495Z" fill="#E5E5E5"/>
</svg>
