<svg width="52" height="61" viewBox="0 0 52 61" fill="none" xmlns="http://www.w3.org/2000/svg">
<path d="M31.4487 25.2635C29.756 25.2635 28.4196 26.7513 28.4196 28.6035C28.4196 30.4556 29.7857 31.9434 31.4487 31.9434C33.1415 31.9434 34.4778 30.4556 34.4778 28.6035C34.4778 26.7513 33.1118 25.2635 31.4487 25.2635ZM20.6092 25.2635C18.9165 25.2635 17.5801 26.7513 17.5801 28.6035C17.5801 30.4556 18.9462 31.9434 20.6092 31.9434C22.3019 31.9434 23.6383 30.4556 23.6383 28.6035C23.668 26.7513 22.3019 25.2635 20.6092 25.2635Z" fill="#7289DA"/>
<path d="M45.8824 0H6.08795C2.73215 0 0 2.79342 0 6.22446V46.9112C0 50.3422 2.73215 53.1356 6.08795 53.1356H39.7647L38.1908 47.5792L41.992 51.162L45.5854 54.5323L52 60.2102V6.22446C51.9703 2.79342 49.2381 0 45.8824 0ZM34.4192 39.3204C34.4192 39.3204 33.3501 38.0147 32.4592 36.8913C36.3495 35.7679 37.8344 33.3084 37.8344 33.3084C36.6168 34.1283 35.4586 34.7052 34.4192 35.0999C32.9343 35.7375 31.5089 36.1322 30.1131 36.4055C27.2621 36.952 24.6488 36.8002 22.4215 36.3751C20.7287 36.0411 19.2736 35.5857 18.056 35.0695C17.3729 34.7962 16.6305 34.4622 15.8881 34.0372C15.799 33.9764 15.7099 33.9461 15.6208 33.8853C15.5614 33.855 15.5317 33.8246 15.502 33.8246C14.9674 33.521 14.6705 33.3084 14.6705 33.3084C14.6705 33.3084 16.0959 35.7071 19.8675 36.8609C18.9766 38.0147 17.8778 39.3507 17.8778 39.3507C11.3147 39.1382 8.8201 34.7659 8.8201 34.7659C8.8201 25.08 13.0965 17.2159 13.0965 17.2159C17.3729 13.9671 21.4118 14.0582 21.4118 14.0582L21.7087 14.4225C16.3632 15.971 13.928 18.3697 13.928 18.3697C13.928 18.3697 14.5814 18.0054 15.6802 17.5196C18.8578 16.0925 21.3821 15.7281 22.4215 15.6067C22.5997 15.5763 22.7481 15.546 22.9263 15.546C24.7379 15.3031 26.787 15.2423 28.9252 15.4852C31.7464 15.8192 34.7756 16.6694 37.8641 18.3697C37.8641 18.3697 35.518 16.0925 30.4694 14.544L30.8852 14.0582C30.8852 14.0582 34.9537 13.9671 39.2005 17.2159C39.2005 17.2159 43.4769 25.08 43.4769 34.7659C43.4769 34.7355 40.9823 39.1078 34.4192 39.3204Z" fill="#7289DA"/>
</svg>
