<svg width="22" height="23" viewBox="0 0 22 23" fill="none" xmlns="http://www.w3.org/2000/svg">
<g clip-path="url(#clip0)">
<path d="M1.27071 9.51047L1.26833 9.50928C1.26833 9.50928 0.0449219 16.9159 0.0449219 17.9836C0.0449219 19.0716 0.84601 19.9532 1.8344 19.9532C2.24001 19.9532 2.60983 19.7993 2.90987 19.5488L8.9738 14.2174L1.27071 9.51047ZM20.1735 9.51047L20.1759 9.50928C20.1759 9.50928 21.3993 16.9159 21.3993 17.9836C21.3993 19.0716 20.5982 19.9532 19.6098 19.9532C19.2042 19.9532 18.8344 19.7993 18.5344 19.5488L12.4704 14.2174L20.1735 9.51047Z" fill="#31373D"/>
<path d="M15.4921 14.9948C18.2922 14.9948 20.5622 12.7248 20.5622 9.92467C20.5622 7.12449 18.2922 4.85449 15.4921 4.85449C12.6919 4.85449 10.4219 7.12449 10.4219 9.92467C10.4219 12.7248 12.6919 14.9948 15.4921 14.9948Z" fill="#14171A"/>
<path d="M5.94908 14.9948C8.74926 14.9948 11.0193 12.7248 11.0193 9.92467C11.0193 7.12449 8.74926 4.85449 5.94908 4.85449C3.1489 4.85449 0.878906 7.12449 0.878906 9.92467C0.878906 12.7248 3.1489 14.9948 5.94908 14.9948Z" fill="#14171A"/>
<path d="M5.94922 4.85449H15.4931V14.9173H5.94922V4.85449Z" fill="#14171A"/>
<path d="M7.79886 17.5303C9.44603 17.5303 10.7813 16.1951 10.7813 14.5479C10.7813 12.9007 9.44603 11.5654 7.79886 11.5654C6.1517 11.5654 4.81641 12.9007 4.81641 14.5479C4.81641 16.1951 6.1517 17.5303 7.79886 17.5303Z" fill="#14171A"/>
<path d="M13.6446 17.5303C15.2917 17.5303 16.627 16.1951 16.627 14.5479C16.627 12.9007 15.2917 11.5654 13.6446 11.5654C11.9974 11.5654 10.6621 12.9007 10.6621 14.5479C10.6621 16.1951 11.9974 17.5303 13.6446 17.5303Z" fill="#14171A"/>
<path d="M13.6449 16.3372C14.6332 16.3372 15.4344 15.5361 15.4344 14.5478C15.4344 13.5595 14.6332 12.7583 13.6449 12.7583C12.6566 12.7583 11.8555 13.5595 11.8555 14.5478C11.8555 15.5361 12.6566 16.3372 13.6449 16.3372Z" fill="#67757F"/>
<path d="M7.79924 16.3372C8.78754 16.3372 9.58871 15.5361 9.58871 14.5478C9.58871 13.5595 8.78754 12.7583 7.79924 12.7583C6.81094 12.7583 6.00977 13.5595 6.00977 14.5478C6.00977 15.5361 6.81094 16.3372 7.79924 16.3372Z" fill="#67757F"/>
<path d="M15.3507 8.24585C15.8788 8.24585 16.3069 7.81775 16.3069 7.28967C16.3069 6.76159 15.8788 6.3335 15.3507 6.3335C14.8226 6.3335 14.3945 6.76159 14.3945 7.28967C14.3945 7.81775 14.8226 8.24585 15.3507 8.24585Z" fill="#FFCC4D"/>
<path d="M15.3507 12.1077C15.8788 12.1077 16.3069 11.6796 16.3069 11.1515C16.3069 10.6234 15.8788 10.1953 15.3507 10.1953C14.8226 10.1953 14.3945 10.6234 14.3945 11.1515C14.3945 11.6796 14.8226 12.1077 15.3507 12.1077Z" fill="#77B255"/>
<path d="M13.4191 10.177C13.9471 10.177 14.3752 9.7489 14.3752 9.22082C14.3752 8.69274 13.9471 8.26465 13.4191 8.26465C12.891 8.26465 12.4629 8.69274 12.4629 9.22082C12.4629 9.7489 12.891 10.177 13.4191 10.177Z" fill="#50A5E6"/>
<path d="M17.2823 10.177C17.8104 10.177 18.2385 9.7489 18.2385 9.22082C18.2385 8.69274 17.8104 8.26465 17.2823 8.26465C16.7543 8.26465 16.3262 8.69274 16.3262 9.22082C16.3262 9.7489 16.7543 10.177 17.2823 10.177Z" fill="#DD2E44"/>
<path d="M6.65057 8.11346V6.82027C6.65057 6.74038 6.61884 6.66376 6.56235 6.60727C6.50586 6.55078 6.42924 6.51904 6.34935 6.51904H5.42001C5.34012 6.51904 5.2635 6.55078 5.20701 6.60727C5.15052 6.66376 5.11879 6.74038 5.11879 6.82027V8.11346L5.88468 8.87996L6.65057 8.11346ZM5.11819 10.2787V11.5719C5.11819 11.7383 5.253 11.8731 5.41942 11.8731H6.34875C6.42864 11.8731 6.50526 11.8414 6.56175 11.7849C6.61824 11.7284 6.64998 11.6518 6.64998 11.5719V10.2787L5.88408 9.51224L5.11819 10.2787ZM8.2611 8.4296H6.96791L6.20142 9.1961L6.96791 9.96259H8.2611C8.34094 9.96243 8.41747 9.93064 8.47393 9.87419C8.53038 9.81773 8.56217 9.7412 8.56233 9.66136V8.73143C8.56233 8.65148 8.53061 8.5748 8.47414 8.51822C8.41766 8.46163 8.34105 8.42976 8.2611 8.4296ZM4.80205 8.4296H3.50826C3.42842 8.42976 3.35189 8.46155 3.29543 8.51801C3.23898 8.57446 3.20719 8.65099 3.20703 8.73083V9.66017C3.20703 9.82659 3.34184 9.96139 3.50826 9.96139H4.80145L5.56794 9.1949L4.80205 8.4296Z" fill="#8899A6"/>
</g>
<defs>
<clipPath id="clip0">
<rect width="21.4737" height="21.4737" fill="white" transform="translate(0 0.648926)"/>
</clipPath>
</defs>
</svg>
