<svg width="35" height="35" viewBox="0 0 35 35" fill="none" xmlns="http://www.w3.org/2000/svg">
<g clip-path="url(#clip0)">
<path d="M5.83398 14.5833H29.1673V16.5277H5.83398V14.5833ZM20.4173 29.1666C20.4173 31.3133 19.6473 33.0555 17.5007 33.0555C15.353 33.0555 14.584 31.3133 14.584 29.1666C14.584 27.0199 15.353 27.2221 17.5007 27.2221C19.6473 27.2221 20.4173 27.0199 20.4173 29.1666Z" fill="#292F33"/>
<path d="M17.4996 30.1389C11.0566 30.1389 7.77734 31.4446 7.77734 33.0556V35H27.2218V33.0556C27.2218 31.4446 23.9425 30.1389 17.4996 30.1389Z" fill="#66757F"/>
<path d="M17.5 0C15.1794 0 12.9538 0.921872 11.3128 2.56282C9.67187 4.20376 8.75 6.42936 8.75 8.75V15.5556H26.25V8.75C26.25 6.42936 25.3281 4.20376 23.6872 2.56282C22.0462 0.921872 19.8206 0 17.5 0V0Z" fill="#99AAB5"/>
<path d="M15.0697 3.88883C15.8751 3.88883 16.528 3.23592 16.528 2.4305C16.528 1.62509 15.8751 0.972168 15.0697 0.972168C14.2642 0.972168 13.6113 1.62509 13.6113 2.4305C13.6113 3.23592 14.2642 3.88883 15.0697 3.88883Z" fill="#292F33"/>
<path d="M19.931 3.88883C20.7364 3.88883 21.3893 3.23592 21.3893 2.4305C21.3893 1.62509 20.7364 0.972168 19.931 0.972168C19.1256 0.972168 18.4727 1.62509 18.4727 2.4305C18.4727 3.23592 19.1256 3.88883 19.931 3.88883Z" fill="#292F33"/>
<path d="M17.013 7.77775C17.8184 7.77775 18.4714 7.12483 18.4714 6.31942C18.4714 5.514 17.8184 4.86108 17.013 4.86108C16.2076 4.86108 15.5547 5.514 15.5547 6.31942C15.5547 7.12483 16.2076 7.77775 17.013 7.77775Z" fill="#292F33"/>
<path d="M21.8743 7.77775C22.6798 7.77775 23.3327 7.12483 23.3327 6.31942C23.3327 5.514 22.6798 4.86108 21.8743 4.86108C21.0689 4.86108 20.416 5.514 20.416 6.31942C20.416 7.12483 21.0689 7.77775 21.8743 7.77775Z" fill="#292F33"/>
<path d="M12.1536 7.77775C12.9591 7.77775 13.612 7.12483 13.612 6.31942C13.612 5.514 12.9591 4.86108 12.1536 4.86108C11.3482 4.86108 10.6953 5.514 10.6953 6.31942C10.6953 7.12483 11.3482 7.77775 12.1536 7.77775Z" fill="#292F33"/>
<path d="M15.0697 11.6667C15.8751 11.6667 16.528 11.0137 16.528 10.2083C16.528 9.40292 15.8751 8.75 15.0697 8.75C14.2642 8.75 13.6113 9.40292 13.6113 10.2083C13.6113 11.0137 14.2642 11.6667 15.0697 11.6667Z" fill="#292F33"/>
<path d="M10.2083 11.6667C11.0137 11.6667 11.6667 11.0137 11.6667 10.2083C11.6667 9.40292 11.0137 8.75 10.2083 8.75C9.40292 8.75 8.75 9.40292 8.75 10.2083C8.75 11.0137 9.40292 11.6667 10.2083 11.6667Z" fill="#292F33"/>
<path d="M19.931 11.6667C20.7364 11.6667 21.3893 11.0137 21.3893 10.2083C21.3893 9.40292 20.7364 8.75 19.931 8.75C19.1256 8.75 18.4727 9.40292 18.4727 10.2083C18.4727 11.0137 19.1256 11.6667 19.931 11.6667Z" fill="#292F33"/>
<path d="M24.7923 11.6667C25.5977 11.6667 26.2507 11.0137 26.2507 10.2083C26.2507 9.40292 25.5977 8.75 24.7923 8.75C23.9869 8.75 23.334 9.40292 23.334 10.2083C23.334 11.0137 23.9869 11.6667 24.7923 11.6667Z" fill="#292F33"/>
<path d="M17.013 15.5556C17.8184 15.5556 18.4714 14.9027 18.4714 14.0972C18.4714 13.2918 17.8184 12.6389 17.013 12.6389C16.2076 12.6389 15.5547 13.2918 15.5547 14.0972C15.5547 14.9027 16.2076 15.5556 17.013 15.5556Z" fill="#292F33"/>
<path d="M21.8743 15.5556C22.6798 15.5556 23.3327 14.9027 23.3327 14.0972C23.3327 13.2918 22.6798 12.6389 21.8743 12.6389C21.0689 12.6389 20.416 13.2918 20.416 14.0972C20.416 14.9027 21.0689 15.5556 21.8743 15.5556Z" fill="#292F33"/>
<path d="M12.1536 15.5556C12.9591 15.5556 13.612 14.9027 13.612 14.0972C13.612 13.2918 12.9591 12.6389 12.1536 12.6389C11.3482 12.6389 10.6953 13.2918 10.6953 14.0972C10.6953 14.9027 11.3482 15.5556 12.1536 15.5556Z" fill="#292F33"/>
<path d="M8.75 14.6433V16.5275C8.75 21.3604 12.6671 25.2775 17.5 25.2775C22.3329 25.2775 26.25 21.3604 26.25 16.5275V14.6433H8.75Z" fill="#66757F"/>
<path d="M29.1669 13.6111C28.909 13.6111 28.6617 13.7135 28.4794 13.8958C28.2971 14.0782 28.1947 14.3255 28.1947 14.5833V16.5278C28.1947 22.433 23.4065 27.2222 17.5002 27.2222C11.594 27.2222 6.80577 22.433 6.80577 16.5278V14.5833C6.80577 14.3255 6.70334 14.0782 6.52102 13.8958C6.33869 13.7135 6.0914 13.6111 5.83355 13.6111C5.5757 13.6111 5.32841 13.7135 5.14609 13.8958C4.96376 14.0782 4.86133 14.3255 4.86133 14.5833V16.5278C4.86133 23.5083 10.5197 29.1666 17.5002 29.1666C24.4808 29.1666 30.1391 23.5083 30.1391 16.5278V14.5833C30.1391 14.3255 30.0367 14.0782 29.8544 13.8958C29.672 13.7135 29.4247 13.6111 29.1669 13.6111Z" fill="#66757F"/>
</g>
<defs>
<clipPath id="clip0">
<rect width="35" height="35" fill="white"/>
</clipPath>
</defs>
</svg>
