<svg width="36" height="36" viewBox="0 0 36 36" fill="none" xmlns="http://www.w3.org/2000/svg">
<path d="M2 10C2 10 0 10 0 12V24C0 26 2 26 2 26H8L16 34C16 34 17 35 18 35H19C19 35 20 35 20 34V2C20 2 20 1 19 1H18C17 1 16 2 16 2L8 10H2Z" fill="#8899A6"/>
<path d="M8 26L16 34C16 34 17 35 18 35H19C19 35 20 35 20 34V2C20 2 20 1 19 1H18C17 1 16 2 16 2L8 10V26Z" fill="#CCD6DD"/>
<path d="M28.9999 32.0192C28.806 32.02 28.6165 31.9612 28.4572 31.8507C28.2979 31.7402 28.1764 31.5833 28.1093 31.4014C28.0421 31.2195 28.0325 31.0214 28.0819 30.8339C28.1312 30.6463 28.237 30.4785 28.3849 30.3532C31.9879 27.2822 34.0529 22.8022 34.0529 18.0632C34.0529 13.3242 31.9869 8.84417 28.3839 5.77317C28.2014 5.60778 28.0906 5.37781 28.0748 5.13205C28.0591 4.88629 28.1397 4.64406 28.2996 4.45674C28.4595 4.26942 28.686 4.15175 28.9312 4.12868C29.1764 4.10561 29.4209 4.17896 29.6129 4.33317C31.6002 6.02623 33.1959 8.13097 34.2894 10.5017C35.3829 12.8724 35.9481 15.4524 35.9459 18.0632C35.9481 20.6737 35.383 23.2535 34.2897 25.624C33.1964 27.9945 31.601 30.0992 29.6139 31.7922C29.4429 31.9386 29.2251 32.0192 28.9999 32.0192Z" fill="#8899A6"/>
<path d="M26.2706 28.9588C26.0788 28.96 25.8914 28.9017 25.7341 28.7919C25.5769 28.682 25.4576 28.5262 25.3927 28.3457C25.3277 28.1653 25.3203 27.9691 25.3715 27.7843C25.4228 27.5995 25.53 27.4351 25.6786 27.3138C27.0543 26.1828 28.162 24.7606 28.9219 23.1499C29.6817 21.5391 30.0747 19.7798 30.0726 17.9988C30.0738 16.2363 29.6884 14.495 28.9436 12.8976C28.1987 11.3003 27.1125 9.88576 25.7616 8.75381C25.6682 8.67528 25.5912 8.57913 25.535 8.47085C25.4788 8.36257 25.4445 8.24427 25.434 8.12272C25.4235 8.00117 25.437 7.87874 25.4738 7.76242C25.5107 7.64611 25.57 7.53818 25.6486 7.44481C25.7271 7.35145 25.8232 7.27446 25.9315 7.21825C26.0398 7.16204 26.1581 7.12771 26.2797 7.11721C26.4012 7.10672 26.5236 7.12027 26.64 7.15709C26.7563 7.19391 26.8642 7.25328 26.9576 7.33181C28.516 8.63804 29.769 10.2702 30.6283 12.1132C31.4875 13.9563 31.932 15.9653 31.9306 17.9988C31.9306 22.1708 30.0826 26.0878 26.8616 28.7448C26.6959 28.8835 26.4866 28.9592 26.2706 28.9588Z" fill="#8899A6"/>
<path d="M23.709 25.9589C23.5024 25.9601 23.3006 25.8972 23.1312 25.7789C22.9619 25.6605 22.8335 25.4925 22.7637 25.298C22.6939 25.1036 22.6862 24.8923 22.7416 24.6932C22.797 24.4942 22.9128 24.3173 23.073 24.1869C23.9893 23.4373 24.7273 22.4932 25.2335 21.4231C25.7398 20.353 26.0016 19.1837 26 17.9999C26.0024 16.8027 25.7351 15.6205 25.2178 14.5409C24.7005 13.4613 23.9465 12.5121 23.012 11.7639C22.9089 11.6818 22.823 11.5802 22.7593 11.4648C22.6956 11.3494 22.6554 11.2226 22.6409 11.0916C22.6263 10.9607 22.6378 10.8281 22.6747 10.7016C22.7116 10.5751 22.7731 10.4571 22.8558 10.3544C22.9384 10.2518 23.0405 10.1665 23.1562 10.1034C23.2719 10.0403 23.3989 10.0008 23.53 9.98695C23.6611 9.97314 23.7936 9.98538 23.9199 10.0229C24.0462 10.0605 24.1638 10.1227 24.266 10.2059C25.4339 11.1411 26.376 12.3275 27.0224 13.6768C27.6689 15.0261 28.003 16.5037 28 17.9999C28.002 19.4791 27.6749 20.9402 27.0424 22.2773C26.4099 23.6145 25.4878 24.7941 24.343 25.7309C24.1649 25.8787 23.9405 25.9593 23.709 25.9589Z" fill="#8899A6"/>
</svg>
