<svg width="36" height="36" viewBox="0 0 36 36" fill="none" xmlns="http://www.w3.org/2000/svg">
<path d="M34 29.096C33.583 28.133 33.104 27.088 32 27.088H31C32.104 27.088 33 26.189 33 25.08V8.008C33.0005 7.74483 32.9492 7.48414 32.849 7.2408C32.7488 6.99746 32.6016 6.77625 32.4159 6.58979C32.2302 6.40332 32.0095 6.25527 31.7666 6.15408C31.5237 6.05288 31.2632 6.00052 31 6H5C3.896 6 3 6.899 3 8.008V25.08C3 26.189 3.896 27.088 5 27.088H4C2.896 27.088 2.333 28.092 2 29.096L0 33.991C0 35.101 0.896 36 2 36H34C35.104 36 36 35.101 36 33.992L34 29.096Z" fill="#CCD6DD"/>
<path d="M0.0078125 34.0752L0.0138125 34.1322L0.183812 34.8242C0.341652 35.1739 0.596833 35.4707 0.918863 35.6793C1.24089 35.8878 1.61616 35.9992 1.99981 36.0002H33.9998C34.5161 35.9985 35.0118 35.7972 35.383 35.4384C35.7543 35.0796 35.9725 34.5911 35.9918 34.0752H0.0078125Z" fill="#9AAAB4"/>
<path d="M31 24.0748C31 24.6298 30.553 25.0788 30 25.0788H6C5.448 25.0788 5 24.6298 5 24.0748V9.01279C5 8.45779 5.448 8.00879 6 8.00879H30C30.553 8.00879 31 8.45879 31 9.01279V24.0748Z" fill="#5DADEC"/>
<path d="M32.9054 31.0418L32.1454 28.8668C31.9064 28.4068 31.5104 28.0298 30.9574 28.0298H5.10938C4.55738 28.0298 4.20338 28.4378 3.95338 29.0658L3.26538 31.0428C3.04638 31.6388 3.71338 32.0468 4.26538 32.0468H11.8434C11.8434 32.0468 12.7804 31.9998 12.9464 31.4388C13.1384 30.7908 13.3614 29.8148 13.4094 29.6428C13.4834 29.3788 13.7974 29.1118 14.2654 29.1118H22.8434C23.3434 29.1118 23.5894 29.3648 23.6544 29.6778C23.6964 29.8818 23.9664 30.8188 24.0924 31.4598C24.2034 32.0308 25.3134 32.0458 25.3134 32.0458H31.9074C32.4584 32.0458 33.1244 31.5748 32.9054 31.0418Z" fill="#AEBBC1"/>
<path d="M22.3747 33.1131H14.5937C14.2187 33.1131 14.0557 32.7701 14.1097 32.4381C14.1637 32.1071 14.4687 30.6451 14.4927 30.4751C14.5157 30.3041 14.7667 30.1001 15.0167 30.1001H22.0317C22.3287 30.1001 22.5217 30.2631 22.5817 30.5891C22.6407 30.9161 22.8837 32.2301 22.9027 32.5301C22.9217 32.8311 22.7337 33.1131 22.3747 33.1131Z" fill="#9AAAB4"/>
</svg>
