<svg width="36" height="36" viewBox="0 0 36 36" fill="none" xmlns="http://www.w3.org/2000/svg">
<path d="M15 31C15 33.209 14.209 35 12 35H5C1 35 1 21 5 21H12C14.209 21 15 22.791 15 25V31Z" fill="#553788"/>
<path d="M34 33H33V23H34C34.2652 23 34.5196 22.8946 34.7071 22.7071C34.8946 22.5196 35 22.2652 35 22C35 21.7348 34.8946 21.4804 34.7071 21.2929C34.5196 21.1054 34.2652 21 34 21H10C6 21 6 35 10 35H34C34.2652 35 34.5196 34.8946 34.7071 34.7071C34.8946 34.5196 35 34.2652 35 34C35 33.7348 34.8946 33.4804 34.7071 33.2929C34.5196 33.1054 34.2652 33 34 33Z" fill="#9266CC"/>
<path d="M34.172 33H11C9 33 9 23 11 23H34.172C35.276 23 35.276 33 34.172 33Z" fill="#CCD6DD"/>
<path d="M11.4992 25H34.8492C34.7142 23.825 34.4892 23 34.1712 23H10.9992C9.34823 23 9.06123 29.808 10.1362 32.188C9.74423 29.229 10.1982 25 11.4992 25Z" fill="#99AAB5"/>
<path d="M12 8C12 9.06087 11.5786 10.0783 10.8284 10.8284C10.0783 11.5786 9.06087 12 8 12H4C0 12 0 1 4 1H8C9.06087 1 10.0783 1.42143 10.8284 2.17157C11.5786 2.92172 12 3.93913 12 5V8Z" fill="#226699"/>
<path d="M31 10H30V3H31C31.2652 3 31.5196 2.89464 31.7071 2.70711C31.8946 2.51957 32 2.26522 32 2C32 1.73478 31.8946 1.48043 31.7071 1.29289C31.5196 1.10536 31.2652 1 31 1H7C3 1 3 12 7 12H31C31.2652 12 31.5196 11.8946 31.7071 11.7071C31.8946 11.5196 32 11.2652 32 11C32 10.7348 31.8946 10.4804 31.7071 10.2929C31.5196 10.1054 31.2652 10 31 10Z" fill="#55ACEE"/>
<path d="M31.172 10H8C6 10 6 3 8 3H31.172C32.276 3 32.276 10 31.172 10Z" fill="#CCD6DD"/>
<path d="M8.00042 5H31.9254C31.8114 3.875 31.5614 3 31.1724 3H8.00042C6.80742 3 6.33142 5.489 6.56242 7.5C6.71842 6.142 7.19342 5 8.00042 5Z" fill="#99AAB5"/>
<path d="M20 17C20 18.0609 19.5786 19.0783 18.8284 19.8284C18.0783 20.5786 17.0609 21 16 21H6C2 21 2 12 6 12H16C17.0609 12 18.0783 12.4214 18.8284 13.1716C19.5786 13.9217 20 14.9391 20 16V17Z" fill="#F4900C"/>
<path d="M35 19H34V14H35C35.2652 14 35.5196 13.8946 35.7071 13.7071C35.8946 13.5196 36 13.2652 36 13C36 12.7348 35.8946 12.4804 35.7071 12.2929C35.5196 12.1054 35.2652 12 35 12H15C11 12 11 21 15 21H35C35.2652 21 35.5196 20.8946 35.7071 20.7071C35.8946 20.5196 36 20.2652 36 20C36 19.7348 35.8946 19.4804 35.7071 19.2929C35.5196 19.1054 35.2652 19 35 19Z" fill="#FFAC33"/>
<path d="M35.172 19H16C14 19 14 14 16 14H35.172C36.276 14 36.276 19 35.172 19Z" fill="#CCD6DD"/>
<path d="M16.0004 16H35.9844C35.9194 14.938 35.6504 14 35.1724 14H16.0004C14.7264 14 14.2674 16.027 14.6174 17.5C14.8154 16.661 15.2744 16 16.0004 16Z" fill="#99AAB5"/>
</svg>
