<svg width="22" height="23" viewBox="0 0 22 23" fill="none" xmlns="http://www.w3.org/2000/svg">
<g clip-path="url(#clip0)">
<path d="M1.62246 4.13574H3.72807V5.73374H2.66274C1.5974 5.73374 1.5974 6.26641 1.5974 6.79908V11.2054C1.5974 12.016 2.36628 12.1251 2.36628 12.1251H3.72807V13.7231H1.62246C1.19226 13.7231 0.77967 13.5523 0.475417 13.2482C0.171165 12.944 0.000158161 12.5315 0 12.1013L0 5.7576C0.000158161 5.3274 0.171165 4.91488 0.475417 4.61074C0.77967 4.3066 1.19226 4.13574 1.62246 4.13574Z" fill="#FFAC33"/>
<path d="M3.19531 4.13574H12.2495V15.1923C12.2495 15.8484 11.7126 16.3853 11.0565 16.3853H4.3883C3.73215 16.3853 3.19531 15.8484 3.19531 15.1923V4.13574Z" fill="#FFAC33"/>
<path d="M5.05935 14.7873C5.20062 14.7873 5.33611 14.7312 5.436 14.6313C5.53589 14.5314 5.59201 14.3959 5.59201 14.2546V8.39648C5.59201 8.25521 5.53589 8.11972 5.436 8.01983C5.33611 7.91993 5.20062 7.86381 5.05935 7.86381C4.91808 7.86381 4.78259 7.91993 4.6827 8.01983C4.5828 8.11972 4.52668 8.25521 4.52668 8.39648V14.2546C4.52668 14.5493 4.76528 14.7873 5.05935 14.7873ZM7.72208 14.7873C7.79204 14.7873 7.8613 14.7735 7.92593 14.7467C7.99055 14.72 8.04927 14.6807 8.09874 14.6313C8.1482 14.5818 8.18744 14.5231 8.2142 14.4585C8.24097 14.3938 8.25475 14.3246 8.25475 14.2546V8.39648C8.25475 8.25521 8.19863 8.11972 8.09874 8.01983C7.99884 7.91993 7.86336 7.86381 7.72208 7.86381C7.58081 7.86381 7.44533 7.91993 7.34543 8.01983C7.24554 8.11972 7.18942 8.25521 7.18942 8.39648V14.2546C7.19001 14.5493 7.42801 14.7873 7.72208 14.7873ZM3.19531 5.99143V4.13574H12.2495V7.04543C12.0716 7.11278 11.8831 7.14812 11.6929 7.14981C11.3707 7.14961 11.0558 7.05337 10.7885 6.8734C10.5212 6.69342 10.3136 6.43786 10.1922 6.13936C10.1071 6.21404 10.0072 6.26989 9.89904 6.30322C9.79088 6.33656 9.67688 6.34662 9.56454 6.33277C9.4522 6.31891 9.34407 6.28143 9.24725 6.22281C9.15042 6.16419 9.0671 6.08574 9.00275 5.99262C8.85701 6.22273 8.65549 6.41229 8.41689 6.54368C8.17829 6.67508 7.91036 6.74405 7.63798 6.7442C7.38794 6.74367 7.14145 6.68503 6.91796 6.57292C6.69447 6.46081 6.50008 6.2983 6.35015 6.0982C6.27632 6.28821 6.14686 6.45153 5.97872 6.56678C5.81057 6.68204 5.61156 6.74387 5.4077 6.7442C5.2255 6.74357 5.04685 6.69374 4.89062 6.59999C4.73439 6.50623 4.60639 6.37202 4.52012 6.21153C4.35907 6.29027 4.18012 6.33858 3.98805 6.33858C3.46194 6.33858 3.19531 5.99143 3.19531 5.99143Z" fill="#F4900C"/>
<path d="M4.79331 1.47314H11.7168C12.7821 1.47314 13.3148 2.00581 13.3148 3.07114V4.71746C13.3134 5.09259 13.1821 5.45566 12.9432 5.74487C12.7043 6.03409 12.3725 6.23157 12.0044 6.30372C11.6363 6.37587 11.2545 6.31822 10.9241 6.14059C10.5937 5.96296 10.335 5.67632 10.1922 5.32946C10.0463 5.45709 9.85928 5.52783 9.66545 5.52869C9.39107 5.52869 9.14949 5.3915 9.00275 5.18272C8.85686 5.41265 8.65528 5.60203 8.41671 5.73331C8.17814 5.86458 7.91029 5.93351 7.63798 5.93371C7.38794 5.93317 7.14145 5.87454 6.91796 5.76243C6.69446 5.65032 6.50008 5.4878 6.35015 5.28771C6.27632 5.47772 6.14686 5.64104 5.97872 5.75629C5.81057 5.87155 5.61155 5.93338 5.4077 5.93371C5.03787 5.93371 4.72173 5.7309 4.54458 5.43444C4.43147 5.54206 4.2893 5.61417 4.13566 5.64186C3.98201 5.66955 3.82361 5.6516 3.68005 5.59023C3.5365 5.52886 3.41408 5.42676 3.32792 5.29656C3.24177 5.16636 3.19567 5.01376 3.19531 4.85764V3.07114C3.19531 2.00581 3.72798 1.47314 4.79331 1.47314Z" fill="#E1E8ED"/>
<path d="M18.1899 4.76225C18.0718 4.76234 17.9563 4.72739 17.8581 4.66181C17.76 4.59624 17.6834 4.503 17.6383 4.39389C17.5931 4.28479 17.5813 4.16474 17.6045 4.04895C17.6276 3.93316 17.6846 3.82683 17.7682 3.74344L19.8869 1.6259C19.9988 1.51405 20.1506 1.45125 20.3088 1.4513C20.4671 1.45136 20.6188 1.51427 20.7306 1.6262C20.8425 1.73812 20.9053 1.8899 20.9052 2.04813C20.9052 2.20636 20.8423 2.35809 20.7303 2.46993L18.6116 4.58748C18.5564 4.64306 18.4906 4.68712 18.4182 4.71712C18.3459 4.74712 18.2682 4.76246 18.1899 4.76225ZM15.7061 3.75C15.6108 3.75004 15.5168 3.72723 15.4321 3.68349C15.3474 3.63974 15.2745 3.57634 15.2193 3.49859C15.1642 3.42084 15.1285 3.331 15.1152 3.23661C15.1019 3.14222 15.1114 3.04602 15.143 2.95607L15.7216 1.302C15.7738 1.15266 15.8832 1.03018 16.0257 0.961495C16.1682 0.89281 16.3322 0.883553 16.4815 0.935758C16.6309 0.987964 16.7534 1.09736 16.822 1.23987C16.8907 1.38239 16.9 1.54635 16.8478 1.69569L16.2692 3.34976C16.2284 3.46665 16.1524 3.56798 16.0515 3.6397C15.9506 3.71141 15.8299 3.74996 15.7061 3.75ZM19.3703 7.19414C19.23 7.19337 19.0945 7.14321 18.9875 7.05247C18.8805 6.96173 18.8088 6.83621 18.7851 6.69793C18.7614 6.55964 18.7872 6.41743 18.8579 6.29623C18.9286 6.17504 19.0397 6.08261 19.1717 6.03516L20.6593 5.50965C20.8085 5.45697 20.9725 5.46571 21.1153 5.53395C21.258 5.60219 21.3678 5.72433 21.4205 5.87351C21.4732 6.02269 21.4644 6.18669 21.3962 6.32943C21.3279 6.47217 21.2058 6.58195 21.0566 6.63464L19.569 7.16014C19.5052 7.18265 19.438 7.19415 19.3703 7.19414Z" fill="#FA743E"/>
<path d="M19.8517 10.1006H17.7461V11.6986H18.8114C19.8768 11.6986 19.8768 12.2313 19.8768 12.7639V17.1702C19.8768 17.9808 19.1079 18.09 19.1079 18.09H17.7461V19.688H19.8517C20.2819 19.688 20.6945 19.5171 20.9987 19.213C21.303 18.9089 21.474 18.4963 21.4742 18.0661V11.7224C21.474 11.2922 21.303 10.8797 20.9987 10.5756C20.6945 10.2714 20.2819 10.1006 19.8517 10.1006Z" fill="#FFAC33"/>
<path d="M18.2787 10.1006H9.22461V21.1571C9.22461 21.8133 9.76145 22.3501 10.4176 22.3501H17.0858C17.7419 22.3501 18.2787 21.8133 18.2787 21.1571V10.1006Z" fill="#FFCC4D"/>
<path d="M11.0874 20.7521C10.9461 20.7521 10.8106 20.696 10.7107 20.5961C10.6108 20.4962 10.5547 20.3607 10.5547 20.2194V14.3613C10.5547 14.22 10.6108 14.0845 10.7107 13.9846C10.8106 13.8847 10.9461 13.8286 11.0874 13.8286C11.2286 13.8286 11.3641 13.8847 11.464 13.9846C11.5639 14.0845 11.62 14.22 11.62 14.3613V20.2194C11.62 20.5141 11.3814 20.7521 11.0874 20.7521ZM16.4134 20.7521C16.2722 20.7521 16.1367 20.696 16.0368 20.5961C15.9369 20.4962 15.8808 20.3607 15.8808 20.2194V14.3613C15.8808 14.22 15.9369 14.0845 16.0368 13.9846C16.1367 13.8847 16.2722 13.8286 16.4134 13.8286C16.5547 13.8286 16.6902 13.8847 16.7901 13.9846C16.89 14.0845 16.9461 14.22 16.9461 14.3613V20.2194C16.9461 20.5141 16.7075 20.7521 16.4134 20.7521ZM13.7507 20.7521C13.6094 20.7521 13.4739 20.696 13.374 20.5961C13.2741 20.4962 13.218 20.3607 13.218 20.2194V14.3613C13.218 14.22 13.2741 14.0845 13.374 13.9846C13.4739 13.8847 13.6094 13.8286 13.7507 13.8286C13.892 13.8286 14.0274 13.8847 14.1273 13.9846C14.2272 14.0845 14.2834 14.22 14.2834 14.3613V20.2194C14.2834 20.3607 14.2272 20.4962 14.1273 20.5961C14.0274 20.696 13.892 20.7521 13.7507 20.7521Z" fill="#F4900C"/>
<path d="M18.2787 11.9563V10.1006H9.22461V13.0103C9.39878 13.0741 9.58489 13.1147 9.78114 13.1147C10.1034 13.1145 10.4183 13.0182 10.6856 12.8382C10.9529 12.6583 11.1605 12.4027 11.2819 12.1042C11.367 12.1789 11.4668 12.2347 11.575 12.2681C11.6832 12.3014 11.7972 12.3115 11.9095 12.2976C12.0219 12.2838 12.13 12.2463 12.2268 12.1877C12.3236 12.129 12.407 12.0506 12.4713 11.9575C12.6171 12.1876 12.8186 12.3771 13.0572 12.5085C13.2958 12.6399 13.5637 12.7089 13.8361 12.709C14.3634 12.709 14.828 12.4531 15.1239 12.063C15.2718 12.4406 15.6369 12.709 16.0664 12.709C16.4511 12.709 16.7816 12.4919 16.9539 12.1764C17.115 12.2551 17.2939 12.3034 17.486 12.3034C18.0121 12.3034 18.2787 11.9563 18.2787 11.9563Z" fill="#FFAC33"/>
<path d="M16.6797 7.43799H9.7562C8.69087 7.43799 8.1582 7.97065 8.1582 9.03599V10.6823C8.15957 11.0574 8.29088 11.4205 8.5298 11.7097C8.76872 11.9989 9.10047 12.1964 9.4686 12.2686C9.83673 12.3407 10.2185 12.2831 10.5489 12.1054C10.8793 11.9278 11.138 11.6412 11.2808 11.2943C11.4228 11.4166 11.6059 11.4935 11.8075 11.4935C12.0819 11.4935 12.3235 11.3563 12.4702 11.1476C12.6161 11.3775 12.8177 11.5669 13.0563 11.6981C13.2949 11.8294 13.5627 11.8984 13.835 11.8986C14.3623 11.8986 14.827 11.6427 15.1228 11.2525C15.2708 11.6301 15.6358 11.8986 16.0653 11.8986C16.4351 11.8986 16.7513 11.6957 16.9284 11.3993C17.0716 11.5359 17.2648 11.6212 17.4784 11.6212C17.9198 11.6212 18.2771 11.2633 18.2771 10.8225V9.03599C18.2777 7.97065 17.745 7.43799 16.6797 7.43799Z" fill="#EEEEEE"/>
</g>
<defs>
<clipPath id="clip0">
<rect width="21.4737" height="21.4737" fill="white" transform="translate(0 0.876953)"/>
</clipPath>
</defs>
</svg>
