<svg width="304" height="568" viewBox="0 0 304 568" fill="none" xmlns="http://www.w3.org/2000/svg">
<path fill-rule="evenodd" clip-rule="evenodd" d="M149.688 201.125C155.177 199.355 161.487 199.561 167.119 200.014C172.838 200.474 178.975 201.263 184.342 203.75C189.007 205.913 192.942 209.549 195.339 214.76C197.31 219.044 198.234 223.742 198.813 228.513C199.05 230.466 199.248 232.424 199.437 234.383L199.825 238.459C199.977 240.018 200.109 241.186 200.376 242.925C201.112 247.735 202.138 251.754 204.427 255.253C209.973 263.725 219.027 266.561 227.262 270.177C232.531 272.491 236.703 276.653 237.861 283.341C238.977 289.794 281.442 343.926 285.611 348.489L285.725 348.612C288.959 352.003 288.578 358.379 289.031 363.033C289.516 368.024 289.977 373.018 290.416 378.014C291.305 388.164 292.098 398.325 292.794 408.495C295.513 448.269 296.747 488.181 296.485 528.079L296.469 530.337C296.428 535.4 296.461 540.486 296.266 545.545C296.078 550.407 294.815 555.272 290.948 557.812C287.365 560.165 282.835 559.957 278.83 560.192L278.591 560.207C274.294 560.481 269.996 560.706 265.696 560.891C248.22 561.644 230.727 561.726 213.241 561.632C178.55 561.446 143.825 560.558 109.168 562.82C100.333 563.397 72.1682 559.892 63.3615 560.891C54.9439 561.845 62.1663 566.654 56.9662 566.337C39.8648 565.295 23.6434 560.85 7.25846 555.496C5.21167 554.828 3.64646 552.514 3.67219 550.013C3.9765 522.541 4.64228 495.077 5.68263 467.63C6.60942 443.181 7.83071 418.747 9.34568 394.337C10.0044 383.727 10.7184 373.122 11.4878 362.522L11.8209 357.979C12.2555 352.121 12.5055 346.156 13.4944 340.379C14.4727 334.666 16.6918 329.711 19.9096 325.285C22.797 321.313 55.488 290.223 63.3615 284.337C70.8975 278.702 78.811 273.949 86.5476 268.727C89.7662 266.555 92.8575 267.337 95.6072 264.67C97.0569 263.264 118.091 253.792 123.766 250.666L123.933 250.574C128.277 248.146 132.274 245.514 135.275 241.317C136.281 239.91 138.255 231.045 138.258 228.213C138.265 223.153 137.936 217.823 139.246 212.922C140.813 207.061 144.59 202.769 149.688 201.125Z" fill="white"/>
<path fill-rule="evenodd" clip-rule="evenodd" d="M271.903 374.46C271.825 374.55 271.743 374.641 271.666 374.736C271.756 374.588 271.833 374.436 271.903 374.284V374.46ZM84.5386 264.912C84.6938 264.831 84.845 264.751 84.9961 264.67C85.0737 264.798 85.1677 264.917 85.2657 265.036C85.5108 265.326 85.7517 265.64 86.005 265.926C85.5148 265.592 85.0247 265.254 84.5386 264.912ZM302.998 532.305C302.716 525.373 302.402 518.44 302.067 511.508C301.405 497.957 300.723 484.407 299.812 470.875C297.962 443.455 296.238 416.044 293.465 388.724C292.301 377.271 290.675 365.905 289.045 354.533C289.254 354.314 289.466 354.095 289.674 353.882C289.45 356.993 293.077 358.963 294.874 355.86C295.009 355.628 295.139 355.395 295.27 355.152C296.826 352.221 300.413 337.842 300.163 336.624C299.714 334.431 298.464 332.48 297.488 330.549C296.634 328.859 295.773 327.17 294.898 325.496C293.154 322.141 291.357 318.82 289.474 315.57C285.573 308.843 281.309 302.381 276.285 296.734C271.085 290.881 265.118 286.071 258.954 281.708C255.993 279.614 252.938 277.716 249.825 275.946C246.753 274.204 243.392 272.277 240.083 271.288C239.895 271.231 239.703 271.536 239.875 271.697C240.753 272.506 241.672 273.267 242.608 274C240.075 272.977 237.465 272.239 234.835 271.978C229.741 269.894 224.586 267.986 219.517 265.811C214.534 263.67 209.625 261.263 206.312 256.191C203.481 251.856 201.692 246.552 200.316 241.384C198.805 235.689 198.204 229.77 196.807 224.065C196.697 223.603 196.047 223.551 195.962 224.065C194.965 230.05 195.01 236.779 195.578 242.821C196.174 249.158 197.706 255.378 201.039 260.53C204.911 266.521 210.164 269.856 216.074 272.515C220.841 274.666 225.669 276.855 230.55 278.777C229.913 279.263 229.267 279.747 228.602 280.209C225.955 282.041 223.202 283.668 220.387 285.129C215.249 287.798 209.837 289.797 204.392 291.419C194.258 294.426 183.867 295.953 173.419 296.153C152.514 296.558 131.376 291.457 112.256 281.608C106.873 278.834 101.616 275.784 96.4121 272.582C94.7864 271.583 93.1526 270.574 91.5269 269.537C91.6617 269.528 91.8006 269.513 91.9354 269.499C95.5666 269.1 99.1529 268.286 102.666 267.134C109.859 264.77 116.753 261.082 123.526 257.452C129.269 254.373 135.183 250.867 138.692 244.453C140.566 241.023 141.428 236.998 142.127 233.058C142.907 228.671 143.826 224.265 144.394 219.836C144.594 218.285 144.296 216.186 142.866 215.454C142.294 215.163 141.825 214.925 141.183 214.925C139.766 214.925 138.312 216.124 137.973 217.771C137.135 221.877 136.629 226.097 135.971 230.246C135.404 233.833 134.885 237.578 133.222 240.732C130.318 246.257 124.624 249.082 119.813 251.771C113.714 255.178 107.612 258.498 101.277 261.263C98.4871 262.481 95.6483 263.585 92.7687 264.489C92.883 263.666 92.785 262.8 92.3684 262.148C91.674 261.072 90.8857 260.359 89.9911 259.536C89.019 258.641 87.7119 258.175 86.5642 258.57C86.5642 258.574 86.5601 258.57 86.5601 258.57C86.0944 258.451 85.5798 258.498 85.0488 258.779C83.4068 259.655 81.7689 260.539 80.1309 261.439C56.567 274.352 33.6729 289.52 16.3338 312.62C13.834 315.951 11.4936 319.453 9.30015 323.064C7.16799 326.571 4.52935 330.377 3.94117 334.726C3.89215 335.088 4.34554 335.254 4.42315 334.883C4.56203 334.212 4.74992 333.555 4.98274 332.918C4.49667 334.897 4.52526 337 5.21147 339.07C6.02431 341.506 7.51518 343.119 9.39817 343.761C7.50701 353.415 6.23671 363.198 5.21556 373.089C3.74919 387.339 2.70762 401.623 1.92338 415.944C0.354902 444.525 -0.343562 473.249 0.162927 501.883C0.305887 509.976 0.542793 518.069 0.902237 526.158C1.08196 530.202 1.27802 534.241 1.50267 538.285C1.72324 542.263 1.54352 546.646 4.52118 548.744C4.55794 548.901 4.59879 549.053 4.63555 549.21C5.35852 552.145 8.58126 551.204 8.88352 548.539C8.8876 548.511 8.89169 548.477 8.89577 548.449C11.3302 546.284 10.9626 542.677 10.7828 539.218C10.5909 535.483 10.3866 531.753 10.2151 528.023C9.88832 520.866 9.61057 513.711 9.36141 506.55C8.87535 492.39 8.60168 478.212 8.51182 464.042C8.3321 435.699 9.7372 407.399 11.4037 379.137C12.1022 367.313 12.9191 355.542 13.1682 343.723C14.4712 342.933 14.8715 340.688 14.218 339.175C29.6495 351.44 43.9701 366.104 55.4682 383.148C57.388 385.993 59.222 388.924 60.9783 391.907C61.5502 392.877 62.0934 393.887 62.6408 394.895C62.1098 397.707 61.6972 400.566 61.158 403.264C60.047 408.836 59.5773 414.617 58.9401 420.279C57.6453 431.779 56.7344 443.383 55.9624 454.945C54.443 477.778 53.3156 500.608 52.9603 523.508C52.7642 536.458 52.5028 549.49 52.993 562.437C52.6294 564.968 54.5859 567.443 56.6323 567.761C58.4255 568.042 60.1001 566.957 60.8844 565.211C66.4721 566.02 72.2068 566.391 77.7578 566.438C85.2367 566.5 92.7156 566.491 100.194 566.305C115.156 565.924 130.114 565.478 145.072 564.959C174.987 563.931 204.903 562.899 234.822 561.866C243.118 561.58 251.414 561.295 259.71 561.01C263.451 560.881 268.116 562.137 271.065 558.774C271.571 558.193 271.964 557.512 272.241 556.784C273.124 557.041 274.206 556.789 274.786 555.995C275.868 554.505 276.665 553.126 276.624 551.061C276.587 549.129 276.13 547.093 275.893 545.18C275.444 541.588 275.011 537.995 274.598 534.398C273.785 527.29 273.026 520.172 272.327 513.049C270.897 498.486 269.599 483.888 268.586 469.276C266.576 440.381 266.008 411.334 266.078 382.348C266.086 379.755 266.098 377.162 266.11 374.569C266.204 374.707 266.306 374.835 266.417 374.945C266.507 375.035 266.596 375.125 266.686 375.221C267.732 376.292 269.472 376.844 270.726 375.83C272.266 374.669 273.328 372.927 274.529 371.353C275.791 369.702 277.09 368.093 278.401 366.495C280.941 363.402 283.568 360.438 286.247 357.507C286.464 357.274 286.68 357.036 286.897 356.807C286.913 366.033 286.905 375.254 287.117 384.475C287.436 398.173 288.073 411.857 288.657 425.536C289.817 452.623 291.018 479.701 292.174 506.783C292.497 514.344 292.803 521.909 293.126 529.469C293.289 533.251 293.448 537.034 293.604 540.817C293.685 542.863 293.767 544.914 293.849 546.96C293.939 549.158 293.82 551.508 294.457 553.597C295.907 558.373 302.173 559.049 303.378 553.597C304.134 550.176 303.554 546.217 303.419 542.706C303.28 539.242 303.141 535.773 302.998 532.305Z" fill="black"/>
<path fill-rule="evenodd" clip-rule="evenodd" d="M236.149 143.942C235.15 130.958 236.699 117.35 231.713 105.009C223.02 84.5328 198.643 77.7056 179.745 69.9101C172.174 67.664 146.699 67.35 137.835 64.3772C117.772 57.6489 112.978 49.6323 97.0364 62.4431C94.3454 64.6316 92.6617 67.01 91.4336 70.2598L91.484 70.2737C91.1332 71.6285 91.5093 72.9803 92.2996 74.0129C85.3874 81.1069 82.4949 91.7425 86.0414 101.186C97.6152 125.76 97.0709 139.047 93.3418 165.466C88.4721 190.129 99.6 199.138 118.029 212.558C117.279 214.019 117.123 215.96 118.101 217.249C139.412 247.317 179.594 261.674 214.021 246.412C227.996 240.167 234.234 225.224 237.795 211.741C241.942 196.643 243.217 180.735 239.84 165.356C238.478 158.243 236.704 151.182 236.149 143.942Z" fill="white"/>
<path fill-rule="evenodd" clip-rule="evenodd" d="M113.229 0.0934619C115.815 -0.29655 117.769 1.31489 118.698 3.58618L118.747 3.70848C119.046 4.48132 119.378 5.23304 119.735 5.97209C126.208 2.78361 135.445 3.6029 139.541 10.0601C142.465 14.6718 140.681 20.145 139.579 25.0354L138.856 28.2577C140.254 29.1512 141.309 30.7513 141.259 32.4082L141.253 32.5357L140.959 37.0292C141.893 36.079 142.746 35.0443 143.508 33.942C144.034 32.9749 144.601 32.0247 145.211 31.1041C148.799 25.6858 156.853 30.3946 153.892 36.1972C153.325 37.3163 152.685 38.3764 152 39.3984C151.226 40.906 150.591 42.4559 150.103 44.0481C151.503 44.6604 152.58 46.0203 152.694 48.0727C152.959 52.866 150.452 56.8653 146.465 59.3781C145.291 60.1172 144.08 60.2607 142.982 59.9862C142.789 60.2481 142.595 60.5099 142.41 60.776C144 62.0725 145.434 63.5506 146.666 65.1892C150.376 64.6317 154.107 64.3699 157.838 64.3614C162.397 62.1189 167.856 62.1654 172.756 63.0058C175.911 63.5464 178.939 64.5979 182.043 65.3539C185.316 66.1478 188.638 66.1774 191.949 66.7179C196.121 67.3979 199.78 69.3321 202.081 72.4192C204.609 72.4952 207.267 73.5341 209.471 74.9447C214.602 78.2303 219.704 81.5623 224.823 84.8691C226.787 86.1386 227.522 88.1652 227.161 90.4257L227.136 90.5703L226.964 91.5079L227.369 92.0849C228.935 94.3061 230.64 96.6326 231.653 99.0842C233.529 101.8 235.224 104.646 236.726 107.581C238.749 111.526 240.419 115.707 241.55 119.997C241.832 121.083 242.114 122.176 242.299 123.283C242.564 124.845 242.156 126.057 241.933 127.557C241.655 129.457 241.554 131.383 241.26 133.288C241.062 134.55 239.994 135.171 238.875 135.205C239.296 138.419 239.599 141.654 239.889 144.863C240.297 149.45 240.574 154.049 240.814 158.648C242.051 160.451 244.579 161.878 246.404 162.372C248.932 163.052 251.582 162.313 253.971 161.448C255.472 160.903 256.705 162.799 255.973 164.066C253.672 168.044 248.751 168.027 245.024 166.266C243.447 165.523 242.063 164.446 241.037 163.044C241.1 164.378 241.167 165.713 241.235 167.052L241.297 168.264C242.055 182.425 243.691 197.073 241.041 211.095C236.453 235.382 216.435 253.875 191.982 255.311C179.15 256.065 168.465 252.259 163.151 250.137C157.838 248.014 159.903 243.685 163.592 244.923C169.946 247.054 181.62 250.23 192.066 248.858C216.688 245.627 237.567 233.27 235.422 180.051C235.118 172.503 234.181 164.953 233.979 157.406C233.786 150.028 233.857 142.646 233.534 135.272L233.426 132.757C233.299 129.817 233.164 126.864 232.945 123.921C232.68 122.78 232.461 121.623 232.137 120.504C231.258 117.459 230.11 114.499 228.684 111.673C228.369 111.914 228.015 112.087 227.633 112.155C224.726 112.679 222.001 112.531 219.279 111.314C218.009 110.753 216.89 110.005 215.847 109.08C215.351 108.645 215.019 108.223 214.758 107.784C213.441 107.805 212.125 107.408 211.301 106.458C210.36 105.375 210.204 104.256 210.572 103.221L210.611 103.117L210.518 103.084C209.408 105.968 207.195 108.506 204.769 110.221C200.933 112.94 196.134 113.726 191.532 113.798C186.451 113.874 181.093 113.088 176.079 112.286C174.754 112.075 173.438 111.834 172.147 111.509C172.096 111.559 172.046 111.619 171.991 111.669C167.688 115.804 161.636 116.868 156.176 114.507C153.022 113.143 150.376 110.947 148.038 108.43C148.004 109.748 147.937 111.065 147.823 112.37L147.776 112.888C147.543 115.319 147.095 117.897 145.266 119.651C142.309 122.493 138.019 121.353 134.608 119.503C134.612 119.592 134.612 119.685 134.612 119.778C135.533 122.92 136.458 126.066 137.384 129.212L137.583 129.882C138.256 132.116 138.994 134.353 139.197 136.691C139.584 141.16 136.622 145.573 131.676 144.073C129.082 143.29 127.003 141.1 125.009 139.345L123.752 138.254C127.003 148.926 129.258 159.978 129.468 171.114C129.481 171.718 128.963 172.174 128.391 172.195C127.054 172.25 125.615 171.984 124.269 171.448C124.194 171.444 124.118 171.44 124.038 171.427C121.742 171.093 119.609 170.261 117.729 169.032C118.162 170.413 118.356 171.896 118.242 173.446C118.213 173.821 117.628 173.952 117.544 173.538C116.459 168.179 110.213 164.129 104.829 165.155C99.0501 166.258 94.7936 171.249 93.7505 176.93C92.6317 183.032 94.7725 190.089 98.7388 194.798C100.564 196.968 102.966 198.78 105.818 199.236C107.121 199.443 108.476 199.371 109.742 199C110.28 198.839 110.785 198.616 111.298 198.404C112.047 198.1 112.922 198.054 113.628 197.733C115.231 197.011 116.842 198.493 116.03 200.144C115.323 201.584 114.688 202.556 113.515 203.299C114.465 204.465 115.327 206.086 115.647 206.521C117.279 208.734 118.936 210.825 120.795 212.848C122.688 214.9 124.753 216.775 126.936 218.511L127.854 219.239C129.956 220.913 131.787 222.465 133.27 224.867C134.44 226.763 132.925 229.335 130.734 229.305C123.878 229.208 118.894 223.16 115.344 217.877C114.839 217.121 114.364 216.323 113.923 215.504C113.763 215.762 113.586 216.002 113.388 216.222L113.78 217.278C114.94 220.386 109.939 222.417 108.488 219.516C107.433 217.413 106.209 215.411 104.846 213.519C104.043 213.405 103.256 212.915 102.819 212.282C101.712 210.673 100.472 209.047 99.4244 207.332C98.844 206.779 98.2467 206.247 97.6368 205.727C97.4602 205.884 97.2793 206.04 97.1069 206.205C96.3414 207.957 95.395 209.558 94.2215 211.065L93.97 211.387C91.7219 214.232 88.7936 217.143 85.1702 217.839C84.064 218.05 82.9999 216.669 83.9799 215.787C86.5161 213.498 89.515 211.94 91.8536 209.385C93.0057 208.126 94.0636 206.74 94.9733 205.287L95.1805 204.95C95.3319 204.701 95.4876 204.452 95.6474 204.199C94.5917 203.476 93.536 202.75 92.4803 202.024C89.574 204.517 85.7894 205.657 82.5749 207.722L82.2554 207.932C79.349 209.883 76.287 205.567 78.6172 203.198C81.1858 200.596 83.33 197.493 85.6055 194.601C84.5355 192.622 84.0291 190.282 83.8394 187.917C83.7645 187.248 83.7061 186.578 83.6476 185.908C82.0157 185.933 80.3753 185.372 78.9873 184.405L78.4616 184.029C76.7749 184.569 75.0042 184.831 73.3092 184.785C69.3219 184.666 67.6899 180.093 70.1841 177.2C72.7288 174.244 77.1829 173.598 80.7118 175.033C80.8254 174.974 80.9431 174.911 81.0567 174.848C80.8884 174.071 80.9259 173.366 81.1172 172.747L81.0617 172.369C80.2857 171.173 79.7755 169.809 79.5821 168.366C79.429 167.224 79.4601 166.092 79.7234 164.964C79.8109 164.588 79.993 164.199 80.1322 163.808C79.8453 163.081 79.6767 162.329 79.6245 161.573C79.5442 161.477 79.4643 161.379 79.3886 161.272C77.6376 158.804 77.9913 155.829 79.6578 153.832C79.6653 153.705 79.6771 153.578 79.6944 153.451C79.5968 153.231 79.5072 153.008 79.4256 152.783C77.7974 151.134 76.6021 149.15 76.825 146.691C76.9558 145.244 77.548 143.941 78.4443 142.968C78.2853 142.496 78.2702 141.949 78.4628 141.492C77.0324 137.672 77.2132 133.071 78.2429 128.798C78.0157 128.148 77.898 127.443 77.9232 126.695C78.041 123.524 80.7749 120.61 84.0135 120.648C84.4034 120.651 84.7685 120.702 85.1193 120.777L85.1239 120.701C85.248 119.749 85.5088 118.87 85.8894 118.08C85.7022 118.012 85.529 117.915 85.3771 117.785C83.3019 118.897 81.1059 119.746 78.8035 120.325C77.1106 120.751 75.3764 118.819 76.4288 117.223C76.9171 116.483 77.4559 115.818 78.0363 115.211C77.2111 115.216 76.3733 115.272 75.5258 115.381C74.0032 115.58 72.3039 114.537 71.3155 113.126C70.0874 114.326 68.855 115.521 67.6226 116.716C64.5018 119.752 59.7868 117.518 59.2947 113.515C58.3652 113.266 57.4987 112.843 56.7374 112.239C51.8164 114.385 46.521 115.563 41.1078 115.787C37.2215 115.947 34.9502 111.403 36.7672 108.194C37.987 106.04 39.5011 104.106 41.2466 102.425C38.538 103.257 35.741 103.856 32.8851 104.241C31.3414 104.448 29.1585 103.164 28.5402 101.741C26.1764 96.2674 26.3783 90.5619 29.0996 85.2365C29.2048 85.0253 29.3226 84.8226 29.4361 84.6199C29.7179 83.9146 30.025 83.2178 30.3572 82.5337C27.0092 79.0284 26.719 73.8171 28.5234 69.4546C27.8 68.2763 27.5224 66.8573 28.0145 65.5735C29.4151 61.8782 31.434 58.4659 33.9828 55.535C33.7389 55.062 33.5244 54.5595 33.3435 54.0189C31.9093 49.648 33.5706 44.3732 36.9228 41.3283C39.0301 39.411 41.4527 38.2623 44.0394 37.5275C45.1288 35.5933 46.5294 33.8491 48.1613 32.3795C48.2244 32.2401 48.2875 32.1007 48.359 31.9614C50.8995 27.1554 55.5261 24.5793 60.485 23.9838C60.6785 22.1045 61.9403 20.3097 63.7741 19.7269C64.2788 18.101 65.0317 16.5469 66.0664 15.1363C67.6941 12.915 70.3986 11.8676 72.9475 13.3246C74.3439 14.1228 75.6814 15.0392 76.9348 16.0528C77.4977 15.7877 78.136 15.6162 78.8561 15.5614L79.0378 15.5502L83.1849 15.339C84.922 14.5662 86.6549 13.7554 88.392 12.9656C89.4351 12.0999 90.6002 11.3777 91.8704 10.8414C93.3088 10.2375 94.781 9.8954 96.2573 9.78138C97.456 9.38863 98.6631 9.04233 99.8913 8.77205C102.777 8.13857 105.797 7.78383 108.791 7.81339C108.853 7.03512 108.883 6.24755 108.877 5.45066L108.871 5.05145C108.804 2.49644 110.835 0.456653 113.229 0.0934619ZM110.319 204.515C109.906 204.604 109.49 204.676 109.074 204.726C109.2 205.039 109.326 205.351 109.448 205.664C109.784 205.854 110.125 206.035 110.466 206.204C110.365 205.63 110.306 205.051 110.319 204.515ZM88.7105 198.068L88.4309 198.585C88.3856 198.669 88.341 198.753 88.2971 198.835C88.8901 198.788 89.4873 198.801 90.0761 198.869L90.0744 198.806C89.9987 198.78 89.923 198.756 89.8506 198.721C89.4444 198.525 89.0667 198.305 88.7105 198.068ZM100.39 174.48C104.111 174.698 107.264 175.271 110.648 176.905L110.938 177.048C113.929 178.539 118.875 181.292 118.459 185.241C118.341 186.364 117.529 187.547 116.251 187.458C112.747 187.217 110.745 183.67 108.373 181.457C105.98 179.227 103.04 176.934 100.142 175.401C99.732 175.185 99.8934 174.502 100.339 174.48L100.39 174.48ZM83.5183 122.455C82.6249 122.485 82.9241 123.356 83.3834 122.628C83.4213 122.569 83.4677 122.51 83.5183 122.455ZM131.649 64.3773C123.204 64.6003 114.705 69.6068 108.379 74.6674C102.875 79.0701 98.1227 84.3068 93.9146 89.951C92.8319 92.762 91.9024 95.6316 91.1171 98.5223C90.5998 100.431 90.2759 102.361 89.8427 104.287L89.7081 104.877C89.3678 105.516 89.1151 106.203 88.9308 106.913C89.6976 107.685 90.6923 108.238 91.7876 108.5C92.1404 108.584 92.4336 108.767 92.6654 109.01C93.5469 107.532 94.3175 105.973 94.7659 104.32L94.7823 104.244C96.4769 101.457 98.3174 98.7567 100.29 96.1489C105.733 88.9485 111.727 82.3857 118.932 76.9251C124.395 72.7864 130.502 69.5431 136.996 67.4357C135.407 66.1481 133.602 65.1294 131.649 64.3773Z" fill="black"/>
<path fill-rule="evenodd" clip-rule="evenodd" d="M207.776 220.973C204.677 221.874 201.352 221.954 198.193 221.024C195.329 220.18 192.387 218.322 190.279 215.864C188.406 213.68 187.193 211.027 187.241 208.194C187.246 207.871 187.361 207.601 187.539 207.391C187.729 207.165 187.996 207.011 188.281 206.943C188.575 206.874 188.885 206.899 189.149 207.019C189.389 207.128 189.594 207.314 189.722 207.584C190.046 208.012 190.369 208.433 190.693 208.842C193.298 212.072 195.821 214.486 199.738 215.352C201.864 215.822 203.987 215.613 205.934 214.896C208.019 214.129 209.904 212.78 211.381 211.053C212.048 210.273 212.836 209.955 213.607 209.949C214.48 209.943 215.343 210.351 215.993 211.002C216.633 211.642 217.061 212.512 217.099 213.422C217.133 214.22 216.874 215.054 216.184 215.798C213.91 218.25 210.964 220.045 207.776 220.973ZM207.683 180.518C210.859 182.457 215.699 186.977 212.282 191.783C208.26 196.02 202.47 191.162 199.616 188.964C196.97 187.261 193.997 191.641 196.452 193.629C217.072 208.958 225.44 181.025 209.29 178.239C207.512 177.932 206.851 179.919 207.683 180.518ZM177.972 171.989C176.951 171.333 175.751 171.108 174.42 171.716C173.38 172.191 171.556 173.774 170.286 175.855C169.418 177.279 168.802 178.949 168.93 180.689C168.96 181.093 168.811 181.391 168.577 181.611C168.391 181.785 168.124 181.913 167.81 181.953C167.543 181.987 167.244 181.956 167.001 181.88C166.539 181.735 166.295 181.435 166.203 181.189C165.314 178.819 165.697 176.174 166.693 173.788C168.037 170.568 170.479 167.87 172.078 167.001C174.816 165.512 178.045 165.443 180.786 166.96C183.119 168.251 184.578 170.335 186.029 172.459C186.337 172.911 186.644 173.359 186.96 173.799C187.594 174.682 187.657 175.557 187.412 176.307C187.14 177.139 186.446 177.84 185.578 178.207C184.777 178.547 183.846 178.595 183.023 178.246C182.327 177.951 181.689 177.377 181.285 176.403C180.605 174.762 179.471 172.952 177.972 171.989ZM229.815 175.639C229.116 176.005 228.569 176.116 227.793 175.882C227.365 175.753 226.941 175.505 226.609 175.172C226.28 174.842 226.043 174.431 225.95 173.975C225.724 172.851 225.111 171.799 224.238 171.112C223.492 170.526 222.55 170.215 221.505 170.391C220.377 170.579 219.303 171.305 218.564 172.161C218.316 172.448 218.122 172.773 217.928 173.096C217.563 173.7 217.209 174.262 216.706 174.706C216.516 174.875 216.228 174.991 215.95 174.991C215.837 174.991 215.723 174.973 215.613 174.939C214.491 173.808 214.275 172.95 214.312 172.099C214.35 171.207 214.7 170.304 215.266 169.461C216.594 167.483 219.116 165.862 220.817 165.495C223.148 164.992 225.462 165.596 227.318 166.903C229.227 168.247 230.641 170.335 231.082 172.688C231.189 173.254 231.144 173.866 230.929 174.396C230.719 174.915 230.353 175.358 229.815 175.639ZM183.11 150.908C181.711 152.276 180.056 152.488 178.381 152.676C177.451 152.782 176.708 152.867 175.977 153.033C173.968 153.488 171.983 154.174 170.171 155.162C168.277 156.194 166.213 157.439 164.728 159.034C164.375 159.414 164.043 159.812 163.709 160.211C163.405 160.575 163.113 160.926 162.804 161.264C162.45 161.652 162.113 162.058 161.779 162.464C161.572 162.806 161.531 162.891 161.489 162.978C161.426 163.11 161.353 163.257 161.27 163.415C161.156 163.632 161.022 163.869 160.882 164.084C160.649 164.477 160.524 164.585 160.416 164.633C160.237 164.713 160.067 164.753 159.902 164.732C159.748 164.712 159.602 164.637 159.458 164.515C158.74 163.906 158.529 162.906 158.55 161.845C158.583 160.235 159.175 158.452 159.72 157.356C160.988 154.81 162.746 152.163 164.86 150.262C167.273 148.093 169.913 146.45 172.944 145.319C174.828 144.615 177.01 143.969 179.062 144.051C180.54 144.11 181.95 144.551 183.115 145.652C183.83 146.328 184.173 147.289 184.173 148.25C184.173 149.23 183.817 150.216 183.11 150.908ZM232.66 163.436C232.572 163.582 232.448 163.683 232.311 163.744C232.168 163.807 232.008 163.826 231.854 163.8C231.701 163.774 231.555 163.704 231.44 163.597C231.329 163.495 231.245 163.36 231.207 163.194C230.278 159.099 228.476 156.053 224.627 154.089C222.735 153.122 220.558 152.508 218.497 152.019C217.899 151.876 217.266 151.784 216.629 151.691C214.632 151.398 212.62 151.063 211.318 149.442C210.534 148.466 210.205 147.217 210.391 146.075C210.566 145 211.192 144.014 212.329 143.423C215.161 141.953 218.68 143.396 221.54 144.625C221.752 144.716 221.96 144.805 222.164 144.892C224.96 146.077 227.511 147.641 229.607 149.879C231.271 151.654 232.812 154.278 233.433 156.977C233.949 159.223 233.828 161.515 232.66 163.436Z" fill="black"/>
<path d="M129.008 368.066C128.324 367.678 127.619 367.336 126.893 367.04C126.279 366.786 125.588 366.556 124.818 366.351C124.07 366.123 123.336 366.018 122.615 366.037C122.029 366.053 121.558 366.155 121.202 366.345C120.867 366.534 120.704 366.843 120.713 367.27C120.719 367.586 120.825 367.842 121.032 368.039C121.238 368.237 121.535 368.421 121.921 368.591C122.307 368.738 122.772 368.884 123.315 369.027C123.881 369.17 124.515 369.345 125.218 369.552C126.328 369.86 127.326 370.206 128.212 370.588C129.121 370.97 129.896 371.434 130.537 371.98C131.178 372.504 131.675 373.156 132.028 373.935C132.381 374.714 132.569 375.667 132.591 376.793C132.619 378.235 132.372 379.458 131.851 380.463C131.352 381.445 130.669 382.241 129.802 382.849C128.958 383.458 127.986 383.911 126.888 384.211C125.812 384.487 124.722 384.64 123.619 384.669C122.741 384.692 121.839 384.648 120.913 384.537C119.987 384.426 119.06 384.259 118.132 384.036C117.226 383.812 116.342 383.542 115.48 383.227C114.64 382.911 113.856 382.549 113.127 382.14L115.852 376.288C116.65 376.763 117.481 377.18 118.344 377.541C119.071 377.859 119.887 378.142 120.793 378.389C121.722 378.635 122.659 378.745 123.605 378.72C124.325 378.701 124.819 378.598 125.086 378.411C125.375 378.2 125.516 377.937 125.51 377.622C125.503 377.284 125.351 377.007 125.054 376.789C124.779 376.548 124.392 376.345 123.893 376.178C123.394 376.01 122.817 375.845 122.16 375.682C121.526 375.519 120.846 375.323 120.121 375.094C119.056 374.761 118.136 374.403 117.363 374.017C116.589 373.61 115.949 373.153 115.444 372.648C114.938 372.121 114.554 371.523 114.294 370.853C114.055 370.184 113.928 369.41 113.911 368.531C113.885 367.203 114.098 366.025 114.552 364.999C115.027 363.973 115.675 363.111 116.495 362.413C117.315 361.715 118.251 361.184 119.303 360.818C120.377 360.429 121.511 360.219 122.704 360.188C123.582 360.164 124.44 360.232 125.276 360.39C126.113 360.526 126.916 360.719 127.687 360.969C128.48 361.196 129.217 361.458 129.899 361.756C130.58 362.031 131.194 362.296 131.739 362.552L129.008 368.066ZM143.96 384.166C142.406 384.207 141.017 384.007 139.792 383.566C138.566 383.103 137.528 382.466 136.679 381.654C135.852 380.842 135.214 379.901 134.766 378.832C134.317 377.762 134.081 376.63 134.058 375.436C134.033 374.153 134.212 372.931 134.595 371.772C135 370.612 135.6 369.593 136.394 368.716C137.211 367.838 138.211 367.136 139.395 366.609C140.601 366.059 142.003 365.763 143.602 365.721C145.178 365.679 146.579 365.901 147.805 366.387C149.031 366.851 150.057 367.5 150.885 368.334C151.734 369.146 152.372 370.109 152.799 371.224C153.249 372.317 153.485 373.471 153.509 374.687C153.515 375.025 153.5 375.375 153.462 375.736C153.446 376.075 153.418 376.38 153.378 376.651L140.914 376.98C141 377.924 141.362 378.601 142.001 379.013C142.64 379.401 143.33 379.586 144.073 379.566C144.771 379.548 145.421 379.373 146.023 379.042C146.648 378.71 147.056 378.26 147.248 377.691L152.716 379.102C152.023 380.54 150.931 381.729 149.439 382.67C147.971 383.61 146.144 384.109 143.96 384.166ZM146.581 372.977C146.452 372.124 146.124 371.457 145.596 370.975C145.069 370.493 144.4 370.263 143.589 370.284C142.778 370.306 142.119 370.571 141.611 371.08C141.102 371.589 140.8 372.273 140.704 373.132L146.581 372.977ZM167.608 370.902C166.369 370.934 165.246 371.099 164.238 371.396C163.23 371.693 162.484 372.163 162.001 372.807L162.206 383.347L155.788 383.517L155.443 365.747L161.32 365.592L161.386 368.97C161.993 367.76 162.752 366.827 163.664 366.172C164.597 365.494 165.604 365.141 166.684 365.112C167.112 365.101 167.383 365.105 167.496 365.125L167.608 370.902ZM174.231 383.03L167.908 365.418L174.494 365.245L177.917 377.897L180.878 365.076L186.857 364.919L181.223 382.846L174.231 383.03ZM188.873 382.645L188.528 364.875L194.946 364.706L195.291 382.475L188.873 382.645ZM188.499 363.388L188.394 357.983L194.812 357.814L194.917 363.219L188.499 363.388ZM197.386 373.531C197.362 372.315 197.554 371.149 197.96 370.034C198.366 368.897 198.966 367.901 199.761 367.046C200.577 366.168 201.589 365.466 202.795 364.938C204.001 364.388 205.392 364.092 206.968 364.051C209.13 363.994 210.94 364.397 212.399 365.26C213.88 366.122 214.995 367.253 215.743 368.653L209.531 370.709C208.906 369.847 208.075 369.43 207.04 369.457C206.161 369.48 205.425 369.837 204.83 370.529C204.235 371.198 203.949 372.141 203.972 373.357C203.996 374.573 204.318 375.511 204.94 376.171C205.56 376.808 206.31 377.115 207.188 377.092C208.224 377.065 209.037 376.604 209.628 375.709L215.914 377.436C215.221 378.874 214.151 380.063 212.705 381.002C211.281 381.941 209.488 382.439 207.327 382.496C205.75 382.538 204.349 382.327 203.124 381.863C201.898 381.377 200.86 380.729 200.011 379.917C199.183 379.083 198.545 378.12 198.096 377.027C197.646 375.912 197.409 374.747 197.386 373.531ZM226.623 381.988C225.069 382.029 223.679 381.829 222.454 381.388C221.229 380.924 220.191 380.287 219.342 379.476C218.515 378.664 217.877 377.723 217.428 376.653C216.979 375.583 216.743 374.451 216.72 373.258C216.695 371.974 216.874 370.753 217.257 369.593C217.663 368.433 218.263 367.415 219.057 366.538C219.873 365.66 220.873 364.957 222.057 364.431C223.263 363.88 224.666 363.584 226.264 363.542C227.841 363.501 229.242 363.723 230.468 364.209C231.693 364.672 232.72 365.321 233.547 366.156C234.397 366.967 235.035 367.93 235.462 369.046C235.911 370.138 236.148 371.292 236.171 372.509C236.178 372.846 236.162 373.196 236.124 373.558C236.108 373.896 236.08 374.201 236.041 374.472L223.577 374.801C223.663 375.745 224.025 376.423 224.664 376.834C225.302 377.223 225.993 377.407 226.736 377.388C227.434 377.369 228.084 377.195 228.686 376.863C229.31 376.531 229.718 376.081 229.91 375.513L235.378 376.923C234.685 378.361 233.593 379.551 232.102 380.491C230.633 381.431 228.807 381.93 226.623 381.988ZM229.244 370.798C229.115 369.945 228.786 369.278 228.259 368.796C227.731 368.314 227.062 368.084 226.252 368.106C225.441 368.127 224.781 368.392 224.273 368.901C223.765 369.41 223.463 370.094 223.367 370.953L229.244 370.798ZM115.574 424.589L115.108 400.603L124.329 400.36C126.311 400.308 128.062 400.578 129.583 401.168C131.104 401.759 132.382 402.582 133.416 403.636C134.45 404.691 135.241 405.943 135.787 407.393C136.333 408.821 136.622 410.357 136.654 412.001C136.689 413.825 136.429 415.488 135.872 416.99C135.338 418.469 134.551 419.751 133.514 420.838C132.475 421.902 131.219 422.746 129.744 423.371C128.269 423.973 126.619 424.298 124.795 424.346L115.574 424.589ZM129.966 412.177C129.948 411.254 129.808 410.412 129.545 409.653C129.283 408.894 128.91 408.25 128.426 407.722C127.965 407.194 127.394 406.792 126.713 406.517C126.031 406.219 125.274 406.082 124.441 406.104L121.806 406.173L122.049 418.673L124.684 418.603C125.539 418.581 126.302 418.403 126.971 418.07C127.641 417.737 128.195 417.283 128.635 416.708C129.097 416.132 129.433 415.459 129.643 414.687C129.876 413.915 129.983 413.078 129.966 412.177ZM148.068 424.071C146.515 424.112 145.125 423.912 143.9 423.471C142.674 423.008 141.637 422.37 140.787 421.559C139.961 420.747 139.323 419.806 138.874 418.736C138.425 417.666 138.189 416.535 138.166 415.341C138.141 414.057 138.32 412.836 138.703 411.677C139.109 410.517 139.708 409.498 140.502 408.621C141.319 407.743 142.319 407.041 143.503 406.514C144.709 405.964 146.111 405.668 147.71 405.625C149.286 405.584 150.688 405.806 151.914 406.292C153.139 406.756 154.166 407.404 154.993 408.239C155.842 409.05 156.481 410.014 156.908 411.129C157.357 412.221 157.594 413.376 157.617 414.592C157.624 414.93 157.608 415.279 157.57 415.641C157.554 415.979 157.526 416.284 157.486 416.556L145.022 416.884C145.108 417.828 145.471 418.506 146.11 418.917C146.748 419.306 147.439 419.491 148.182 419.471C148.88 419.453 149.53 419.278 150.132 418.947C150.756 418.615 151.164 418.164 151.356 417.596L156.824 419.007C156.131 420.445 155.039 421.634 153.548 422.575C152.079 423.515 150.253 424.013 148.068 424.071ZM150.69 412.882C150.561 412.029 150.232 411.361 149.705 410.88C149.177 410.398 148.508 410.167 147.697 410.189C146.887 410.21 146.227 410.475 145.719 410.985C145.211 411.494 144.908 412.178 144.812 413.036L150.69 412.882ZM167.233 423.566C165.679 423.607 164.154 423.399 162.658 422.943C161.162 422.464 159.887 421.754 158.832 420.813L160.953 416.904C162.071 417.618 163.14 418.164 164.161 418.543C165.205 418.921 166.155 419.099 167.011 419.076C167.911 419.053 168.356 418.759 168.345 418.196C168.339 417.881 168.154 417.615 167.789 417.4C167.447 417.183 166.766 416.942 165.747 416.676C164.479 416.349 163.414 416.028 162.552 415.712C161.712 415.374 161.017 415.009 160.469 414.618C159.943 414.226 159.563 413.786 159.328 413.296C159.093 412.807 158.969 412.224 158.956 411.548C158.939 410.647 159.103 409.809 159.448 409.034C159.794 408.259 160.276 407.581 160.896 407.002C161.538 406.422 162.295 405.973 163.168 405.657C164.062 405.318 165.039 405.135 166.097 405.107C167.403 405.073 168.645 405.209 169.822 405.516C171.022 405.822 172.229 406.478 173.443 407.482L171.086 411.398C169.968 410.706 169.035 410.224 168.286 409.95C167.537 409.655 166.836 409.515 166.183 409.533C165.8 409.543 165.486 409.63 165.242 409.794C164.997 409.936 164.877 410.164 164.883 410.48C164.89 410.817 165.076 411.094 165.44 411.31C165.804 411.503 166.518 411.721 167.582 411.963C168.872 412.267 169.96 412.599 170.846 412.959C171.731 413.296 172.437 413.683 172.964 414.12C173.512 414.533 173.905 415.019 174.141 415.576C174.376 416.111 174.501 416.738 174.515 417.459C174.533 418.382 174.38 419.209 174.057 419.938C173.733 420.668 173.249 421.3 172.606 421.836C171.986 422.37 171.217 422.785 170.299 423.079C169.403 423.373 168.381 423.536 167.233 423.566ZM176.818 422.975L176.473 405.205L182.891 405.036L183.236 422.806L176.818 422.975ZM176.444 403.719L176.339 398.314L182.757 398.145L182.862 403.55L176.444 403.719ZM193.306 422.541C192.158 422.571 191.095 422.374 190.118 421.949C189.163 421.501 188.34 420.891 187.649 420.121C186.958 419.328 186.41 418.396 186.007 417.325C185.625 416.253 185.422 415.087 185.398 413.826C185.372 412.497 185.551 411.264 185.934 410.127C186.318 408.991 186.862 408.007 187.567 407.178C188.294 406.347 189.16 405.694 190.165 405.216C191.169 404.717 192.279 404.451 193.495 404.419C194.779 404.385 195.91 404.614 196.888 405.107C197.866 405.577 198.646 406.289 199.227 407.242L199.176 404.607L204.749 404.46L205.063 420.608C205.09 422.005 204.856 423.273 204.36 424.413C203.864 425.552 203.15 426.529 202.22 427.342C201.29 428.155 200.164 428.793 198.844 429.256C197.524 429.742 196.053 430.006 194.432 430.048C192.541 430.098 190.891 429.849 189.484 429.3C188.076 428.751 186.821 427.939 185.719 426.864L189.028 423.262C189.693 423.853 190.48 424.339 191.389 424.721C192.32 425.124 193.304 425.312 194.34 425.285C194.925 425.27 195.475 425.176 195.99 425.005C196.528 424.833 196.995 424.562 197.394 424.191C197.792 423.842 198.099 423.383 198.313 422.814C198.55 422.245 198.661 421.566 198.645 420.778L198.623 419.629C198.124 420.589 197.394 421.306 196.434 421.782C195.497 422.258 194.455 422.51 193.306 422.541ZM195.505 417.413C196.158 417.395 196.718 417.234 197.185 416.929C197.674 416.601 198.127 416.127 198.543 415.507L198.481 412.332C198.15 411.529 197.665 410.9 197.025 410.444C196.408 409.987 195.762 409.767 195.086 409.785C194.636 409.797 194.21 409.921 193.809 410.157C193.43 410.369 193.098 410.66 192.812 411.028C192.526 411.373 192.309 411.796 192.161 412.296C192.013 412.773 191.944 413.282 191.954 413.822C191.976 414.926 192.319 415.807 192.985 416.465C193.652 417.124 194.491 417.439 195.505 417.413ZM226.221 421.673L219.803 421.842L219.609 411.843C219.592 410.964 219.377 410.339 218.964 409.967C218.574 409.571 218.119 409.381 217.602 409.394C217.061 409.409 216.491 409.66 215.893 410.149C215.294 410.638 214.855 411.258 214.577 412.009L214.771 421.975L208.353 422.144L208.008 404.374L213.784 404.222L213.835 406.857C214.447 405.872 215.311 405.117 216.427 404.592C217.565 404.044 218.911 403.749 220.465 403.708C221.681 403.676 222.642 403.876 223.349 404.308C224.078 404.717 224.629 405.243 225.002 405.887C225.398 406.53 225.659 407.222 225.786 407.962C225.913 408.702 225.982 409.376 225.994 409.984L226.221 421.673ZM114.796 452.421C114.768 450.957 115.01 449.508 115.523 448.075C116.059 446.642 116.844 445.348 117.881 444.194C118.917 443.04 120.183 442.094 121.678 441.356C123.174 440.618 124.889 440.223 126.826 440.172C129.145 440.111 131.159 440.543 132.867 441.467C134.596 442.367 135.893 443.595 136.757 445.15L131.794 448.863C131.557 448.284 131.244 447.807 130.854 447.435C130.486 447.061 130.075 446.768 129.62 446.555C129.165 446.341 128.689 446.196 128.192 446.119C127.717 446.041 127.255 446.009 126.804 446.02C125.859 446.045 125.041 446.258 124.35 446.66C123.681 447.038 123.128 447.537 122.689 448.157C122.273 448.754 121.959 449.438 121.749 450.21C121.561 450.958 121.474 451.704 121.488 452.447C121.505 453.281 121.644 454.077 121.906 454.836C122.169 455.595 122.542 456.262 123.027 456.835C123.511 457.408 124.094 457.866 124.777 458.208C125.482 458.528 126.262 458.676 127.117 458.653C127.568 458.642 128.029 458.584 128.5 458.482C128.97 458.357 129.417 458.176 129.841 457.939C130.287 457.68 130.675 457.365 131.005 456.996C131.358 456.604 131.631 456.135 131.823 455.589L137.256 458.657C136.913 459.544 136.376 460.347 135.647 461.065C134.94 461.782 134.118 462.39 133.181 462.888C132.267 463.385 131.272 463.772 130.196 464.048C129.143 464.324 128.109 464.475 127.096 464.501C125.317 464.548 123.678 464.242 122.178 463.583C120.7 462.901 119.409 461.989 118.306 460.846C117.225 459.703 116.377 458.396 115.763 456.925C115.148 455.454 114.826 453.952 114.796 452.421ZM138.651 439.32L145.069 439.151L145.411 456.752C145.437 458.103 146.002 458.764 147.106 458.735C147.376 458.728 147.668 458.675 147.981 458.577C148.295 458.478 148.585 458.347 148.852 458.182L149.755 462.89C148.996 463.271 148.135 463.575 147.17 463.803C146.228 464.031 145.33 464.156 144.474 464.179C142.762 464.224 141.437 463.819 140.496 462.965C139.556 462.111 139.07 460.851 139.037 459.184L138.651 439.32ZM156.65 463.858C154.848 463.905 153.464 463.401 152.497 462.345C151.53 461.266 151.026 459.679 150.985 457.585L150.758 445.896L157.176 445.727L157.375 455.963C157.39 456.751 157.571 457.355 157.917 457.774C158.286 458.192 158.774 458.394 159.382 458.378C159.877 458.365 160.382 458.239 160.895 458C161.409 457.761 161.917 457.252 162.42 456.472L162.209 445.594L168.627 445.425L168.834 456.101C168.846 456.709 168.944 457.134 169.129 457.377C169.314 457.598 169.632 457.724 170.083 457.758L170.188 463.163C169.089 463.417 168.19 463.554 167.492 463.572C165.308 463.63 164.031 462.841 163.661 461.206L163.514 460.567C162.702 461.693 161.727 462.518 160.588 463.044C159.449 463.547 158.136 463.819 156.65 463.858ZM184.134 463.133C181.455 463.204 179.52 462.218 178.332 460.177L178.385 462.947L172.812 463.094L172.333 438.432L178.751 438.263L178.936 447.79C179.435 446.808 180.153 446.057 181.089 445.536C182.025 444.993 183.134 444.705 184.418 444.671C185.499 444.642 186.505 444.853 187.438 445.301C188.393 445.749 189.216 446.381 189.908 447.196C190.599 447.989 191.147 448.955 191.552 450.094C191.957 451.21 192.172 452.432 192.198 453.761C192.224 455.09 192.034 456.323 191.628 457.46C191.244 458.574 190.688 459.547 189.961 460.377C189.256 461.207 188.402 461.872 187.398 462.371C186.393 462.848 185.305 463.102 184.134 463.133ZM182.171 457.777C183.23 457.749 184.068 457.389 184.685 456.697C185.325 456.004 185.634 455.094 185.612 453.968C185.602 453.428 185.502 452.923 185.312 452.455C185.146 451.986 184.912 451.576 184.613 451.223C184.335 450.87 183.992 450.597 183.583 450.405C183.196 450.213 182.766 450.123 182.293 450.135C181.618 450.153 180.981 450.417 180.383 450.929C179.784 451.418 179.334 452.061 179.034 452.857L179.096 456.033C179.953 457.227 180.978 457.808 182.171 457.777Z" fill="white"/>
</svg>
